<svg width="122" height="123" viewBox="0 0 122 123" fill="none" xmlns="http://www.w3.org/2000/svg">
<g filter="url(#filter0_i_640_1179)">
<g clip-path="url(#clip0_640_1179)">
<rect y="1.25" width="121" height="121" rx="10" fill="#212121"/>
<path d="M3.38672 5.03027V8.0918C3.38672 8.19596 3.39648 8.29525 3.41602 8.38965L5.64258 3.89258C5.39844 3.71029 5.12012 3.61914 4.80762 3.61914C4.41374 3.61914 4.07845 3.75749 3.80176 4.03418C3.52507 4.30762 3.38672 4.63965 3.38672 5.03027ZM7.00977 5.04492V8.07715C7.00977 8.67611 6.79492 9.1888 6.36523 9.61523C5.93555 10.0384 5.41634 10.25 4.80762 10.25C4.19564 10.25 3.67643 10.0384 3.25 9.61523C2.82031 9.1888 2.60547 8.67611 2.60547 8.07715V5.04492C2.60547 4.44596 2.82031 3.9349 3.25 3.51172C3.67969 3.08529 4.19889 2.87207 4.80762 2.87207C5.41634 2.87207 5.93555 3.08529 6.36523 3.51172C6.79492 3.9349 7.00977 4.44596 7.00977 5.04492ZM6.16504 4.60059L3.89941 9.17578C4.15658 9.39388 4.45931 9.50293 4.80762 9.50293C5.19499 9.50293 5.52865 9.36458 5.80859 9.08789C6.08529 8.81445 6.22526 8.48242 6.22852 8.0918V5.03027C6.22852 4.87728 6.20736 4.73405 6.16504 4.60059ZM10.0664 4.27832L8.91406 5.37695L8.45508 4.75684L10.0664 3.21387L10.8477 2.87207V9.9082L10.0664 10.25V4.27832ZM15.6816 4.27832L14.5293 5.37695L14.0703 4.75684L15.6816 3.21387L16.4629 2.87207V9.9082L15.6816 10.25V4.27832ZM20.2324 5.03027V8.0918C20.2324 8.19596 20.2422 8.29525 20.2617 8.38965L22.4883 3.89258C22.2441 3.71029 21.9658 3.61914 21.6533 3.61914C21.2594 3.61914 20.9242 3.75749 20.6475 4.03418C20.3708 4.30762 20.2324 4.63965 20.2324 5.03027ZM23.8555 5.04492V8.07715C23.8555 8.67611 23.6406 9.1888 23.2109 9.61523C22.7812 10.0384 22.262 10.25 21.6533 10.25C21.0413 10.25 20.5221 10.0384 20.0957 9.61523C19.666 9.1888 19.4512 8.67611 19.4512 8.07715V5.04492C19.4512 4.44596 19.666 3.9349 20.0957 3.51172C20.5254 3.08529 21.0446 2.87207 21.6533 2.87207C22.262 2.87207 22.7812 3.08529 23.2109 3.51172C23.6406 3.9349 23.8555 4.44596 23.8555 5.04492ZM23.0107 4.60059L20.7451 9.17578C21.0023 9.39388 21.305 9.50293 21.6533 9.50293C22.0407 9.50293 22.3743 9.36458 22.6543 9.08789C22.931 8.81445 23.071 8.48242 23.0742 8.0918V5.03027C23.0742 4.87728 23.0531 4.73405 23.0107 4.60059ZM26.9121 4.27832L25.7598 5.37695L25.3008 4.75684L26.9121 3.21387L27.6934 2.87207V9.9082L26.9121 10.25V4.27832ZM32.5273 4.27832L31.375 5.37695L30.916 4.75684L32.5273 3.21387L33.3086 2.87207V9.9082L32.5273 10.25V4.27832ZM37.0781 5.03027V8.0918C37.0781 8.19596 37.0879 8.29525 37.1074 8.38965L39.334 3.89258C39.0898 3.71029 38.8115 3.61914 38.499 3.61914C38.1051 3.61914 37.7699 3.75749 37.4932 4.03418C37.2165 4.30762 37.0781 4.63965 37.0781 5.03027ZM40.7012 5.04492V8.07715C40.7012 8.67611 40.4863 9.1888 40.0566 9.61523C39.627 10.0384 39.1077 10.25 38.499 10.25C37.887 10.25 37.3678 10.0384 36.9414 9.61523C36.5117 9.1888 36.2969 8.67611 36.2969 8.07715V5.04492C36.2969 4.44596 36.5117 3.9349 36.9414 3.51172C37.3711 3.08529 37.8903 2.87207 38.499 2.87207C39.1077 2.87207 39.627 3.08529 40.0566 3.51172C40.4863 3.9349 40.7012 4.44596 40.7012 5.04492ZM39.8564 4.60059L37.5908 9.17578C37.848 9.39388 38.1507 9.50293 38.499 9.50293C38.8864 9.50293 39.2201 9.36458 39.5 9.08789C39.7767 8.81445 39.9167 8.48242 39.9199 8.0918V5.03027C39.9199 4.87728 39.8988 4.73405 39.8564 4.60059ZM43.7578 4.27832L42.6055 5.37695L42.1465 4.75684L43.7578 3.21387L44.5391 2.87207V9.9082L43.7578 10.25V4.27832ZM48.3086 5.03027V8.0918C48.3086 8.19596 48.3184 8.29525 48.3379 8.38965L50.5645 3.89258C50.3203 3.71029 50.042 3.61914 49.7295 3.61914C49.3356 3.61914 49.0003 3.75749 48.7236 4.03418C48.4469 4.30762 48.3086 4.63965 48.3086 5.03027ZM51.9316 5.04492V8.07715C51.9316 8.67611 51.7168 9.1888 51.2871 9.61523C50.8574 10.0384 50.3382 10.25 49.7295 10.25C49.1175 10.25 48.5983 10.0384 48.1719 9.61523C47.7422 9.1888 47.5273 8.67611 47.5273 8.07715V5.04492C47.5273 4.44596 47.7422 3.9349 48.1719 3.51172C48.6016 3.08529 49.1208 2.87207 49.7295 2.87207C50.3382 2.87207 50.8574 3.08529 51.2871 3.51172C51.7168 3.9349 51.9316 4.44596 51.9316 5.04492ZM51.0869 4.60059L48.8213 9.17578C49.0785 9.39388 49.3812 9.50293 49.7295 9.50293C50.1169 9.50293 50.4505 9.36458 50.7305 9.08789C51.0072 8.81445 51.1471 8.48242 51.1504 8.0918V5.03027C51.1504 4.87728 51.1292 4.73405 51.0869 4.60059ZM54.9883 4.27832L53.8359 5.37695L53.377 4.75684L54.9883 3.21387L55.7695 2.87207V9.9082L54.9883 10.25V4.27832ZM59.5391 5.03027V8.0918C59.5391 8.19596 59.5488 8.29525 59.5684 8.38965L61.7949 3.89258C61.5508 3.71029 61.2725 3.61914 60.96 3.61914C60.5661 3.61914 60.2308 3.75749 59.9541 4.03418C59.6774 4.30762 59.5391 4.63965 59.5391 5.03027ZM63.1621 5.04492V8.07715C63.1621 8.67611 62.9473 9.1888 62.5176 9.61523C62.0879 10.0384 61.5687 10.25 60.96 10.25C60.348 10.25 59.8288 10.0384 59.4023 9.61523C58.9727 9.1888 58.7578 8.67611 58.7578 8.07715V5.04492C58.7578 4.44596 58.9727 3.9349 59.4023 3.51172C59.832 3.08529 60.3512 2.87207 60.96 2.87207C61.5687 2.87207 62.0879 3.08529 62.5176 3.51172C62.9473 3.9349 63.1621 4.44596 63.1621 5.04492ZM62.3174 4.60059L60.0518 9.17578C60.3089 9.39388 60.6117 9.50293 60.96 9.50293C61.3473 9.50293 61.681 9.36458 61.9609 9.08789C62.2376 8.81445 62.3776 8.48242 62.3809 8.0918V5.03027C62.3809 4.87728 62.3597 4.73405 62.3174 4.60059ZM66.2188 4.27832L65.0664 5.37695L64.6074 4.75684L66.2188 3.21387L67 2.87207V9.9082L66.2188 10.25V4.27832ZM70.7695 5.03027V8.0918C70.7695 8.19596 70.7793 8.29525 70.7988 8.38965L73.0254 3.89258C72.7812 3.71029 72.5029 3.61914 72.1904 3.61914C71.7965 3.61914 71.4613 3.75749 71.1846 4.03418C70.9079 4.30762 70.7695 4.63965 70.7695 5.03027ZM74.3926 5.04492V8.07715C74.3926 8.67611 74.1777 9.1888 73.748 9.61523C73.3184 10.0384 72.7992 10.25 72.1904 10.25C71.5785 10.25 71.0592 10.0384 70.6328 9.61523C70.2031 9.1888 69.9883 8.67611 69.9883 8.07715V5.04492C69.9883 4.44596 70.2031 3.9349 70.6328 3.51172C71.0625 3.08529 71.5817 2.87207 72.1904 2.87207C72.7992 2.87207 73.3184 3.08529 73.748 3.51172C74.1777 3.9349 74.3926 4.44596 74.3926 5.04492ZM73.5479 4.60059L71.2822 9.17578C71.5394 9.39388 71.8421 9.50293 72.1904 9.50293C72.5778 9.50293 72.9115 9.36458 73.1914 9.08789C73.4681 8.81445 73.6081 8.48242 73.6113 8.0918V5.03027C73.6113 4.87728 73.5902 4.73405 73.5479 4.60059ZM77.4492 4.27832L76.2969 5.37695L75.8379 4.75684L77.4492 3.21387L78.2305 2.87207V9.9082L77.4492 10.25V4.27832ZM82 5.03027V8.0918C82 8.19596 82.0098 8.29525 82.0293 8.38965L84.2559 3.89258C84.0117 3.71029 83.7334 3.61914 83.4209 3.61914C83.027 3.61914 82.6917 3.75749 82.415 4.03418C82.1383 4.30762 82 4.63965 82 5.03027ZM85.623 5.04492V8.07715C85.623 8.67611 85.4082 9.1888 84.9785 9.61523C84.5488 10.0384 84.0296 10.25 83.4209 10.25C82.8089 10.25 82.2897 10.0384 81.8633 9.61523C81.4336 9.1888 81.2188 8.67611 81.2188 8.07715V5.04492C81.2188 4.44596 81.4336 3.9349 81.8633 3.51172C82.293 3.08529 82.8122 2.87207 83.4209 2.87207C84.0296 2.87207 84.5488 3.08529 84.9785 3.51172C85.4082 3.9349 85.623 4.44596 85.623 5.04492ZM84.7783 4.60059L82.5127 9.17578C82.7699 9.39388 83.0726 9.50293 83.4209 9.50293C83.8083 9.50293 84.1419 9.36458 84.4219 9.08789C84.6986 8.81445 84.8385 8.48242 84.8418 8.0918V5.03027C84.8418 4.87728 84.8206 4.73405 84.7783 4.60059ZM88.6797 4.27832L87.5273 5.37695L87.0684 4.75684L88.6797 3.21387L89.4609 2.87207V9.9082L88.6797 10.25V4.27832ZM93.2305 5.03027V8.0918C93.2305 8.19596 93.2402 8.29525 93.2598 8.38965L95.4863 3.89258C95.2422 3.71029 94.9639 3.61914 94.6514 3.61914C94.2575 3.61914 93.9222 3.75749 93.6455 4.03418C93.3688 4.30762 93.2305 4.63965 93.2305 5.03027ZM96.8535 5.04492V8.07715C96.8535 8.67611 96.6387 9.1888 96.209 9.61523C95.7793 10.0384 95.2601 10.25 94.6514 10.25C94.0394 10.25 93.5202 10.0384 93.0938 9.61523C92.6641 9.1888 92.4492 8.67611 92.4492 8.07715V5.04492C92.4492 4.44596 92.6641 3.9349 93.0938 3.51172C93.5234 3.08529 94.0426 2.87207 94.6514 2.87207C95.2601 2.87207 95.7793 3.08529 96.209 3.51172C96.6387 3.9349 96.8535 4.44596 96.8535 5.04492ZM96.0088 4.60059L93.7432 9.17578C94.0003 9.39388 94.3031 9.50293 94.6514 9.50293C95.0387 9.50293 95.3724 9.36458 95.6523 9.08789C95.929 8.81445 96.069 8.48242 96.0723 8.0918V5.03027C96.0723 4.87728 96.0511 4.73405 96.0088 4.60059ZM99.9102 4.27832L98.7578 5.37695L98.2988 4.75684L99.9102 3.21387L100.691 2.87207V9.9082L99.9102 10.25V4.27832ZM104.461 5.03027V8.0918C104.461 8.19596 104.471 8.29525 104.49 8.38965L106.717 3.89258C106.473 3.71029 106.194 3.61914 105.882 3.61914C105.488 3.61914 105.153 3.75749 104.876 4.03418C104.599 4.30762 104.461 4.63965 104.461 5.03027ZM108.084 5.04492V8.07715C108.084 8.67611 107.869 9.1888 107.439 9.61523C107.01 10.0384 106.491 10.25 105.882 10.25C105.27 10.25 104.751 10.0384 104.324 9.61523C103.895 9.1888 103.68 8.67611 103.68 8.07715V5.04492C103.68 4.44596 103.895 3.9349 104.324 3.51172C104.754 3.08529 105.273 2.87207 105.882 2.87207C106.491 2.87207 107.01 3.08529 107.439 3.51172C107.869 3.9349 108.084 4.44596 108.084 5.04492ZM107.239 4.60059L104.974 9.17578C105.231 9.39388 105.534 9.50293 105.882 9.50293C106.269 9.50293 106.603 9.36458 106.883 9.08789C107.16 8.81445 107.299 8.48242 107.303 8.0918V5.03027C107.303 4.87728 107.282 4.73405 107.239 4.60059ZM110.076 5.03027V8.0918C110.076 8.19596 110.086 8.29525 110.105 8.38965L112.332 3.89258C112.088 3.71029 111.81 3.61914 111.497 3.61914C111.103 3.61914 110.768 3.75749 110.491 4.03418C110.215 4.30762 110.076 4.63965 110.076 5.03027ZM113.699 5.04492V8.07715C113.699 8.67611 113.484 9.1888 113.055 9.61523C112.625 10.0384 112.106 10.25 111.497 10.25C110.885 10.25 110.366 10.0384 109.939 9.61523C109.51 9.1888 109.295 8.67611 109.295 8.07715V5.04492C109.295 4.44596 109.51 3.9349 109.939 3.51172C110.369 3.08529 110.888 2.87207 111.497 2.87207C112.106 2.87207 112.625 3.08529 113.055 3.51172C113.484 3.9349 113.699 4.44596 113.699 5.04492ZM112.854 4.60059L110.589 9.17578C110.846 9.39388 111.149 9.50293 111.497 9.50293C111.884 9.50293 112.218 9.36458 112.498 9.08789C112.775 8.81445 112.915 8.48242 112.918 8.0918V5.03027C112.918 4.87728 112.897 4.73405 112.854 4.60059ZM116.756 4.27832L115.604 5.37695L115.145 4.75684L116.756 3.21387L117.537 2.87207V9.9082L116.756 10.25V4.27832ZM3.38672 19.0303V22.0918C3.38672 22.196 3.39648 22.2952 3.41602 22.3896L5.64258 17.8926C5.39844 17.7103 5.12012 17.6191 4.80762 17.6191C4.41374 17.6191 4.07845 17.7575 3.80176 18.0342C3.52507 18.3076 3.38672 18.6396 3.38672 19.0303ZM7.00977 19.0449V22.0771C7.00977 22.6761 6.79492 23.1888 6.36523 23.6152C5.93555 24.0384 5.41634 24.25 4.80762 24.25C4.19564 24.25 3.67643 24.0384 3.25 23.6152C2.82031 23.1888 2.60547 22.6761 2.60547 22.0771V19.0449C2.60547 18.446 2.82031 17.9349 3.25 17.5117C3.67969 17.0853 4.19889 16.8721 4.80762 16.8721C5.41634 16.8721 5.93555 17.0853 6.36523 17.5117C6.79492 17.9349 7.00977 18.446 7.00977 19.0449ZM6.16504 18.6006L3.89941 23.1758C4.15658 23.3939 4.45931 23.5029 4.80762 23.5029C5.19499 23.5029 5.52865 23.3646 5.80859 23.0879C6.08529 22.8145 6.22526 22.4824 6.22852 22.0918V19.0303C6.22852 18.8773 6.20736 18.734 6.16504 18.6006ZM10.0664 18.2783L8.91406 19.377L8.45508 18.7568L10.0664 17.2139L10.8477 16.8721V23.9082L10.0664 24.25V18.2783ZM14.6172 19.0303V22.0918C14.6172 22.196 14.627 22.2952 14.6465 22.3896L16.873 17.8926C16.6289 17.7103 16.3506 17.6191 16.0381 17.6191C15.6442 17.6191 15.3089 17.7575 15.0322 18.0342C14.7555 18.3076 14.6172 18.6396 14.6172 19.0303ZM18.2402 19.0449V22.0771C18.2402 22.6761 18.0254 23.1888 17.5957 23.6152C17.166 24.0384 16.6468 24.25 16.0381 24.25C15.4261 24.25 14.9069 24.0384 14.4805 23.6152C14.0508 23.1888 13.8359 22.6761 13.8359 22.0771V19.0449C13.8359 18.446 14.0508 17.9349 14.4805 17.5117C14.9102 17.0853 15.4294 16.8721 16.0381 16.8721C16.6468 16.8721 17.166 17.0853 17.5957 17.5117C18.0254 17.9349 18.2402 18.446 18.2402 19.0449ZM17.3955 18.6006L15.1299 23.1758C15.387 23.3939 15.6898 23.5029 16.0381 23.5029C16.4255 23.5029 16.7591 23.3646 17.0391 23.0879C17.3158 22.8145 17.4557 22.4824 17.459 22.0918V19.0303C17.459 18.8773 17.4378 18.734 17.3955 18.6006ZM21.2969 18.2783L20.1445 19.377L19.6855 18.7568L21.2969 17.2139L22.0781 16.8721V23.9082L21.2969 24.25V18.2783ZM25.8477 19.0303V22.0918C25.8477 22.196 25.8574 22.2952 25.877 22.3896L28.1035 17.8926C27.8594 17.7103 27.5811 17.6191 27.2686 17.6191C26.8747 17.6191 26.5394 17.7575 26.2627 18.0342C25.986 18.3076 25.8477 18.6396 25.8477 19.0303ZM29.4707 19.0449V22.0771C29.4707 22.6761 29.2559 23.1888 28.8262 23.6152C28.3965 24.0384 27.8773 24.25 27.2686 24.25C26.6566 24.25 26.1374 24.0384 25.7109 23.6152C25.2812 23.1888 25.0664 22.6761 25.0664 22.0771V19.0449C25.0664 18.446 25.2812 17.9349 25.7109 17.5117C26.1406 17.0853 26.6598 16.8721 27.2686 16.8721C27.8773 16.8721 28.3965 17.0853 28.8262 17.5117C29.2559 17.9349 29.4707 18.446 29.4707 19.0449ZM28.626 18.6006L26.3604 23.1758C26.6175 23.3939 26.9202 23.5029 27.2686 23.5029C27.6559 23.5029 27.9896 23.3646 28.2695 23.0879C28.5462 22.8145 28.6862 22.4824 28.6895 22.0918V19.0303C28.6895 18.8773 28.6683 18.734 28.626 18.6006ZM32.5273 18.2783L31.375 19.377L30.916 18.7568L32.5273 17.2139L33.3086 16.8721V23.9082L32.5273 24.25V18.2783ZM37.0781 19.0303V22.0918C37.0781 22.196 37.0879 22.2952 37.1074 22.3896L39.334 17.8926C39.0898 17.7103 38.8115 17.6191 38.499 17.6191C38.1051 17.6191 37.7699 17.7575 37.4932 18.0342C37.2165 18.3076 37.0781 18.6396 37.0781 19.0303ZM40.7012 19.0449V22.0771C40.7012 22.6761 40.4863 23.1888 40.0566 23.6152C39.627 24.0384 39.1077 24.25 38.499 24.25C37.887 24.25 37.3678 24.0384 36.9414 23.6152C36.5117 23.1888 36.2969 22.6761 36.2969 22.0771V19.0449C36.2969 18.446 36.5117 17.9349 36.9414 17.5117C37.3711 17.0853 37.8903 16.8721 38.499 16.8721C39.1077 16.8721 39.627 17.0853 40.0566 17.5117C40.4863 17.9349 40.7012 18.446 40.7012 19.0449ZM39.8564 18.6006L37.5908 23.1758C37.848 23.3939 38.1507 23.5029 38.499 23.5029C38.8864 23.5029 39.2201 23.3646 39.5 23.0879C39.7767 22.8145 39.9167 22.4824 39.9199 22.0918V19.0303C39.9199 18.8773 39.8988 18.734 39.8564 18.6006ZM42.6934 19.0303V22.0918C42.6934 22.196 42.7031 22.2952 42.7227 22.3896L44.9492 17.8926C44.7051 17.7103 44.4268 17.6191 44.1143 17.6191C43.7204 17.6191 43.3851 17.7575 43.1084 18.0342C42.8317 18.3076 42.6934 18.6396 42.6934 19.0303ZM46.3164 19.0449V22.0771C46.3164 22.6761 46.1016 23.1888 45.6719 23.6152C45.2422 24.0384 44.723 24.25 44.1143 24.25C43.5023 24.25 42.9831 24.0384 42.5566 23.6152C42.127 23.1888 41.9121 22.6761 41.9121 22.0771V19.0449C41.9121 18.446 42.127 17.9349 42.5566 17.5117C42.9863 17.0853 43.5055 16.8721 44.1143 16.8721C44.723 16.8721 45.2422 17.0853 45.6719 17.5117C46.1016 17.9349 46.3164 18.446 46.3164 19.0449ZM45.4717 18.6006L43.2061 23.1758C43.4632 23.3939 43.766 23.5029 44.1143 23.5029C44.5016 23.5029 44.8353 23.3646 45.1152 23.0879C45.3919 22.8145 45.5319 22.4824 45.5352 22.0918V19.0303C45.5352 18.8773 45.514 18.734 45.4717 18.6006ZM49.373 18.2783L48.2207 19.377L47.7617 18.7568L49.373 17.2139L50.1543 16.8721V23.9082L49.373 24.25V18.2783ZM53.9238 19.0303V22.0918C53.9238 22.196 53.9336 22.2952 53.9531 22.3896L56.1797 17.8926C55.9355 17.7103 55.6572 17.6191 55.3447 17.6191C54.9508 17.6191 54.6156 17.7575 54.3389 18.0342C54.0622 18.3076 53.9238 18.6396 53.9238 19.0303ZM57.5469 19.0449V22.0771C57.5469 22.6761 57.332 23.1888 56.9023 23.6152C56.4727 24.0384 55.9535 24.25 55.3447 24.25C54.7327 24.25 54.2135 24.0384 53.7871 23.6152C53.3574 23.1888 53.1426 22.6761 53.1426 22.0771V19.0449C53.1426 18.446 53.3574 17.9349 53.7871 17.5117C54.2168 17.0853 54.736 16.8721 55.3447 16.8721C55.9535 16.8721 56.4727 17.0853 56.9023 17.5117C57.332 17.9349 57.5469 18.446 57.5469 19.0449ZM56.7021 18.6006L54.4365 23.1758C54.6937 23.3939 54.9964 23.5029 55.3447 23.5029C55.7321 23.5029 56.0658 23.3646 56.3457 23.0879C56.6224 22.8145 56.7624 22.4824 56.7656 22.0918V19.0303C56.7656 18.8773 56.7445 18.734 56.7021 18.6006ZM59.5391 19.0303V22.0918C59.5391 22.196 59.5488 22.2952 59.5684 22.3896L61.7949 17.8926C61.5508 17.7103 61.2725 17.6191 60.96 17.6191C60.5661 17.6191 60.2308 17.7575 59.9541 18.0342C59.6774 18.3076 59.5391 18.6396 59.5391 19.0303ZM63.1621 19.0449V22.0771C63.1621 22.6761 62.9473 23.1888 62.5176 23.6152C62.0879 24.0384 61.5687 24.25 60.96 24.25C60.348 24.25 59.8288 24.0384 59.4023 23.6152C58.9727 23.1888 58.7578 22.6761 58.7578 22.0771V19.0449C58.7578 18.446 58.9727 17.9349 59.4023 17.5117C59.832 17.0853 60.3512 16.8721 60.96 16.8721C61.5687 16.8721 62.0879 17.0853 62.5176 17.5117C62.9473 17.9349 63.1621 18.446 63.1621 19.0449ZM62.3174 18.6006L60.0518 23.1758C60.3089 23.3939 60.6117 23.5029 60.96 23.5029C61.3473 23.5029 61.681 23.3646 61.9609 23.0879C62.2376 22.8145 62.3776 22.4824 62.3809 22.0918V19.0303C62.3809 18.8773 62.3597 18.734 62.3174 18.6006ZM66.2188 18.2783L65.0664 19.377L64.6074 18.7568L66.2188 17.2139L67 16.8721V23.9082L66.2188 24.25V18.2783ZM70.7695 19.0303V22.0918C70.7695 22.196 70.7793 22.2952 70.7988 22.3896L73.0254 17.8926C72.7812 17.7103 72.5029 17.6191 72.1904 17.6191C71.7965 17.6191 71.4613 17.7575 71.1846 18.0342C70.9079 18.3076 70.7695 18.6396 70.7695 19.0303ZM74.3926 19.0449V22.0771C74.3926 22.6761 74.1777 23.1888 73.748 23.6152C73.3184 24.0384 72.7992 24.25 72.1904 24.25C71.5785 24.25 71.0592 24.0384 70.6328 23.6152C70.2031 23.1888 69.9883 22.6761 69.9883 22.0771V19.0449C69.9883 18.446 70.2031 17.9349 70.6328 17.5117C71.0625 17.0853 71.5817 16.8721 72.1904 16.8721C72.7992 16.8721 73.3184 17.0853 73.748 17.5117C74.1777 17.9349 74.3926 18.446 74.3926 19.0449ZM73.5479 18.6006L71.2822 23.1758C71.5394 23.3939 71.8421 23.5029 72.1904 23.5029C72.5778 23.5029 72.9115 23.3646 73.1914 23.0879C73.4681 22.8145 73.6081 22.4824 73.6113 22.0918V19.0303C73.6113 18.8773 73.5902 18.734 73.5479 18.6006ZM77.4492 18.2783L76.2969 19.377L75.8379 18.7568L77.4492 17.2139L78.2305 16.8721V23.9082L77.4492 24.25V18.2783ZM82 19.0303V22.0918C82 22.196 82.0098 22.2952 82.0293 22.3896L84.2559 17.8926C84.0117 17.7103 83.7334 17.6191 83.4209 17.6191C83.027 17.6191 82.6917 17.7575 82.415 18.0342C82.1383 18.3076 82 18.6396 82 19.0303ZM85.623 19.0449V22.0771C85.623 22.6761 85.4082 23.1888 84.9785 23.6152C84.5488 24.0384 84.0296 24.25 83.4209 24.25C82.8089 24.25 82.2897 24.0384 81.8633 23.6152C81.4336 23.1888 81.2188 22.6761 81.2188 22.0771V19.0449C81.2188 18.446 81.4336 17.9349 81.8633 17.5117C82.293 17.0853 82.8122 16.8721 83.4209 16.8721C84.0296 16.8721 84.5488 17.0853 84.9785 17.5117C85.4082 17.9349 85.623 18.446 85.623 19.0449ZM84.7783 18.6006L82.5127 23.1758C82.7699 23.3939 83.0726 23.5029 83.4209 23.5029C83.8083 23.5029 84.1419 23.3646 84.4219 23.0879C84.6986 22.8145 84.8385 22.4824 84.8418 22.0918V19.0303C84.8418 18.8773 84.8206 18.734 84.7783 18.6006ZM88.6797 18.2783L87.5273 19.377L87.0684 18.7568L88.6797 17.2139L89.4609 16.8721V23.9082L88.6797 24.25V18.2783ZM93.2305 19.0303V22.0918C93.2305 22.196 93.2402 22.2952 93.2598 22.3896L95.4863 17.8926C95.2422 17.7103 94.9639 17.6191 94.6514 17.6191C94.2575 17.6191 93.9222 17.7575 93.6455 18.0342C93.3688 18.3076 93.2305 18.6396 93.2305 19.0303ZM96.8535 19.0449V22.0771C96.8535 22.6761 96.6387 23.1888 96.209 23.6152C95.7793 24.0384 95.2601 24.25 94.6514 24.25C94.0394 24.25 93.5202 24.0384 93.0938 23.6152C92.6641 23.1888 92.4492 22.6761 92.4492 22.0771V19.0449C92.4492 18.446 92.6641 17.9349 93.0938 17.5117C93.5234 17.0853 94.0426 16.8721 94.6514 16.8721C95.2601 16.8721 95.7793 17.0853 96.209 17.5117C96.6387 17.9349 96.8535 18.446 96.8535 19.0449ZM96.0088 18.6006L93.7432 23.1758C94.0003 23.3939 94.3031 23.5029 94.6514 23.5029C95.0387 23.5029 95.3724 23.3646 95.6523 23.0879C95.929 22.8145 96.069 22.4824 96.0723 22.0918V19.0303C96.0723 18.8773 96.0511 18.734 96.0088 18.6006ZM99.9102 18.2783L98.7578 19.377L98.2988 18.7568L99.9102 17.2139L100.691 16.8721V23.9082L99.9102 24.25V18.2783ZM104.461 19.0303V22.0918C104.461 22.196 104.471 22.2952 104.49 22.3896L106.717 17.8926C106.473 17.7103 106.194 17.6191 105.882 17.6191C105.488 17.6191 105.153 17.7575 104.876 18.0342C104.599 18.3076 104.461 18.6396 104.461 19.0303ZM108.084 19.0449V22.0771C108.084 22.6761 107.869 23.1888 107.439 23.6152C107.01 24.0384 106.491 24.25 105.882 24.25C105.27 24.25 104.751 24.0384 104.324 23.6152C103.895 23.1888 103.68 22.6761 103.68 22.0771V19.0449C103.68 18.446 103.895 17.9349 104.324 17.5117C104.754 17.0853 105.273 16.8721 105.882 16.8721C106.491 16.8721 107.01 17.0853 107.439 17.5117C107.869 17.9349 108.084 18.446 108.084 19.0449ZM107.239 18.6006L104.974 23.1758C105.231 23.3939 105.534 23.5029 105.882 23.5029C106.269 23.5029 106.603 23.3646 106.883 23.0879C107.16 22.8145 107.299 22.4824 107.303 22.0918V19.0303C107.303 18.8773 107.282 18.734 107.239 18.6006ZM111.141 18.2783L109.988 19.377L109.529 18.7568L111.141 17.2139L111.922 16.8721V23.9082L111.141 24.25V18.2783ZM115.691 19.0303V22.0918C115.691 22.196 115.701 22.2952 115.721 22.3896L117.947 17.8926C117.703 17.7103 117.425 17.6191 117.112 17.6191C116.718 17.6191 116.383 17.7575 116.106 18.0342C115.83 18.3076 115.691 18.6396 115.691 19.0303ZM119.314 19.0449V22.0771C119.314 22.6761 119.1 23.1888 118.67 23.6152C118.24 24.0384 117.721 24.25 117.112 24.25C116.5 24.25 115.981 24.0384 115.555 23.6152C115.125 23.1888 114.91 22.6761 114.91 22.0771V19.0449C114.91 18.446 115.125 17.9349 115.555 17.5117C115.984 17.0853 116.504 16.8721 117.112 16.8721C117.721 16.8721 118.24 17.0853 118.67 17.5117C119.1 17.9349 119.314 18.446 119.314 19.0449ZM118.47 18.6006L116.204 23.1758C116.461 23.3939 116.764 23.5029 117.112 23.5029C117.5 23.5029 117.833 23.3646 118.113 23.0879C118.39 22.8145 118.53 22.4824 118.533 22.0918V19.0303C118.533 18.8773 118.512 18.734 118.47 18.6006ZM4.45117 32.2783L3.29883 33.377L2.83984 32.7568L4.45117 31.2139L5.23242 30.8721V37.9082L4.45117 38.25V32.2783ZM9.00195 33.0303V36.0918C9.00195 36.196 9.01172 36.2952 9.03125 36.3896L11.2578 31.8926C11.0137 31.7103 10.7354 31.6191 10.4229 31.6191C10.029 31.6191 9.69368 31.7575 9.41699 32.0342C9.1403 32.3076 9.00195 32.6396 9.00195 33.0303ZM12.625 33.0449V36.0771C12.625 36.6761 12.4102 37.1888 11.9805 37.6152C11.5508 38.0384 11.0316 38.25 10.4229 38.25C9.81087 38.25 9.29167 38.0384 8.86523 37.6152C8.43555 37.1888 8.2207 36.6761 8.2207 36.0771V33.0449C8.2207 32.446 8.43555 31.9349 8.86523 31.5117C9.29492 31.0853 9.81413 30.8721 10.4229 30.8721C11.0316 30.8721 11.5508 31.0853 11.9805 31.5117C12.4102 31.9349 12.625 32.446 12.625 33.0449ZM11.7803 32.6006L9.51465 37.1758C9.77181 37.3939 10.0745 37.5029 10.4229 37.5029C10.8102 37.5029 11.1439 37.3646 11.4238 37.0879C11.7005 36.8145 11.8405 36.4824 11.8438 36.0918V33.0303C11.8438 32.8773 11.8226 32.734 11.7803 32.6006ZM15.6816 32.2783L14.5293 33.377L14.0703 32.7568L15.6816 31.2139L16.4629 30.8721V37.9082L15.6816 38.25V32.2783ZM21.2969 32.2783L20.1445 33.377L19.6855 32.7568L21.2969 31.2139L22.0781 30.8721V37.9082L21.2969 38.25V32.2783ZM25.8477 33.0303V36.0918C25.8477 36.196 25.8574 36.2952 25.877 36.3896L28.1035 31.8926C27.8594 31.7103 27.5811 31.6191 27.2686 31.6191C26.8747 31.6191 26.5394 31.7575 26.2627 32.0342C25.986 32.3076 25.8477 32.6396 25.8477 33.0303ZM29.4707 33.0449V36.0771C29.4707 36.6761 29.2559 37.1888 28.8262 37.6152C28.3965 38.0384 27.8773 38.25 27.2686 38.25C26.6566 38.25 26.1374 38.0384 25.7109 37.6152C25.2812 37.1888 25.0664 36.6761 25.0664 36.0771V33.0449C25.0664 32.446 25.2812 31.9349 25.7109 31.5117C26.1406 31.0853 26.6598 30.8721 27.2686 30.8721C27.8773 30.8721 28.3965 31.0853 28.8262 31.5117C29.2559 31.9349 29.4707 32.446 29.4707 33.0449ZM28.626 32.6006L26.3604 37.1758C26.6175 37.3939 26.9202 37.5029 27.2686 37.5029C27.6559 37.5029 27.9896 37.3646 28.2695 37.0879C28.5462 36.8145 28.6862 36.4824 28.6895 36.0918V33.0303C28.6895 32.8773 28.6683 32.734 28.626 32.6006ZM32.5273 32.2783L31.375 33.377L30.916 32.7568L32.5273 31.2139L33.3086 30.8721V37.9082L32.5273 38.25V32.2783ZM37.0781 33.0303V36.0918C37.0781 36.196 37.0879 36.2952 37.1074 36.3896L39.334 31.8926C39.0898 31.7103 38.8115 31.6191 38.499 31.6191C38.1051 31.6191 37.7699 31.7575 37.4932 32.0342C37.2165 32.3076 37.0781 32.6396 37.0781 33.0303ZM40.7012 33.0449V36.0771C40.7012 36.6761 40.4863 37.1888 40.0566 37.6152C39.627 38.0384 39.1077 38.25 38.499 38.25C37.887 38.25 37.3678 38.0384 36.9414 37.6152C36.5117 37.1888 36.2969 36.6761 36.2969 36.0771V33.0449C36.2969 32.446 36.5117 31.9349 36.9414 31.5117C37.3711 31.0853 37.8903 30.8721 38.499 30.8721C39.1077 30.8721 39.627 31.0853 40.0566 31.5117C40.4863 31.9349 40.7012 32.446 40.7012 33.0449ZM39.8564 32.6006L37.5908 37.1758C37.848 37.3939 38.1507 37.5029 38.499 37.5029C38.8864 37.5029 39.2201 37.3646 39.5 37.0879C39.7767 36.8145 39.9167 36.4824 39.9199 36.0918V33.0303C39.9199 32.8773 39.8988 32.734 39.8564 32.6006ZM43.7578 32.2783L42.6055 33.377L42.1465 32.7568L43.7578 31.2139L44.5391 30.8721V37.9082L43.7578 38.25V32.2783ZM48.3086 33.0303V36.0918C48.3086 36.196 48.3184 36.2952 48.3379 36.3896L50.5645 31.8926C50.3203 31.7103 50.042 31.6191 49.7295 31.6191C49.3356 31.6191 49.0003 31.7575 48.7236 32.0342C48.4469 32.3076 48.3086 32.6396 48.3086 33.0303ZM51.9316 33.0449V36.0771C51.9316 36.6761 51.7168 37.1888 51.2871 37.6152C50.8574 38.0384 50.3382 38.25 49.7295 38.25C49.1175 38.25 48.5983 38.0384 48.1719 37.6152C47.7422 37.1888 47.5273 36.6761 47.5273 36.0771V33.0449C47.5273 32.446 47.7422 31.9349 48.1719 31.5117C48.6016 31.0853 49.1208 30.8721 49.7295 30.8721C50.3382 30.8721 50.8574 31.0853 51.2871 31.5117C51.7168 31.9349 51.9316 32.446 51.9316 33.0449ZM51.0869 32.6006L48.8213 37.1758C49.0785 37.3939 49.3812 37.5029 49.7295 37.5029C50.1169 37.5029 50.4505 37.3646 50.7305 37.0879C51.0072 36.8145 51.1471 36.4824 51.1504 36.0918V33.0303C51.1504 32.8773 51.1292 32.734 51.0869 32.6006ZM54.9883 32.2783L53.8359 33.377L53.377 32.7568L54.9883 31.2139L55.7695 30.8721V37.9082L54.9883 38.25V32.2783ZM60.6035 32.2783L59.4512 33.377L58.9922 32.7568L60.6035 31.2139L61.3848 30.8721V37.9082L60.6035 38.25V32.2783ZM65.1543 33.0303V36.0918C65.1543 36.196 65.1641 36.2952 65.1836 36.3896L67.4102 31.8926C67.166 31.7103 66.8877 31.6191 66.5752 31.6191C66.1813 31.6191 65.846 31.7575 65.5693 32.0342C65.2926 32.3076 65.1543 32.6396 65.1543 33.0303ZM68.7773 33.0449V36.0771C68.7773 36.6761 68.5625 37.1888 68.1328 37.6152C67.7031 38.0384 67.1839 38.25 66.5752 38.25C65.9632 38.25 65.444 38.0384 65.0176 37.6152C64.5879 37.1888 64.373 36.6761 64.373 36.0771V33.0449C64.373 32.446 64.5879 31.9349 65.0176 31.5117C65.4473 31.0853 65.9665 30.8721 66.5752 30.8721C67.1839 30.8721 67.7031 31.0853 68.1328 31.5117C68.5625 31.9349 68.7773 32.446 68.7773 33.0449ZM67.9326 32.6006L65.667 37.1758C65.9242 37.3939 66.2269 37.5029 66.5752 37.5029C66.9626 37.5029 67.2962 37.3646 67.5762 37.0879C67.8529 36.8145 67.9928 36.4824 67.9961 36.0918V33.0303C67.9961 32.8773 67.9749 32.734 67.9326 32.6006ZM71.834 32.2783L70.6816 33.377L70.2227 32.7568L71.834 31.2139L72.6152 30.8721V37.9082L71.834 38.25V32.2783ZM77.4492 32.2783L76.2969 33.377L75.8379 32.7568L77.4492 31.2139L78.2305 30.8721V37.9082L77.4492 38.25V32.2783ZM82 33.0303V36.0918C82 36.196 82.0098 36.2952 82.0293 36.3896L84.2559 31.8926C84.0117 31.7103 83.7334 31.6191 83.4209 31.6191C83.027 31.6191 82.6917 31.7575 82.415 32.0342C82.1383 32.3076 82 32.6396 82 33.0303ZM85.623 33.0449V36.0771C85.623 36.6761 85.4082 37.1888 84.9785 37.6152C84.5488 38.0384 84.0296 38.25 83.4209 38.25C82.8089 38.25 82.2897 38.0384 81.8633 37.6152C81.4336 37.1888 81.2188 36.6761 81.2188 36.0771V33.0449C81.2188 32.446 81.4336 31.9349 81.8633 31.5117C82.293 31.0853 82.8122 30.8721 83.4209 30.8721C84.0296 30.8721 84.5488 31.0853 84.9785 31.5117C85.4082 31.9349 85.623 32.446 85.623 33.0449ZM84.7783 32.6006L82.5127 37.1758C82.7699 37.3939 83.0726 37.5029 83.4209 37.5029C83.8083 37.5029 84.1419 37.3646 84.4219 37.0879C84.6986 36.8145 84.8385 36.4824 84.8418 36.0918V33.0303C84.8418 32.8773 84.8206 32.734 84.7783 32.6006ZM88.6797 32.2783L87.5273 33.377L87.0684 32.7568L88.6797 31.2139L89.4609 30.8721V37.9082L88.6797 38.25V32.2783ZM93.2305 33.0303V36.0918C93.2305 36.196 93.2402 36.2952 93.2598 36.3896L95.4863 31.8926C95.2422 31.7103 94.9639 31.6191 94.6514 31.6191C94.2575 31.6191 93.9222 31.7575 93.6455 32.0342C93.3688 32.3076 93.2305 32.6396 93.2305 33.0303ZM96.8535 33.0449V36.0771C96.8535 36.6761 96.6387 37.1888 96.209 37.6152C95.7793 38.0384 95.2601 38.25 94.6514 38.25C94.0394 38.25 93.5202 38.0384 93.0938 37.6152C92.6641 37.1888 92.4492 36.6761 92.4492 36.0771V33.0449C92.4492 32.446 92.6641 31.9349 93.0938 31.5117C93.5234 31.0853 94.0426 30.8721 94.6514 30.8721C95.2601 30.8721 95.7793 31.0853 96.209 31.5117C96.6387 31.9349 96.8535 32.446 96.8535 33.0449ZM96.0088 32.6006L93.7432 37.1758C94.0003 37.3939 94.3031 37.5029 94.6514 37.5029C95.0387 37.5029 95.3724 37.3646 95.6523 37.0879C95.929 36.8145 96.069 36.4824 96.0723 36.0918V33.0303C96.0723 32.8773 96.0511 32.734 96.0088 32.6006ZM99.9102 32.2783L98.7578 33.377L98.2988 32.7568L99.9102 31.2139L100.691 30.8721V37.9082L99.9102 38.25V32.2783ZM104.461 33.0303V36.0918C104.461 36.196 104.471 36.2952 104.49 36.3896L106.717 31.8926C106.473 31.7103 106.194 31.6191 105.882 31.6191C105.488 31.6191 105.153 31.7575 104.876 32.0342C104.599 32.3076 104.461 32.6396 104.461 33.0303ZM108.084 33.0449V36.0771C108.084 36.6761 107.869 37.1888 107.439 37.6152C107.01 38.0384 106.491 38.25 105.882 38.25C105.27 38.25 104.751 38.0384 104.324 37.6152C103.895 37.1888 103.68 36.6761 103.68 36.0771V33.0449C103.68 32.446 103.895 31.9349 104.324 31.5117C104.754 31.0853 105.273 30.8721 105.882 30.8721C106.491 30.8721 107.01 31.0853 107.439 31.5117C107.869 31.9349 108.084 32.446 108.084 33.0449ZM107.239 32.6006L104.974 37.1758C105.231 37.3939 105.534 37.5029 105.882 37.5029C106.269 37.5029 106.603 37.3646 106.883 37.0879C107.16 36.8145 107.299 36.4824 107.303 36.0918V33.0303C107.303 32.8773 107.282 32.734 107.239 32.6006ZM111.141 32.2783L109.988 33.377L109.529 32.7568L111.141 31.2139L111.922 30.8721V37.9082L111.141 38.25V32.2783ZM115.691 33.0303V36.0918C115.691 36.196 115.701 36.2952 115.721 36.3896L117.947 31.8926C117.703 31.7103 117.425 31.6191 117.112 31.6191C116.718 31.6191 116.383 31.7575 116.106 32.0342C115.83 32.3076 115.691 32.6396 115.691 33.0303ZM119.314 33.0449V36.0771C119.314 36.6761 119.1 37.1888 118.67 37.6152C118.24 38.0384 117.721 38.25 117.112 38.25C116.5 38.25 115.981 38.0384 115.555 37.6152C115.125 37.1888 114.91 36.6761 114.91 36.0771V33.0449C114.91 32.446 115.125 31.9349 115.555 31.5117C115.984 31.0853 116.504 30.8721 117.112 30.8721C117.721 30.8721 118.24 31.0853 118.67 31.5117C119.1 31.9349 119.314 32.446 119.314 33.0449ZM118.47 32.6006L116.204 37.1758C116.461 37.3939 116.764 37.5029 117.112 37.5029C117.5 37.5029 117.833 37.3646 118.113 37.0879C118.39 36.8145 118.53 36.4824 118.533 36.0918V33.0303C118.533 32.8773 118.512 32.734 118.47 32.6006ZM4.45117 46.2783L3.29883 47.377L2.83984 46.7568L4.45117 45.2139L5.23242 44.8721V51.9082L4.45117 52.25V46.2783ZM9.00195 47.0303V50.0918C9.00195 50.196 9.01172 50.2952 9.03125 50.3896L11.2578 45.8926C11.0137 45.7103 10.7354 45.6191 10.4229 45.6191C10.029 45.6191 9.69368 45.7575 9.41699 46.0342C9.1403 46.3076 9.00195 46.6396 9.00195 47.0303ZM12.625 47.0449V50.0771C12.625 50.6761 12.4102 51.1888 11.9805 51.6152C11.5508 52.0384 11.0316 52.25 10.4229 52.25C9.81087 52.25 9.29167 52.0384 8.86523 51.6152C8.43555 51.1888 8.2207 50.6761 8.2207 50.0771V47.0449C8.2207 46.446 8.43555 45.9349 8.86523 45.5117C9.29492 45.0853 9.81413 44.8721 10.4229 44.8721C11.0316 44.8721 11.5508 45.0853 11.9805 45.5117C12.4102 45.9349 12.625 46.446 12.625 47.0449ZM11.7803 46.6006L9.51465 51.1758C9.77181 51.3939 10.0745 51.5029 10.4229 51.5029C10.8102 51.5029 11.1439 51.3646 11.4238 51.0879C11.7005 50.8145 11.8405 50.4824 11.8438 50.0918V47.0303C11.8438 46.8773 11.8226 46.734 11.7803 46.6006ZM15.6816 46.2783L14.5293 47.377L14.0703 46.7568L15.6816 45.2139L16.4629 44.8721V51.9082L15.6816 52.25V46.2783ZM20.2324 47.0303V50.0918C20.2324 50.196 20.2422 50.2952 20.2617 50.3896L22.4883 45.8926C22.2441 45.7103 21.9658 45.6191 21.6533 45.6191C21.2594 45.6191 20.9242 45.7575 20.6475 46.0342C20.3708 46.3076 20.2324 46.6396 20.2324 47.0303ZM23.8555 47.0449V50.0771C23.8555 50.6761 23.6406 51.1888 23.2109 51.6152C22.7812 52.0384 22.262 52.25 21.6533 52.25C21.0413 52.25 20.5221 52.0384 20.0957 51.6152C19.666 51.1888 19.4512 50.6761 19.4512 50.0771V47.0449C19.4512 46.446 19.666 45.9349 20.0957 45.5117C20.5254 45.0853 21.0446 44.8721 21.6533 44.8721C22.262 44.8721 22.7812 45.0853 23.2109 45.5117C23.6406 45.9349 23.8555 46.446 23.8555 47.0449ZM23.0107 46.6006L20.7451 51.1758C21.0023 51.3939 21.305 51.5029 21.6533 51.5029C22.0407 51.5029 22.3743 51.3646 22.6543 51.0879C22.931 50.8145 23.071 50.4824 23.0742 50.0918V47.0303C23.0742 46.8773 23.0531 46.734 23.0107 46.6006ZM26.9121 46.2783L25.7598 47.377L25.3008 46.7568L26.9121 45.2139L27.6934 44.8721V51.9082L26.9121 52.25V46.2783ZM31.4629 47.0303V50.0918C31.4629 50.196 31.4727 50.2952 31.4922 50.3896L33.7188 45.8926C33.4746 45.7103 33.1963 45.6191 32.8838 45.6191C32.4899 45.6191 32.1546 45.7575 31.8779 46.0342C31.6012 46.3076 31.4629 46.6396 31.4629 47.0303ZM35.0859 47.0449V50.0771C35.0859 50.6761 34.8711 51.1888 34.4414 51.6152C34.0117 52.0384 33.4925 52.25 32.8838 52.25C32.2718 52.25 31.7526 52.0384 31.3262 51.6152C30.8965 51.1888 30.6816 50.6761 30.6816 50.0771V47.0449C30.6816 46.446 30.8965 45.9349 31.3262 45.5117C31.7559 45.0853 32.2751 44.8721 32.8838 44.8721C33.4925 44.8721 34.0117 45.0853 34.4414 45.5117C34.8711 45.9349 35.0859 46.446 35.0859 47.0449ZM34.2412 46.6006L31.9756 51.1758C32.2327 51.3939 32.5355 51.5029 32.8838 51.5029C33.2712 51.5029 33.6048 51.3646 33.8848 51.0879C34.1615 50.8145 34.3014 50.4824 34.3047 50.0918V47.0303C34.3047 46.8773 34.2835 46.734 34.2412 46.6006ZM37.0781 47.0303V50.0918C37.0781 50.196 37.0879 50.2952 37.1074 50.3896L39.334 45.8926C39.0898 45.7103 38.8115 45.6191 38.499 45.6191C38.1051 45.6191 37.7699 45.7575 37.4932 46.0342C37.2165 46.3076 37.0781 46.6396 37.0781 47.0303ZM40.7012 47.0449V50.0771C40.7012 50.6761 40.4863 51.1888 40.0566 51.6152C39.627 52.0384 39.1077 52.25 38.499 52.25C37.887 52.25 37.3678 52.0384 36.9414 51.6152C36.5117 51.1888 36.2969 50.6761 36.2969 50.0771V47.0449C36.2969 46.446 36.5117 45.9349 36.9414 45.5117C37.3711 45.0853 37.8903 44.8721 38.499 44.8721C39.1077 44.8721 39.627 45.0853 40.0566 45.5117C40.4863 45.9349 40.7012 46.446 40.7012 47.0449ZM39.8564 46.6006L37.5908 51.1758C37.848 51.3939 38.1507 51.5029 38.499 51.5029C38.8864 51.5029 39.2201 51.3646 39.5 51.0879C39.7767 50.8145 39.9167 50.4824 39.9199 50.0918V47.0303C39.9199 46.8773 39.8988 46.734 39.8564 46.6006ZM43.7578 46.2783L42.6055 47.377L42.1465 46.7568L43.7578 45.2139L44.5391 44.8721V51.9082L43.7578 52.25V46.2783ZM48.3086 47.0303V50.0918C48.3086 50.196 48.3184 50.2952 48.3379 50.3896L50.5645 45.8926C50.3203 45.7103 50.042 45.6191 49.7295 45.6191C49.3356 45.6191 49.0003 45.7575 48.7236 46.0342C48.4469 46.3076 48.3086 46.6396 48.3086 47.0303ZM51.9316 47.0449V50.0771C51.9316 50.6761 51.7168 51.1888 51.2871 51.6152C50.8574 52.0384 50.3382 52.25 49.7295 52.25C49.1175 52.25 48.5983 52.0384 48.1719 51.6152C47.7422 51.1888 47.5273 50.6761 47.5273 50.0771V47.0449C47.5273 46.446 47.7422 45.9349 48.1719 45.5117C48.6016 45.0853 49.1208 44.8721 49.7295 44.8721C50.3382 44.8721 50.8574 45.0853 51.2871 45.5117C51.7168 45.9349 51.9316 46.446 51.9316 47.0449ZM51.0869 46.6006L48.8213 51.1758C49.0785 51.3939 49.3812 51.5029 49.7295 51.5029C50.1169 51.5029 50.4505 51.3646 50.7305 51.0879C51.0072 50.8145 51.1471 50.4824 51.1504 50.0918V47.0303C51.1504 46.8773 51.1292 46.734 51.0869 46.6006ZM54.9883 46.2783L53.8359 47.377L53.377 46.7568L54.9883 45.2139L55.7695 44.8721V51.9082L54.9883 52.25V46.2783ZM59.5391 47.0303V50.0918C59.5391 50.196 59.5488 50.2952 59.5684 50.3896L61.7949 45.8926C61.5508 45.7103 61.2725 45.6191 60.96 45.6191C60.5661 45.6191 60.2308 45.7575 59.9541 46.0342C59.6774 46.3076 59.5391 46.6396 59.5391 47.0303ZM63.1621 47.0449V50.0771C63.1621 50.6761 62.9473 51.1888 62.5176 51.6152C62.0879 52.0384 61.5687 52.25 60.96 52.25C60.348 52.25 59.8288 52.0384 59.4023 51.6152C58.9727 51.1888 58.7578 50.6761 58.7578 50.0771V47.0449C58.7578 46.446 58.9727 45.9349 59.4023 45.5117C59.832 45.0853 60.3512 44.8721 60.96 44.8721C61.5687 44.8721 62.0879 45.0853 62.5176 45.5117C62.9473 45.9349 63.1621 46.446 63.1621 47.0449ZM62.3174 46.6006L60.0518 51.1758C60.3089 51.3939 60.6117 51.5029 60.96 51.5029C61.3473 51.5029 61.681 51.3646 61.9609 51.0879C62.2376 50.8145 62.3776 50.4824 62.3809 50.0918V47.0303C62.3809 46.8773 62.3597 46.734 62.3174 46.6006ZM66.2188 46.2783L65.0664 47.377L64.6074 46.7568L66.2188 45.2139L67 44.8721V51.9082L66.2188 52.25V46.2783ZM70.7695 47.0303V50.0918C70.7695 50.196 70.7793 50.2952 70.7988 50.3896L73.0254 45.8926C72.7812 45.7103 72.5029 45.6191 72.1904 45.6191C71.7965 45.6191 71.4613 45.7575 71.1846 46.0342C70.9079 46.3076 70.7695 46.6396 70.7695 47.0303ZM74.3926 47.0449V50.0771C74.3926 50.6761 74.1777 51.1888 73.748 51.6152C73.3184 52.0384 72.7992 52.25 72.1904 52.25C71.5785 52.25 71.0592 52.0384 70.6328 51.6152C70.2031 51.1888 69.9883 50.6761 69.9883 50.0771V47.0449C69.9883 46.446 70.2031 45.9349 70.6328 45.5117C71.0625 45.0853 71.5817 44.8721 72.1904 44.8721C72.7992 44.8721 73.3184 45.0853 73.748 45.5117C74.1777 45.9349 74.3926 46.446 74.3926 47.0449ZM73.5479 46.6006L71.2822 51.1758C71.5394 51.3939 71.8421 51.5029 72.1904 51.5029C72.5778 51.5029 72.9115 51.3646 73.1914 51.0879C73.4681 50.8145 73.6081 50.4824 73.6113 50.0918V47.0303C73.6113 46.8773 73.5902 46.734 73.5479 46.6006ZM77.4492 46.2783L76.2969 47.377L75.8379 46.7568L77.4492 45.2139L78.2305 44.8721V51.9082L77.4492 52.25V46.2783ZM82 47.0303V50.0918C82 50.196 82.0098 50.2952 82.0293 50.3896L84.2559 45.8926C84.0117 45.7103 83.7334 45.6191 83.4209 45.6191C83.027 45.6191 82.6917 45.7575 82.415 46.0342C82.1383 46.3076 82 46.6396 82 47.0303ZM85.623 47.0449V50.0771C85.623 50.6761 85.4082 51.1888 84.9785 51.6152C84.5488 52.0384 84.0296 52.25 83.4209 52.25C82.8089 52.25 82.2897 52.0384 81.8633 51.6152C81.4336 51.1888 81.2188 50.6761 81.2188 50.0771V47.0449C81.2188 46.446 81.4336 45.9349 81.8633 45.5117C82.293 45.0853 82.8122 44.8721 83.4209 44.8721C84.0296 44.8721 84.5488 45.0853 84.9785 45.5117C85.4082 45.9349 85.623 46.446 85.623 47.0449ZM84.7783 46.6006L82.5127 51.1758C82.7699 51.3939 83.0726 51.5029 83.4209 51.5029C83.8083 51.5029 84.1419 51.3646 84.4219 51.0879C84.6986 50.8145 84.8385 50.4824 84.8418 50.0918V47.0303C84.8418 46.8773 84.8206 46.734 84.7783 46.6006ZM87.6152 47.0303V50.0918C87.6152 50.196 87.625 50.2952 87.6445 50.3896L89.8711 45.8926C89.627 45.7103 89.3486 45.6191 89.0361 45.6191C88.6423 45.6191 88.307 45.7575 88.0303 46.0342C87.7536 46.3076 87.6152 46.6396 87.6152 47.0303ZM91.2383 47.0449V50.0771C91.2383 50.6761 91.0234 51.1888 90.5938 51.6152C90.1641 52.0384 89.6449 52.25 89.0361 52.25C88.4242 52.25 87.9049 52.0384 87.4785 51.6152C87.0488 51.1888 86.834 50.6761 86.834 50.0771V47.0449C86.834 46.446 87.0488 45.9349 87.4785 45.5117C87.9082 45.0853 88.4274 44.8721 89.0361 44.8721C89.6449 44.8721 90.1641 45.0853 90.5938 45.5117C91.0234 45.9349 91.2383 46.446 91.2383 47.0449ZM90.3936 46.6006L88.1279 51.1758C88.3851 51.3939 88.6878 51.5029 89.0361 51.5029C89.4235 51.5029 89.7572 51.3646 90.0371 51.0879C90.3138 50.8145 90.4538 50.4824 90.457 50.0918V47.0303C90.457 46.8773 90.4359 46.734 90.3936 46.6006ZM94.2949 46.2783L93.1426 47.377L92.6836 46.7568L94.2949 45.2139L95.0762 44.8721V51.9082L94.2949 52.25V46.2783ZM98.8457 47.0303V50.0918C98.8457 50.196 98.8555 50.2952 98.875 50.3896L101.102 45.8926C100.857 45.7103 100.579 45.6191 100.267 45.6191C99.8727 45.6191 99.5374 45.7575 99.2607 46.0342C98.984 46.3076 98.8457 46.6396 98.8457 47.0303ZM102.469 47.0449V50.0771C102.469 50.6761 102.254 51.1888 101.824 51.6152C101.395 52.0384 100.875 52.25 100.267 52.25C99.6546 52.25 99.1354 52.0384 98.709 51.6152C98.2793 51.1888 98.0645 50.6761 98.0645 50.0771V47.0449C98.0645 46.446 98.2793 45.9349 98.709 45.5117C99.1387 45.0853 99.6579 44.8721 100.267 44.8721C100.875 44.8721 101.395 45.0853 101.824 45.5117C102.254 45.9349 102.469 46.446 102.469 47.0449ZM101.624 46.6006L99.3584 51.1758C99.6156 51.3939 99.9183 51.5029 100.267 51.5029C100.654 51.5029 100.988 51.3646 101.268 51.0879C101.544 50.8145 101.684 50.4824 101.688 50.0918V47.0303C101.688 46.8773 101.666 46.734 101.624 46.6006ZM104.461 47.0303V50.0918C104.461 50.196 104.471 50.2952 104.49 50.3896L106.717 45.8926C106.473 45.7103 106.194 45.6191 105.882 45.6191C105.488 45.6191 105.153 45.7575 104.876 46.0342C104.599 46.3076 104.461 46.6396 104.461 47.0303ZM108.084 47.0449V50.0771C108.084 50.6761 107.869 51.1888 107.439 51.6152C107.01 52.0384 106.491 52.25 105.882 52.25C105.27 52.25 104.751 52.0384 104.324 51.6152C103.895 51.1888 103.68 50.6761 103.68 50.0771V47.0449C103.68 46.446 103.895 45.9349 104.324 45.5117C104.754 45.0853 105.273 44.8721 105.882 44.8721C106.491 44.8721 107.01 45.0853 107.439 45.5117C107.869 45.9349 108.084 46.446 108.084 47.0449ZM107.239 46.6006L104.974 51.1758C105.231 51.3939 105.534 51.5029 105.882 51.5029C106.269 51.5029 106.603 51.3646 106.883 51.0879C107.16 50.8145 107.299 50.4824 107.303 50.0918V47.0303C107.303 46.8773 107.282 46.734 107.239 46.6006ZM111.141 46.2783L109.988 47.377L109.529 46.7568L111.141 45.2139L111.922 44.8721V51.9082L111.141 52.25V46.2783ZM115.691 47.0303V50.0918C115.691 50.196 115.701 50.2952 115.721 50.3896L117.947 45.8926C117.703 45.7103 117.425 45.6191 117.112 45.6191C116.718 45.6191 116.383 45.7575 116.106 46.0342C115.83 46.3076 115.691 46.6396 115.691 47.0303ZM119.314 47.0449V50.0771C119.314 50.6761 119.1 51.1888 118.67 51.6152C118.24 52.0384 117.721 52.25 117.112 52.25C116.5 52.25 115.981 52.0384 115.555 51.6152C115.125 51.1888 114.91 50.6761 114.91 50.0771V47.0449C114.91 46.446 115.125 45.9349 115.555 45.5117C115.984 45.0853 116.504 44.8721 117.112 44.8721C117.721 44.8721 118.24 45.0853 118.67 45.5117C119.1 45.9349 119.314 46.446 119.314 47.0449ZM118.47 46.6006L116.204 51.1758C116.461 51.3939 116.764 51.5029 117.112 51.5029C117.5 51.5029 117.833 51.3646 118.113 51.0879C118.39 50.8145 118.53 50.4824 118.533 50.0918V47.0303C118.533 46.8773 118.512 46.734 118.47 46.6006ZM4.45117 60.2783L3.29883 61.377L2.83984 60.7568L4.45117 59.2139L5.23242 58.8721V65.9082L4.45117 66.25V60.2783ZM9.00195 61.0303V64.0918C9.00195 64.196 9.01172 64.2952 9.03125 64.3896L11.2578 59.8926C11.0137 59.7103 10.7354 59.6191 10.4229 59.6191C10.029 59.6191 9.69368 59.7575 9.41699 60.0342C9.1403 60.3076 9.00195 60.6396 9.00195 61.0303ZM12.625 61.0449V64.0771C12.625 64.6761 12.4102 65.1888 11.9805 65.6152C11.5508 66.0384 11.0316 66.25 10.4229 66.25C9.81087 66.25 9.29167 66.0384 8.86523 65.6152C8.43555 65.1888 8.2207 64.6761 8.2207 64.0771V61.0449C8.2207 60.446 8.43555 59.9349 8.86523 59.5117C9.29492 59.0853 9.81413 58.8721 10.4229 58.8721C11.0316 58.8721 11.5508 59.0853 11.9805 59.5117C12.4102 59.9349 12.625 60.446 12.625 61.0449ZM11.7803 60.6006L9.51465 65.1758C9.77181 65.3939 10.0745 65.5029 10.4229 65.5029C10.8102 65.5029 11.1439 65.3646 11.4238 65.0879C11.7005 64.8145 11.8405 64.4824 11.8438 64.0918V61.0303C11.8438 60.8773 11.8226 60.734 11.7803 60.6006ZM15.6816 60.2783L14.5293 61.377L14.0703 60.7568L15.6816 59.2139L16.4629 58.8721V65.9082L15.6816 66.25V60.2783ZM20.2324 61.0303V64.0918C20.2324 64.196 20.2422 64.2952 20.2617 64.3896L22.4883 59.8926C22.2441 59.7103 21.9658 59.6191 21.6533 59.6191C21.2594 59.6191 20.9242 59.7575 20.6475 60.0342C20.3708 60.3076 20.2324 60.6396 20.2324 61.0303ZM23.8555 61.0449V64.0771C23.8555 64.6761 23.6406 65.1888 23.2109 65.6152C22.7812 66.0384 22.262 66.25 21.6533 66.25C21.0413 66.25 20.5221 66.0384 20.0957 65.6152C19.666 65.1888 19.4512 64.6761 19.4512 64.0771V61.0449C19.4512 60.446 19.666 59.9349 20.0957 59.5117C20.5254 59.0853 21.0446 58.8721 21.6533 58.8721C22.262 58.8721 22.7812 59.0853 23.2109 59.5117C23.6406 59.9349 23.8555 60.446 23.8555 61.0449ZM23.0107 60.6006L20.7451 65.1758C21.0023 65.3939 21.305 65.5029 21.6533 65.5029C22.0407 65.5029 22.3743 65.3646 22.6543 65.0879C22.931 64.8145 23.071 64.4824 23.0742 64.0918V61.0303C23.0742 60.8773 23.0531 60.734 23.0107 60.6006ZM26.9121 60.2783L25.7598 61.377L25.3008 60.7568L26.9121 59.2139L27.6934 58.8721V65.9082L26.9121 66.25V60.2783ZM31.4629 61.0303V64.0918C31.4629 64.196 31.4727 64.2952 31.4922 64.3896L33.7188 59.8926C33.4746 59.7103 33.1963 59.6191 32.8838 59.6191C32.4899 59.6191 32.1546 59.7575 31.8779 60.0342C31.6012 60.3076 31.4629 60.6396 31.4629 61.0303ZM35.0859 61.0449V64.0771C35.0859 64.6761 34.8711 65.1888 34.4414 65.6152C34.0117 66.0384 33.4925 66.25 32.8838 66.25C32.2718 66.25 31.7526 66.0384 31.3262 65.6152C30.8965 65.1888 30.6816 64.6761 30.6816 64.0771V61.0449C30.6816 60.446 30.8965 59.9349 31.3262 59.5117C31.7559 59.0853 32.2751 58.8721 32.8838 58.8721C33.4925 58.8721 34.0117 59.0853 34.4414 59.5117C34.8711 59.9349 35.0859 60.446 35.0859 61.0449ZM34.2412 60.6006L31.9756 65.1758C32.2327 65.3939 32.5355 65.5029 32.8838 65.5029C33.2712 65.5029 33.6048 65.3646 33.8848 65.0879C34.1615 64.8145 34.3014 64.4824 34.3047 64.0918V61.0303C34.3047 60.8773 34.2835 60.734 34.2412 60.6006ZM38.1426 60.2783L36.9902 61.377L36.5312 60.7568L38.1426 59.2139L38.9238 58.8721V65.9082L38.1426 66.25V60.2783ZM42.6934 61.0303V64.0918C42.6934 64.196 42.7031 64.2952 42.7227 64.3896L44.9492 59.8926C44.7051 59.7103 44.4268 59.6191 44.1143 59.6191C43.7204 59.6191 43.3851 59.7575 43.1084 60.0342C42.8317 60.3076 42.6934 60.6396 42.6934 61.0303ZM46.3164 61.0449V64.0771C46.3164 64.6761 46.1016 65.1888 45.6719 65.6152C45.2422 66.0384 44.723 66.25 44.1143 66.25C43.5023 66.25 42.9831 66.0384 42.5566 65.6152C42.127 65.1888 41.9121 64.6761 41.9121 64.0771V61.0449C41.9121 60.446 42.127 59.9349 42.5566 59.5117C42.9863 59.0853 43.5055 58.8721 44.1143 58.8721C44.723 58.8721 45.2422 59.0853 45.6719 59.5117C46.1016 59.9349 46.3164 60.446 46.3164 61.0449ZM45.4717 60.6006L43.2061 65.1758C43.4632 65.3939 43.766 65.5029 44.1143 65.5029C44.5016 65.5029 44.8353 65.3646 45.1152 65.0879C45.3919 64.8145 45.5319 64.4824 45.5352 64.0918V61.0303C45.5352 60.8773 45.514 60.734 45.4717 60.6006ZM49.373 60.2783L48.2207 61.377L47.7617 60.7568L49.373 59.2139L50.1543 58.8721V65.9082L49.373 66.25V60.2783ZM53.9238 61.0303V64.0918C53.9238 64.196 53.9336 64.2952 53.9531 64.3896L56.1797 59.8926C55.9355 59.7103 55.6572 59.6191 55.3447 59.6191C54.9508 59.6191 54.6156 59.7575 54.3389 60.0342C54.0622 60.3076 53.9238 60.6396 53.9238 61.0303ZM57.5469 61.0449V64.0771C57.5469 64.6761 57.332 65.1888 56.9023 65.6152C56.4727 66.0384 55.9535 66.25 55.3447 66.25C54.7327 66.25 54.2135 66.0384 53.7871 65.6152C53.3574 65.1888 53.1426 64.6761 53.1426 64.0771V61.0449C53.1426 60.446 53.3574 59.9349 53.7871 59.5117C54.2168 59.0853 54.736 58.8721 55.3447 58.8721C55.9535 58.8721 56.4727 59.0853 56.9023 59.5117C57.332 59.9349 57.5469 60.446 57.5469 61.0449ZM56.7021 60.6006L54.4365 65.1758C54.6937 65.3939 54.9964 65.5029 55.3447 65.5029C55.7321 65.5029 56.0658 65.3646 56.3457 65.0879C56.6224 64.8145 56.7624 64.4824 56.7656 64.0918V61.0303C56.7656 60.8773 56.7445 60.734 56.7021 60.6006ZM60.6035 60.2783L59.4512 61.377L58.9922 60.7568L60.6035 59.2139L61.3848 58.8721V65.9082L60.6035 66.25V60.2783ZM66.2188 60.2783L65.0664 61.377L64.6074 60.7568L66.2188 59.2139L67 58.8721V65.9082L66.2188 66.25V60.2783ZM70.7695 61.0303V64.0918C70.7695 64.196 70.7793 64.2952 70.7988 64.3896L73.0254 59.8926C72.7812 59.7103 72.5029 59.6191 72.1904 59.6191C71.7965 59.6191 71.4613 59.7575 71.1846 60.0342C70.9079 60.3076 70.7695 60.6396 70.7695 61.0303ZM74.3926 61.0449V64.0771C74.3926 64.6761 74.1777 65.1888 73.748 65.6152C73.3184 66.0384 72.7992 66.25 72.1904 66.25C71.5785 66.25 71.0592 66.0384 70.6328 65.6152C70.2031 65.1888 69.9883 64.6761 69.9883 64.0771V61.0449C69.9883 60.446 70.2031 59.9349 70.6328 59.5117C71.0625 59.0853 71.5817 58.8721 72.1904 58.8721C72.7992 58.8721 73.3184 59.0853 73.748 59.5117C74.1777 59.9349 74.3926 60.446 74.3926 61.0449ZM73.5479 60.6006L71.2822 65.1758C71.5394 65.3939 71.8421 65.5029 72.1904 65.5029C72.5778 65.5029 72.9115 65.3646 73.1914 65.0879C73.4681 64.8145 73.6081 64.4824 73.6113 64.0918V61.0303C73.6113 60.8773 73.5902 60.734 73.5479 60.6006ZM77.4492 60.2783L76.2969 61.377L75.8379 60.7568L77.4492 59.2139L78.2305 58.8721V65.9082L77.4492 66.25V60.2783ZM82 61.0303V64.0918C82 64.196 82.0098 64.2952 82.0293 64.3896L84.2559 59.8926C84.0117 59.7103 83.7334 59.6191 83.4209 59.6191C83.027 59.6191 82.6917 59.7575 82.415 60.0342C82.1383 60.3076 82 60.6396 82 61.0303ZM85.623 61.0449V64.0771C85.623 64.6761 85.4082 65.1888 84.9785 65.6152C84.5488 66.0384 84.0296 66.25 83.4209 66.25C82.8089 66.25 82.2897 66.0384 81.8633 65.6152C81.4336 65.1888 81.2188 64.6761 81.2188 64.0771V61.0449C81.2188 60.446 81.4336 59.9349 81.8633 59.5117C82.293 59.0853 82.8122 58.8721 83.4209 58.8721C84.0296 58.8721 84.5488 59.0853 84.9785 59.5117C85.4082 59.9349 85.623 60.446 85.623 61.0449ZM84.7783 60.6006L82.5127 65.1758C82.7699 65.3939 83.0726 65.5029 83.4209 65.5029C83.8083 65.5029 84.1419 65.3646 84.4219 65.0879C84.6986 64.8145 84.8385 64.4824 84.8418 64.0918V61.0303C84.8418 60.8773 84.8206 60.734 84.7783 60.6006ZM88.6797 60.2783L87.5273 61.377L87.0684 60.7568L88.6797 59.2139L89.4609 58.8721V65.9082L88.6797 66.25V60.2783ZM93.2305 61.0303V64.0918C93.2305 64.196 93.2402 64.2952 93.2598 64.3896L95.4863 59.8926C95.2422 59.7103 94.9639 59.6191 94.6514 59.6191C94.2575 59.6191 93.9222 59.7575 93.6455 60.0342C93.3688 60.3076 93.2305 60.6396 93.2305 61.0303ZM96.8535 61.0449V64.0771C96.8535 64.6761 96.6387 65.1888 96.209 65.6152C95.7793 66.0384 95.2601 66.25 94.6514 66.25C94.0394 66.25 93.5202 66.0384 93.0938 65.6152C92.6641 65.1888 92.4492 64.6761 92.4492 64.0771V61.0449C92.4492 60.446 92.6641 59.9349 93.0938 59.5117C93.5234 59.0853 94.0426 58.8721 94.6514 58.8721C95.2601 58.8721 95.7793 59.0853 96.209 59.5117C96.6387 59.9349 96.8535 60.446 96.8535 61.0449ZM96.0088 60.6006L93.7432 65.1758C94.0003 65.3939 94.3031 65.5029 94.6514 65.5029C95.0387 65.5029 95.3724 65.3646 95.6523 65.0879C95.929 64.8145 96.069 64.4824 96.0723 64.0918V61.0303C96.0723 60.8773 96.0511 60.734 96.0088 60.6006ZM99.9102 60.2783L98.7578 61.377L98.2988 60.7568L99.9102 59.2139L100.691 58.8721V65.9082L99.9102 66.25V60.2783ZM105.525 60.2783L104.373 61.377L103.914 60.7568L105.525 59.2139L106.307 58.8721V65.9082L105.525 66.25V60.2783ZM110.076 61.0303V64.0918C110.076 64.196 110.086 64.2952 110.105 64.3896L112.332 59.8926C112.088 59.7103 111.81 59.6191 111.497 59.6191C111.103 59.6191 110.768 59.7575 110.491 60.0342C110.215 60.3076 110.076 60.6396 110.076 61.0303ZM113.699 61.0449V64.0771C113.699 64.6761 113.484 65.1888 113.055 65.6152C112.625 66.0384 112.106 66.25 111.497 66.25C110.885 66.25 110.366 66.0384 109.939 65.6152C109.51 65.1888 109.295 64.6761 109.295 64.0771V61.0449C109.295 60.446 109.51 59.9349 109.939 59.5117C110.369 59.0853 110.888 58.8721 111.497 58.8721C112.106 58.8721 112.625 59.0853 113.055 59.5117C113.484 59.9349 113.699 60.446 113.699 61.0449ZM112.854 60.6006L110.589 65.1758C110.846 65.3939 111.149 65.5029 111.497 65.5029C111.884 65.5029 112.218 65.3646 112.498 65.0879C112.775 64.8145 112.915 64.4824 112.918 64.0918V61.0303C112.918 60.8773 112.897 60.734 112.854 60.6006ZM116.756 60.2783L115.604 61.377L115.145 60.7568L116.756 59.2139L117.537 58.8721V65.9082L116.756 66.25V60.2783ZM4.45117 74.2783L3.29883 75.377L2.83984 74.7568L4.45117 73.2139L5.23242 72.8721V79.9082L4.45117 80.25V74.2783ZM9.00195 75.0303V78.0918C9.00195 78.196 9.01172 78.2952 9.03125 78.3896L11.2578 73.8926C11.0137 73.7103 10.7354 73.6191 10.4229 73.6191C10.029 73.6191 9.69368 73.7575 9.41699 74.0342C9.1403 74.3076 9.00195 74.6396 9.00195 75.0303ZM12.625 75.0449V78.0771C12.625 78.6761 12.4102 79.1888 11.9805 79.6152C11.5508 80.0384 11.0316 80.25 10.4229 80.25C9.81087 80.25 9.29167 80.0384 8.86523 79.6152C8.43555 79.1888 8.2207 78.6761 8.2207 78.0771V75.0449C8.2207 74.446 8.43555 73.9349 8.86523 73.5117C9.29492 73.0853 9.81413 72.8721 10.4229 72.8721C11.0316 72.8721 11.5508 73.0853 11.9805 73.5117C12.4102 73.9349 12.625 74.446 12.625 75.0449ZM11.7803 74.6006L9.51465 79.1758C9.77181 79.3939 10.0745 79.5029 10.4229 79.5029C10.8102 79.5029 11.1439 79.3646 11.4238 79.0879C11.7005 78.8145 11.8405 78.4824 11.8438 78.0918V75.0303C11.8438 74.8773 11.8226 74.734 11.7803 74.6006ZM15.6816 74.2783L14.5293 75.377L14.0703 74.7568L15.6816 73.2139L16.4629 72.8721V79.9082L15.6816 80.25V74.2783ZM20.2324 75.0303V78.0918C20.2324 78.196 20.2422 78.2952 20.2617 78.3896L22.4883 73.8926C22.2441 73.7103 21.9658 73.6191 21.6533 73.6191C21.2594 73.6191 20.9242 73.7575 20.6475 74.0342C20.3708 74.3076 20.2324 74.6396 20.2324 75.0303ZM23.8555 75.0449V78.0771C23.8555 78.6761 23.6406 79.1888 23.2109 79.6152C22.7812 80.0384 22.262 80.25 21.6533 80.25C21.0413 80.25 20.5221 80.0384 20.0957 79.6152C19.666 79.1888 19.4512 78.6761 19.4512 78.0771V75.0449C19.4512 74.446 19.666 73.9349 20.0957 73.5117C20.5254 73.0853 21.0446 72.8721 21.6533 72.8721C22.262 72.8721 22.7812 73.0853 23.2109 73.5117C23.6406 73.9349 23.8555 74.446 23.8555 75.0449ZM23.0107 74.6006L20.7451 79.1758C21.0023 79.3939 21.305 79.5029 21.6533 79.5029C22.0407 79.5029 22.3743 79.3646 22.6543 79.0879C22.931 78.8145 23.071 78.4824 23.0742 78.0918V75.0303C23.0742 74.8773 23.0531 74.734 23.0107 74.6006ZM26.9121 74.2783L25.7598 75.377L25.3008 74.7568L26.9121 73.2139L27.6934 72.8721V79.9082L26.9121 80.25V74.2783ZM31.4629 75.0303V78.0918C31.4629 78.196 31.4727 78.2952 31.4922 78.3896L33.7188 73.8926C33.4746 73.7103 33.1963 73.6191 32.8838 73.6191C32.4899 73.6191 32.1546 73.7575 31.8779 74.0342C31.6012 74.3076 31.4629 74.6396 31.4629 75.0303ZM35.0859 75.0449V78.0771C35.0859 78.6761 34.8711 79.1888 34.4414 79.6152C34.0117 80.0384 33.4925 80.25 32.8838 80.25C32.2718 80.25 31.7526 80.0384 31.3262 79.6152C30.8965 79.1888 30.6816 78.6761 30.6816 78.0771V75.0449C30.6816 74.446 30.8965 73.9349 31.3262 73.5117C31.7559 73.0853 32.2751 72.8721 32.8838 72.8721C33.4925 72.8721 34.0117 73.0853 34.4414 73.5117C34.8711 73.9349 35.0859 74.446 35.0859 75.0449ZM34.2412 74.6006L31.9756 79.1758C32.2327 79.3939 32.5355 79.5029 32.8838 79.5029C33.2712 79.5029 33.6048 79.3646 33.8848 79.0879C34.1615 78.8145 34.3014 78.4824 34.3047 78.0918V75.0303C34.3047 74.8773 34.2835 74.734 34.2412 74.6006ZM38.1426 74.2783L36.9902 75.377L36.5312 74.7568L38.1426 73.2139L38.9238 72.8721V79.9082L38.1426 80.25V74.2783ZM42.6934 75.0303V78.0918C42.6934 78.196 42.7031 78.2952 42.7227 78.3896L44.9492 73.8926C44.7051 73.7103 44.4268 73.6191 44.1143 73.6191C43.7204 73.6191 43.3851 73.7575 43.1084 74.0342C42.8317 74.3076 42.6934 74.6396 42.6934 75.0303ZM46.3164 75.0449V78.0771C46.3164 78.6761 46.1016 79.1888 45.6719 79.6152C45.2422 80.0384 44.723 80.25 44.1143 80.25C43.5023 80.25 42.9831 80.0384 42.5566 79.6152C42.127 79.1888 41.9121 78.6761 41.9121 78.0771V75.0449C41.9121 74.446 42.127 73.9349 42.5566 73.5117C42.9863 73.0853 43.5055 72.8721 44.1143 72.8721C44.723 72.8721 45.2422 73.0853 45.6719 73.5117C46.1016 73.9349 46.3164 74.446 46.3164 75.0449ZM45.4717 74.6006L43.2061 79.1758C43.4632 79.3939 43.766 79.5029 44.1143 79.5029C44.5016 79.5029 44.8353 79.3646 45.1152 79.0879C45.3919 78.8145 45.5319 78.4824 45.5352 78.0918V75.0303C45.5352 74.8773 45.514 74.734 45.4717 74.6006ZM49.373 74.2783L48.2207 75.377L47.7617 74.7568L49.373 73.2139L50.1543 72.8721V79.9082L49.373 80.25V74.2783ZM53.9238 75.0303V78.0918C53.9238 78.196 53.9336 78.2952 53.9531 78.3896L56.1797 73.8926C55.9355 73.7103 55.6572 73.6191 55.3447 73.6191C54.9508 73.6191 54.6156 73.7575 54.3389 74.0342C54.0622 74.3076 53.9238 74.6396 53.9238 75.0303ZM57.5469 75.0449V78.0771C57.5469 78.6761 57.332 79.1888 56.9023 79.6152C56.4727 80.0384 55.9535 80.25 55.3447 80.25C54.7327 80.25 54.2135 80.0384 53.7871 79.6152C53.3574 79.1888 53.1426 78.6761 53.1426 78.0771V75.0449C53.1426 74.446 53.3574 73.9349 53.7871 73.5117C54.2168 73.0853 54.736 72.8721 55.3447 72.8721C55.9535 72.8721 56.4727 73.0853 56.9023 73.5117C57.332 73.9349 57.5469 74.446 57.5469 75.0449ZM56.7021 74.6006L54.4365 79.1758C54.6937 79.3939 54.9964 79.5029 55.3447 79.5029C55.7321 79.5029 56.0658 79.3646 56.3457 79.0879C56.6224 78.8145 56.7624 78.4824 56.7656 78.0918V75.0303C56.7656 74.8773 56.7445 74.734 56.7021 74.6006ZM60.6035 74.2783L59.4512 75.377L58.9922 74.7568L60.6035 73.2139L61.3848 72.8721V79.9082L60.6035 80.25V74.2783ZM65.1543 75.0303V78.0918C65.1543 78.196 65.1641 78.2952 65.1836 78.3896L67.4102 73.8926C67.166 73.7103 66.8877 73.6191 66.5752 73.6191C66.1813 73.6191 65.846 73.7575 65.5693 74.0342C65.2926 74.3076 65.1543 74.6396 65.1543 75.0303ZM68.7773 75.0449V78.0771C68.7773 78.6761 68.5625 79.1888 68.1328 79.6152C67.7031 80.0384 67.1839 80.25 66.5752 80.25C65.9632 80.25 65.444 80.0384 65.0176 79.6152C64.5879 79.1888 64.373 78.6761 64.373 78.0771V75.0449C64.373 74.446 64.5879 73.9349 65.0176 73.5117C65.4473 73.0853 65.9665 72.8721 66.5752 72.8721C67.1839 72.8721 67.7031 73.0853 68.1328 73.5117C68.5625 73.9349 68.7773 74.446 68.7773 75.0449ZM67.9326 74.6006L65.667 79.1758C65.9242 79.3939 66.2269 79.5029 66.5752 79.5029C66.9626 79.5029 67.2962 79.3646 67.5762 79.0879C67.8529 78.8145 67.9928 78.4824 67.9961 78.0918V75.0303C67.9961 74.8773 67.9749 74.734 67.9326 74.6006ZM71.834 74.2783L70.6816 75.377L70.2227 74.7568L71.834 73.2139L72.6152 72.8721V79.9082L71.834 80.25V74.2783ZM76.3848 75.0303V78.0918C76.3848 78.196 76.3945 78.2952 76.4141 78.3896L78.6406 73.8926C78.3965 73.7103 78.1182 73.6191 77.8057 73.6191C77.4118 73.6191 77.0765 73.7575 76.7998 74.0342C76.5231 74.3076 76.3848 74.6396 76.3848 75.0303ZM80.0078 75.0449V78.0771C80.0078 78.6761 79.793 79.1888 79.3633 79.6152C78.9336 80.0384 78.4144 80.25 77.8057 80.25C77.1937 80.25 76.6745 80.0384 76.248 79.6152C75.8184 79.1888 75.6035 78.6761 75.6035 78.0771V75.0449C75.6035 74.446 75.8184 73.9349 76.248 73.5117C76.6777 73.0853 77.1969 72.8721 77.8057 72.8721C78.4144 72.8721 78.9336 73.0853 79.3633 73.5117C79.793 73.9349 80.0078 74.446 80.0078 75.0449ZM79.1631 74.6006L76.8975 79.1758C77.1546 79.3939 77.4574 79.5029 77.8057 79.5029C78.193 79.5029 78.5267 79.3646 78.8066 79.0879C79.0833 78.8145 79.2233 78.4824 79.2266 78.0918V75.0303C79.2266 74.8773 79.2054 74.734 79.1631 74.6006ZM82 75.0303V78.0918C82 78.196 82.0098 78.2952 82.0293 78.3896L84.2559 73.8926C84.0117 73.7103 83.7334 73.6191 83.4209 73.6191C83.027 73.6191 82.6917 73.7575 82.415 74.0342C82.1383 74.3076 82 74.6396 82 75.0303ZM85.623 75.0449V78.0771C85.623 78.6761 85.4082 79.1888 84.9785 79.6152C84.5488 80.0384 84.0296 80.25 83.4209 80.25C82.8089 80.25 82.2897 80.0384 81.8633 79.6152C81.4336 79.1888 81.2188 78.6761 81.2188 78.0771V75.0449C81.2188 74.446 81.4336 73.9349 81.8633 73.5117C82.293 73.0853 82.8122 72.8721 83.4209 72.8721C84.0296 72.8721 84.5488 73.0853 84.9785 73.5117C85.4082 73.9349 85.623 74.446 85.623 75.0449ZM84.7783 74.6006L82.5127 79.1758C82.7699 79.3939 83.0726 79.5029 83.4209 79.5029C83.8083 79.5029 84.1419 79.3646 84.4219 79.0879C84.6986 78.8145 84.8385 78.4824 84.8418 78.0918V75.0303C84.8418 74.8773 84.8206 74.734 84.7783 74.6006ZM88.6797 74.2783L87.5273 75.377L87.0684 74.7568L88.6797 73.2139L89.4609 72.8721V79.9082L88.6797 80.25V74.2783ZM93.2305 75.0303V78.0918C93.2305 78.196 93.2402 78.2952 93.2598 78.3896L95.4863 73.8926C95.2422 73.7103 94.9639 73.6191 94.6514 73.6191C94.2575 73.6191 93.9222 73.7575 93.6455 74.0342C93.3688 74.3076 93.2305 74.6396 93.2305 75.0303ZM96.8535 75.0449V78.0771C96.8535 78.6761 96.6387 79.1888 96.209 79.6152C95.7793 80.0384 95.2601 80.25 94.6514 80.25C94.0394 80.25 93.5202 80.0384 93.0938 79.6152C92.6641 79.1888 92.4492 78.6761 92.4492 78.0771V75.0449C92.4492 74.446 92.6641 73.9349 93.0938 73.5117C93.5234 73.0853 94.0426 72.8721 94.6514 72.8721C95.2601 72.8721 95.7793 73.0853 96.209 73.5117C96.6387 73.9349 96.8535 74.446 96.8535 75.0449ZM96.0088 74.6006L93.7432 79.1758C94.0003 79.3939 94.3031 79.5029 94.6514 79.5029C95.0387 79.5029 95.3724 79.3646 95.6523 79.0879C95.929 78.8145 96.069 78.4824 96.0723 78.0918V75.0303C96.0723 74.8773 96.0511 74.734 96.0088 74.6006ZM99.9102 74.2783L98.7578 75.377L98.2988 74.7568L99.9102 73.2139L100.691 72.8721V79.9082L99.9102 80.25V74.2783ZM104.461 75.0303V78.0918C104.461 78.196 104.471 78.2952 104.49 78.3896L106.717 73.8926C106.473 73.7103 106.194 73.6191 105.882 73.6191C105.488 73.6191 105.153 73.7575 104.876 74.0342C104.599 74.3076 104.461 74.6396 104.461 75.0303ZM108.084 75.0449V78.0771C108.084 78.6761 107.869 79.1888 107.439 79.6152C107.01 80.0384 106.491 80.25 105.882 80.25C105.27 80.25 104.751 80.0384 104.324 79.6152C103.895 79.1888 103.68 78.6761 103.68 78.0771V75.0449C103.68 74.446 103.895 73.9349 104.324 73.5117C104.754 73.0853 105.273 72.8721 105.882 72.8721C106.491 72.8721 107.01 73.0853 107.439 73.5117C107.869 73.9349 108.084 74.446 108.084 75.0449ZM107.239 74.6006L104.974 79.1758C105.231 79.3939 105.534 79.5029 105.882 79.5029C106.269 79.5029 106.603 79.3646 106.883 79.0879C107.16 78.8145 107.299 78.4824 107.303 78.0918V75.0303C107.303 74.8773 107.282 74.734 107.239 74.6006ZM111.141 74.2783L109.988 75.377L109.529 74.7568L111.141 73.2139L111.922 72.8721V79.9082L111.141 80.25V74.2783ZM115.691 75.0303V78.0918C115.691 78.196 115.701 78.2952 115.721 78.3896L117.947 73.8926C117.703 73.7103 117.425 73.6191 117.112 73.6191C116.718 73.6191 116.383 73.7575 116.106 74.0342C115.83 74.3076 115.691 74.6396 115.691 75.0303ZM119.314 75.0449V78.0771C119.314 78.6761 119.1 79.1888 118.67 79.6152C118.24 80.0384 117.721 80.25 117.112 80.25C116.5 80.25 115.981 80.0384 115.555 79.6152C115.125 79.1888 114.91 78.6761 114.91 78.0771V75.0449C114.91 74.446 115.125 73.9349 115.555 73.5117C115.984 73.0853 116.504 72.8721 117.112 72.8721C117.721 72.8721 118.24 73.0853 118.67 73.5117C119.1 73.9349 119.314 74.446 119.314 75.0449ZM118.47 74.6006L116.204 79.1758C116.461 79.3939 116.764 79.5029 117.112 79.5029C117.5 79.5029 117.833 79.3646 118.113 79.0879C118.39 78.8145 118.53 78.4824 118.533 78.0918V75.0303C118.533 74.8773 118.512 74.734 118.47 74.6006ZM4.45117 88.2783L3.29883 89.377L2.83984 88.7568L4.45117 87.2139L5.23242 86.8721V93.9082L4.45117 94.25V88.2783ZM9.00195 89.0303V92.0918C9.00195 92.196 9.01172 92.2952 9.03125 92.3896L11.2578 87.8926C11.0137 87.7103 10.7354 87.6191 10.4229 87.6191C10.029 87.6191 9.69368 87.7575 9.41699 88.0342C9.1403 88.3076 9.00195 88.6396 9.00195 89.0303ZM12.625 89.0449V92.0771C12.625 92.6761 12.4102 93.1888 11.9805 93.6152C11.5508 94.0384 11.0316 94.25 10.4229 94.25C9.81087 94.25 9.29167 94.0384 8.86523 93.6152C8.43555 93.1888 8.2207 92.6761 8.2207 92.0771V89.0449C8.2207 88.446 8.43555 87.9349 8.86523 87.5117C9.29492 87.0853 9.81413 86.8721 10.4229 86.8721C11.0316 86.8721 11.5508 87.0853 11.9805 87.5117C12.4102 87.9349 12.625 88.446 12.625 89.0449ZM11.7803 88.6006L9.51465 93.1758C9.77181 93.3939 10.0745 93.5029 10.4229 93.5029C10.8102 93.5029 11.1439 93.3646 11.4238 93.0879C11.7005 92.8145 11.8405 92.4824 11.8438 92.0918V89.0303C11.8438 88.8773 11.8226 88.734 11.7803 88.6006ZM14.6172 89.0303V92.0918C14.6172 92.196 14.627 92.2952 14.6465 92.3896L16.873 87.8926C16.6289 87.7103 16.3506 87.6191 16.0381 87.6191C15.6442 87.6191 15.3089 87.7575 15.0322 88.0342C14.7555 88.3076 14.6172 88.6396 14.6172 89.0303ZM18.2402 89.0449V92.0771C18.2402 92.6761 18.0254 93.1888 17.5957 93.6152C17.166 94.0384 16.6468 94.25 16.0381 94.25C15.4261 94.25 14.9069 94.0384 14.4805 93.6152C14.0508 93.1888 13.8359 92.6761 13.8359 92.0771V89.0449C13.8359 88.446 14.0508 87.9349 14.4805 87.5117C14.9102 87.0853 15.4294 86.8721 16.0381 86.8721C16.6468 86.8721 17.166 87.0853 17.5957 87.5117C18.0254 87.9349 18.2402 88.446 18.2402 89.0449ZM17.3955 88.6006L15.1299 93.1758C15.387 93.3939 15.6898 93.5029 16.0381 93.5029C16.4255 93.5029 16.7591 93.3646 17.0391 93.0879C17.3158 92.8145 17.4557 92.4824 17.459 92.0918V89.0303C17.459 88.8773 17.4378 88.734 17.3955 88.6006ZM21.2969 88.2783L20.1445 89.377L19.6855 88.7568L21.2969 87.2139L22.0781 86.8721V93.9082L21.2969 94.25V88.2783ZM25.8477 89.0303V92.0918C25.8477 92.196 25.8574 92.2952 25.877 92.3896L28.1035 87.8926C27.8594 87.7103 27.5811 87.6191 27.2686 87.6191C26.8747 87.6191 26.5394 87.7575 26.2627 88.0342C25.986 88.3076 25.8477 88.6396 25.8477 89.0303ZM29.4707 89.0449V92.0771C29.4707 92.6761 29.2559 93.1888 28.8262 93.6152C28.3965 94.0384 27.8773 94.25 27.2686 94.25C26.6566 94.25 26.1374 94.0384 25.7109 93.6152C25.2812 93.1888 25.0664 92.6761 25.0664 92.0771V89.0449C25.0664 88.446 25.2812 87.9349 25.7109 87.5117C26.1406 87.0853 26.6598 86.8721 27.2686 86.8721C27.8773 86.8721 28.3965 87.0853 28.8262 87.5117C29.2559 87.9349 29.4707 88.446 29.4707 89.0449ZM28.626 88.6006L26.3604 93.1758C26.6175 93.3939 26.9202 93.5029 27.2686 93.5029C27.6559 93.5029 27.9896 93.3646 28.2695 93.0879C28.5462 92.8145 28.6862 92.4824 28.6895 92.0918V89.0303C28.6895 88.8773 28.6683 88.734 28.626 88.6006ZM31.4629 89.0303V92.0918C31.4629 92.196 31.4727 92.2952 31.4922 92.3896L33.7188 87.8926C33.4746 87.7103 33.1963 87.6191 32.8838 87.6191C32.4899 87.6191 32.1546 87.7575 31.8779 88.0342C31.6012 88.3076 31.4629 88.6396 31.4629 89.0303ZM35.0859 89.0449V92.0771C35.0859 92.6761 34.8711 93.1888 34.4414 93.6152C34.0117 94.0384 33.4925 94.25 32.8838 94.25C32.2718 94.25 31.7526 94.0384 31.3262 93.6152C30.8965 93.1888 30.6816 92.6761 30.6816 92.0771V89.0449C30.6816 88.446 30.8965 87.9349 31.3262 87.5117C31.7559 87.0853 32.2751 86.8721 32.8838 86.8721C33.4925 86.8721 34.0117 87.0853 34.4414 87.5117C34.8711 87.9349 35.0859 88.446 35.0859 89.0449ZM34.2412 88.6006L31.9756 93.1758C32.2327 93.3939 32.5355 93.5029 32.8838 93.5029C33.2712 93.5029 33.6048 93.3646 33.8848 93.0879C34.1615 92.8145 34.3014 92.4824 34.3047 92.0918V89.0303C34.3047 88.8773 34.2835 88.734 34.2412 88.6006ZM38.1426 88.2783L36.9902 89.377L36.5312 88.7568L38.1426 87.2139L38.9238 86.8721V93.9082L38.1426 94.25V88.2783ZM42.6934 89.0303V92.0918C42.6934 92.196 42.7031 92.2952 42.7227 92.3896L44.9492 87.8926C44.7051 87.7103 44.4268 87.6191 44.1143 87.6191C43.7204 87.6191 43.3851 87.7575 43.1084 88.0342C42.8317 88.3076 42.6934 88.6396 42.6934 89.0303ZM46.3164 89.0449V92.0771C46.3164 92.6761 46.1016 93.1888 45.6719 93.6152C45.2422 94.0384 44.723 94.25 44.1143 94.25C43.5023 94.25 42.9831 94.0384 42.5566 93.6152C42.127 93.1888 41.9121 92.6761 41.9121 92.0771V89.0449C41.9121 88.446 42.127 87.9349 42.5566 87.5117C42.9863 87.0853 43.5055 86.8721 44.1143 86.8721C44.723 86.8721 45.2422 87.0853 45.6719 87.5117C46.1016 87.9349 46.3164 88.446 46.3164 89.0449ZM45.4717 88.6006L43.2061 93.1758C43.4632 93.3939 43.766 93.5029 44.1143 93.5029C44.5016 93.5029 44.8353 93.3646 45.1152 93.0879C45.3919 92.8145 45.5319 92.4824 45.5352 92.0918V89.0303C45.5352 88.8773 45.514 88.734 45.4717 88.6006ZM49.373 88.2783L48.2207 89.377L47.7617 88.7568L49.373 87.2139L50.1543 86.8721V93.9082L49.373 94.25V88.2783ZM53.9238 89.0303V92.0918C53.9238 92.196 53.9336 92.2952 53.9531 92.3896L56.1797 87.8926C55.9355 87.7103 55.6572 87.6191 55.3447 87.6191C54.9508 87.6191 54.6156 87.7575 54.3389 88.0342C54.0622 88.3076 53.9238 88.6396 53.9238 89.0303ZM57.5469 89.0449V92.0771C57.5469 92.6761 57.332 93.1888 56.9023 93.6152C56.4727 94.0384 55.9535 94.25 55.3447 94.25C54.7327 94.25 54.2135 94.0384 53.7871 93.6152C53.3574 93.1888 53.1426 92.6761 53.1426 92.0771V89.0449C53.1426 88.446 53.3574 87.9349 53.7871 87.5117C54.2168 87.0853 54.736 86.8721 55.3447 86.8721C55.9535 86.8721 56.4727 87.0853 56.9023 87.5117C57.332 87.9349 57.5469 88.446 57.5469 89.0449ZM56.7021 88.6006L54.4365 93.1758C54.6937 93.3939 54.9964 93.5029 55.3447 93.5029C55.7321 93.5029 56.0658 93.3646 56.3457 93.0879C56.6224 92.8145 56.7624 92.4824 56.7656 92.0918V89.0303C56.7656 88.8773 56.7445 88.734 56.7021 88.6006ZM60.6035 88.2783L59.4512 89.377L58.9922 88.7568L60.6035 87.2139L61.3848 86.8721V93.9082L60.6035 94.25V88.2783ZM65.1543 89.0303V92.0918C65.1543 92.196 65.1641 92.2952 65.1836 92.3896L67.4102 87.8926C67.166 87.7103 66.8877 87.6191 66.5752 87.6191C66.1813 87.6191 65.846 87.7575 65.5693 88.0342C65.2926 88.3076 65.1543 88.6396 65.1543 89.0303ZM68.7773 89.0449V92.0771C68.7773 92.6761 68.5625 93.1888 68.1328 93.6152C67.7031 94.0384 67.1839 94.25 66.5752 94.25C65.9632 94.25 65.444 94.0384 65.0176 93.6152C64.5879 93.1888 64.373 92.6761 64.373 92.0771V89.0449C64.373 88.446 64.5879 87.9349 65.0176 87.5117C65.4473 87.0853 65.9665 86.8721 66.5752 86.8721C67.1839 86.8721 67.7031 87.0853 68.1328 87.5117C68.5625 87.9349 68.7773 88.446 68.7773 89.0449ZM67.9326 88.6006L65.667 93.1758C65.9242 93.3939 66.2269 93.5029 66.5752 93.5029C66.9626 93.5029 67.2962 93.3646 67.5762 93.0879C67.8529 92.8145 67.9928 92.4824 67.9961 92.0918V89.0303C67.9961 88.8773 67.9749 88.734 67.9326 88.6006ZM71.834 88.2783L70.6816 89.377L70.2227 88.7568L71.834 87.2139L72.6152 86.8721V93.9082L71.834 94.25V88.2783ZM76.3848 89.0303V92.0918C76.3848 92.196 76.3945 92.2952 76.4141 92.3896L78.6406 87.8926C78.3965 87.7103 78.1182 87.6191 77.8057 87.6191C77.4118 87.6191 77.0765 87.7575 76.7998 88.0342C76.5231 88.3076 76.3848 88.6396 76.3848 89.0303ZM80.0078 89.0449V92.0771C80.0078 92.6761 79.793 93.1888 79.3633 93.6152C78.9336 94.0384 78.4144 94.25 77.8057 94.25C77.1937 94.25 76.6745 94.0384 76.248 93.6152C75.8184 93.1888 75.6035 92.6761 75.6035 92.0771V89.0449C75.6035 88.446 75.8184 87.9349 76.248 87.5117C76.6777 87.0853 77.1969 86.8721 77.8057 86.8721C78.4144 86.8721 78.9336 87.0853 79.3633 87.5117C79.793 87.9349 80.0078 88.446 80.0078 89.0449ZM79.1631 88.6006L76.8975 93.1758C77.1546 93.3939 77.4574 93.5029 77.8057 93.5029C78.193 93.5029 78.5267 93.3646 78.8066 93.0879C79.0833 92.8145 79.2233 92.4824 79.2266 92.0918V89.0303C79.2266 88.8773 79.2054 88.734 79.1631 88.6006ZM83.0645 88.2783L81.9121 89.377L81.4531 88.7568L83.0645 87.2139L83.8457 86.8721V93.9082L83.0645 94.25V88.2783ZM87.6152 89.0303V92.0918C87.6152 92.196 87.625 92.2952 87.6445 92.3896L89.8711 87.8926C89.627 87.7103 89.3486 87.6191 89.0361 87.6191C88.6423 87.6191 88.307 87.7575 88.0303 88.0342C87.7536 88.3076 87.6152 88.6396 87.6152 89.0303ZM91.2383 89.0449V92.0771C91.2383 92.6761 91.0234 93.1888 90.5938 93.6152C90.1641 94.0384 89.6449 94.25 89.0361 94.25C88.4242 94.25 87.9049 94.0384 87.4785 93.6152C87.0488 93.1888 86.834 92.6761 86.834 92.0771V89.0449C86.834 88.446 87.0488 87.9349 87.4785 87.5117C87.9082 87.0853 88.4274 86.8721 89.0361 86.8721C89.6449 86.8721 90.1641 87.0853 90.5938 87.5117C91.0234 87.9349 91.2383 88.446 91.2383 89.0449ZM90.3936 88.6006L88.1279 93.1758C88.3851 93.3939 88.6878 93.5029 89.0361 93.5029C89.4235 93.5029 89.7572 93.3646 90.0371 93.0879C90.3138 92.8145 90.4538 92.4824 90.457 92.0918V89.0303C90.457 88.8773 90.4359 88.734 90.3936 88.6006ZM94.2949 88.2783L93.1426 89.377L92.6836 88.7568L94.2949 87.2139L95.0762 86.8721V93.9082L94.2949 94.25V88.2783ZM98.8457 89.0303V92.0918C98.8457 92.196 98.8555 92.2952 98.875 92.3896L101.102 87.8926C100.857 87.7103 100.579 87.6191 100.267 87.6191C99.8727 87.6191 99.5374 87.7575 99.2607 88.0342C98.984 88.3076 98.8457 88.6396 98.8457 89.0303ZM102.469 89.0449V92.0771C102.469 92.6761 102.254 93.1888 101.824 93.6152C101.395 94.0384 100.875 94.25 100.267 94.25C99.6546 94.25 99.1354 94.0384 98.709 93.6152C98.2793 93.1888 98.0645 92.6761 98.0645 92.0771V89.0449C98.0645 88.446 98.2793 87.9349 98.709 87.5117C99.1387 87.0853 99.6579 86.8721 100.267 86.8721C100.875 86.8721 101.395 87.0853 101.824 87.5117C102.254 87.9349 102.469 88.446 102.469 89.0449ZM101.624 88.6006L99.3584 93.1758C99.6156 93.3939 99.9183 93.5029 100.267 93.5029C100.654 93.5029 100.988 93.3646 101.268 93.0879C101.544 92.8145 101.684 92.4824 101.688 92.0918V89.0303C101.688 88.8773 101.666 88.734 101.624 88.6006ZM105.525 88.2783L104.373 89.377L103.914 88.7568L105.525 87.2139L106.307 86.8721V93.9082L105.525 94.25V88.2783ZM111.141 88.2783L109.988 89.377L109.529 88.7568L111.141 87.2139L111.922 86.8721V93.9082L111.141 94.25V88.2783ZM115.691 89.0303V92.0918C115.691 92.196 115.701 92.2952 115.721 92.3896L117.947 87.8926C117.703 87.7103 117.425 87.6191 117.112 87.6191C116.718 87.6191 116.383 87.7575 116.106 88.0342C115.83 88.3076 115.691 88.6396 115.691 89.0303ZM119.314 89.0449V92.0771C119.314 92.6761 119.1 93.1888 118.67 93.6152C118.24 94.0384 117.721 94.25 117.112 94.25C116.5 94.25 115.981 94.0384 115.555 93.6152C115.125 93.1888 114.91 92.6761 114.91 92.0771V89.0449C114.91 88.446 115.125 87.9349 115.555 87.5117C115.984 87.0853 116.504 86.8721 117.112 86.8721C117.721 86.8721 118.24 87.0853 118.67 87.5117C119.1 87.9349 119.314 88.446 119.314 89.0449ZM118.47 88.6006L116.204 93.1758C116.461 93.3939 116.764 93.5029 117.112 93.5029C117.5 93.5029 117.833 93.3646 118.113 93.0879C118.39 92.8145 118.53 92.4824 118.533 92.0918V89.0303C118.533 88.8773 118.512 88.734 118.47 88.6006ZM4.45117 102.278L3.29883 103.377L2.83984 102.757L4.45117 101.214L5.23242 100.872V107.908L4.45117 108.25V102.278ZM9.00195 103.03V106.092C9.00195 106.196 9.01172 106.295 9.03125 106.39L11.2578 101.893C11.0137 101.71 10.7354 101.619 10.4229 101.619C10.029 101.619 9.69368 101.757 9.41699 102.034C9.1403 102.308 9.00195 102.64 9.00195 103.03ZM12.625 103.045V106.077C12.625 106.676 12.4102 107.189 11.9805 107.615C11.5508 108.038 11.0316 108.25 10.4229 108.25C9.81087 108.25 9.29167 108.038 8.86523 107.615C8.43555 107.189 8.2207 106.676 8.2207 106.077V103.045C8.2207 102.446 8.43555 101.935 8.86523 101.512C9.29492 101.085 9.81413 100.872 10.4229 100.872C11.0316 100.872 11.5508 101.085 11.9805 101.512C12.4102 101.935 12.625 102.446 12.625 103.045ZM11.7803 102.601L9.51465 107.176C9.77181 107.394 10.0745 107.503 10.4229 107.503C10.8102 107.503 11.1439 107.365 11.4238 107.088C11.7005 106.814 11.8405 106.482 11.8438 106.092V103.03C11.8438 102.877 11.8226 102.734 11.7803 102.601ZM15.6816 102.278L14.5293 103.377L14.0703 102.757L15.6816 101.214L16.4629 100.872V107.908L15.6816 108.25V102.278ZM20.2324 103.03V106.092C20.2324 106.196 20.2422 106.295 20.2617 106.39L22.4883 101.893C22.2441 101.71 21.9658 101.619 21.6533 101.619C21.2594 101.619 20.9242 101.757 20.6475 102.034C20.3708 102.308 20.2324 102.64 20.2324 103.03ZM23.8555 103.045V106.077C23.8555 106.676 23.6406 107.189 23.2109 107.615C22.7812 108.038 22.262 108.25 21.6533 108.25C21.0413 108.25 20.5221 108.038 20.0957 107.615C19.666 107.189 19.4512 106.676 19.4512 106.077V103.045C19.4512 102.446 19.666 101.935 20.0957 101.512C20.5254 101.085 21.0446 100.872 21.6533 100.872C22.262 100.872 22.7812 101.085 23.2109 101.512C23.6406 101.935 23.8555 102.446 23.8555 103.045ZM23.0107 102.601L20.7451 107.176C21.0023 107.394 21.305 107.503 21.6533 107.503C22.0407 107.503 22.3743 107.365 22.6543 107.088C22.931 106.814 23.071 106.482 23.0742 106.092V103.03C23.0742 102.877 23.0531 102.734 23.0107 102.601ZM26.9121 102.278L25.7598 103.377L25.3008 102.757L26.9121 101.214L27.6934 100.872V107.908L26.9121 108.25V102.278ZM32.5273 102.278L31.375 103.377L30.916 102.757L32.5273 101.214L33.3086 100.872V107.908L32.5273 108.25V102.278ZM37.0781 103.03V106.092C37.0781 106.196 37.0879 106.295 37.1074 106.39L39.334 101.893C39.0898 101.71 38.8115 101.619 38.499 101.619C38.1051 101.619 37.7699 101.757 37.4932 102.034C37.2165 102.308 37.0781 102.64 37.0781 103.03ZM40.7012 103.045V106.077C40.7012 106.676 40.4863 107.189 40.0566 107.615C39.627 108.038 39.1077 108.25 38.499 108.25C37.887 108.25 37.3678 108.038 36.9414 107.615C36.5117 107.189 36.2969 106.676 36.2969 106.077V103.045C36.2969 102.446 36.5117 101.935 36.9414 101.512C37.3711 101.085 37.8903 100.872 38.499 100.872C39.1077 100.872 39.627 101.085 40.0566 101.512C40.4863 101.935 40.7012 102.446 40.7012 103.045ZM39.8564 102.601L37.5908 107.176C37.848 107.394 38.1507 107.503 38.499 107.503C38.8864 107.503 39.2201 107.365 39.5 107.088C39.7767 106.814 39.9167 106.482 39.9199 106.092V103.03C39.9199 102.877 39.8988 102.734 39.8564 102.601ZM43.7578 102.278L42.6055 103.377L42.1465 102.757L43.7578 101.214L44.5391 100.872V107.908L43.7578 108.25V102.278ZM49.373 102.278L48.2207 103.377L47.7617 102.757L49.373 101.214L50.1543 100.872V107.908L49.373 108.25V102.278ZM53.9238 103.03V106.092C53.9238 106.196 53.9336 106.295 53.9531 106.39L56.1797 101.893C55.9355 101.71 55.6572 101.619 55.3447 101.619C54.9508 101.619 54.6156 101.757 54.3389 102.034C54.0622 102.308 53.9238 102.64 53.9238 103.03ZM57.5469 103.045V106.077C57.5469 106.676 57.332 107.189 56.9023 107.615C56.4727 108.038 55.9535 108.25 55.3447 108.25C54.7327 108.25 54.2135 108.038 53.7871 107.615C53.3574 107.189 53.1426 106.676 53.1426 106.077V103.045C53.1426 102.446 53.3574 101.935 53.7871 101.512C54.2168 101.085 54.736 100.872 55.3447 100.872C55.9535 100.872 56.4727 101.085 56.9023 101.512C57.332 101.935 57.5469 102.446 57.5469 103.045ZM56.7021 102.601L54.4365 107.176C54.6937 107.394 54.9964 107.503 55.3447 107.503C55.7321 107.503 56.0658 107.365 56.3457 107.088C56.6224 106.814 56.7624 106.482 56.7656 106.092V103.03C56.7656 102.877 56.7445 102.734 56.7021 102.601ZM60.6035 102.278L59.4512 103.377L58.9922 102.757L60.6035 101.214L61.3848 100.872V107.908L60.6035 108.25V102.278ZM65.1543 103.03V106.092C65.1543 106.196 65.1641 106.295 65.1836 106.39L67.4102 101.893C67.166 101.71 66.8877 101.619 66.5752 101.619C66.1813 101.619 65.846 101.757 65.5693 102.034C65.2926 102.308 65.1543 102.64 65.1543 103.03ZM68.7773 103.045V106.077C68.7773 106.676 68.5625 107.189 68.1328 107.615C67.7031 108.038 67.1839 108.25 66.5752 108.25C65.9632 108.25 65.444 108.038 65.0176 107.615C64.5879 107.189 64.373 106.676 64.373 106.077V103.045C64.373 102.446 64.5879 101.935 65.0176 101.512C65.4473 101.085 65.9665 100.872 66.5752 100.872C67.1839 100.872 67.7031 101.085 68.1328 101.512C68.5625 101.935 68.7773 102.446 68.7773 103.045ZM67.9326 102.601L65.667 107.176C65.9242 107.394 66.2269 107.503 66.5752 107.503C66.9626 107.503 67.2962 107.365 67.5762 107.088C67.8529 106.814 67.9928 106.482 67.9961 106.092V103.03C67.9961 102.877 67.9749 102.734 67.9326 102.601ZM71.834 102.278L70.6816 103.377L70.2227 102.757L71.834 101.214L72.6152 100.872V107.908L71.834 108.25V102.278ZM76.3848 103.03V106.092C76.3848 106.196 76.3945 106.295 76.4141 106.39L78.6406 101.893C78.3965 101.71 78.1182 101.619 77.8057 101.619C77.4118 101.619 77.0765 101.757 76.7998 102.034C76.5231 102.308 76.3848 102.64 76.3848 103.03ZM80.0078 103.045V106.077C80.0078 106.676 79.793 107.189 79.3633 107.615C78.9336 108.038 78.4144 108.25 77.8057 108.25C77.1937 108.25 76.6745 108.038 76.248 107.615C75.8184 107.189 75.6035 106.676 75.6035 106.077V103.045C75.6035 102.446 75.8184 101.935 76.248 101.512C76.6777 101.085 77.1969 100.872 77.8057 100.872C78.4144 100.872 78.9336 101.085 79.3633 101.512C79.793 101.935 80.0078 102.446 80.0078 103.045ZM79.1631 102.601L76.8975 107.176C77.1546 107.394 77.4574 107.503 77.8057 107.503C78.193 107.503 78.5267 107.365 78.8066 107.088C79.0833 106.814 79.2233 106.482 79.2266 106.092V103.03C79.2266 102.877 79.2054 102.734 79.1631 102.601ZM83.0645 102.278L81.9121 103.377L81.4531 102.757L83.0645 101.214L83.8457 100.872V107.908L83.0645 108.25V102.278ZM87.6152 103.03V106.092C87.6152 106.196 87.625 106.295 87.6445 106.39L89.8711 101.893C89.627 101.71 89.3486 101.619 89.0361 101.619C88.6423 101.619 88.307 101.757 88.0303 102.034C87.7536 102.308 87.6152 102.64 87.6152 103.03ZM91.2383 103.045V106.077C91.2383 106.676 91.0234 107.189 90.5938 107.615C90.1641 108.038 89.6449 108.25 89.0361 108.25C88.4242 108.25 87.9049 108.038 87.4785 107.615C87.0488 107.189 86.834 106.676 86.834 106.077V103.045C86.834 102.446 87.0488 101.935 87.4785 101.512C87.9082 101.085 88.4274 100.872 89.0361 100.872C89.6449 100.872 90.1641 101.085 90.5938 101.512C91.0234 101.935 91.2383 102.446 91.2383 103.045ZM90.3936 102.601L88.1279 107.176C88.3851 107.394 88.6878 107.503 89.0361 107.503C89.4235 107.503 89.7572 107.365 90.0371 107.088C90.3138 106.814 90.4538 106.482 90.457 106.092V103.03C90.457 102.877 90.4359 102.734 90.3936 102.601ZM94.2949 102.278L93.1426 103.377L92.6836 102.757L94.2949 101.214L95.0762 100.872V107.908L94.2949 108.25V102.278ZM98.8457 103.03V106.092C98.8457 106.196 98.8555 106.295 98.875 106.39L101.102 101.893C100.857 101.71 100.579 101.619 100.267 101.619C99.8727 101.619 99.5374 101.757 99.2607 102.034C98.984 102.308 98.8457 102.64 98.8457 103.03ZM102.469 103.045V106.077C102.469 106.676 102.254 107.189 101.824 107.615C101.395 108.038 100.875 108.25 100.267 108.25C99.6546 108.25 99.1354 108.038 98.709 107.615C98.2793 107.189 98.0645 106.676 98.0645 106.077V103.045C98.0645 102.446 98.2793 101.935 98.709 101.512C99.1387 101.085 99.6579 100.872 100.267 100.872C100.875 100.872 101.395 101.085 101.824 101.512C102.254 101.935 102.469 102.446 102.469 103.045ZM101.624 102.601L99.3584 107.176C99.6156 107.394 99.9183 107.503 100.267 107.503C100.654 107.503 100.988 107.365 101.268 107.088C101.544 106.814 101.684 106.482 101.688 106.092V103.03C101.688 102.877 101.666 102.734 101.624 102.601ZM105.525 102.278L104.373 103.377L103.914 102.757L105.525 101.214L106.307 100.872V107.908L105.525 108.25V102.278ZM110.076 103.03V106.092C110.076 106.196 110.086 106.295 110.105 106.39L112.332 101.893C112.088 101.71 111.81 101.619 111.497 101.619C111.103 101.619 110.768 101.757 110.491 102.034C110.215 102.308 110.076 102.64 110.076 103.03ZM113.699 103.045V106.077C113.699 106.676 113.484 107.189 113.055 107.615C112.625 108.038 112.106 108.25 111.497 108.25C110.885 108.25 110.366 108.038 109.939 107.615C109.51 107.189 109.295 106.676 109.295 106.077V103.045C109.295 102.446 109.51 101.935 109.939 101.512C110.369 101.085 110.888 100.872 111.497 100.872C112.106 100.872 112.625 101.085 113.055 101.512C113.484 101.935 113.699 102.446 113.699 103.045ZM112.854 102.601L110.589 107.176C110.846 107.394 111.149 107.503 111.497 107.503C111.884 107.503 112.218 107.365 112.498 107.088C112.775 106.814 112.915 106.482 112.918 106.092V103.03C112.918 102.877 112.897 102.734 112.854 102.601ZM116.756 102.278L115.604 103.377L115.145 102.757L116.756 101.214L117.537 100.872V107.908L116.756 108.25V102.278ZM3.38672 117.03V120.092C3.38672 120.196 3.39648 120.295 3.41602 120.39L5.64258 115.893C5.39844 115.71 5.12012 115.619 4.80762 115.619C4.41374 115.619 4.07845 115.757 3.80176 116.034C3.52507 116.308 3.38672 116.64 3.38672 117.03ZM7.00977 117.045V120.077C7.00977 120.676 6.79492 121.189 6.36523 121.615C5.93555 122.038 5.41634 122.25 4.80762 122.25C4.19564 122.25 3.67643 122.038 3.25 121.615C2.82031 121.189 2.60547 120.676 2.60547 120.077V117.045C2.60547 116.446 2.82031 115.935 3.25 115.512C3.67969 115.085 4.19889 114.872 4.80762 114.872C5.41634 114.872 5.93555 115.085 6.36523 115.512C6.79492 115.935 7.00977 116.446 7.00977 117.045ZM6.16504 116.601L3.89941 121.176C4.15658 121.394 4.45931 121.503 4.80762 121.503C5.19499 121.503 5.52865 121.365 5.80859 121.088C6.08529 120.814 6.22526 120.482 6.22852 120.092V117.03C6.22852 116.877 6.20736 116.734 6.16504 116.601ZM9.00195 117.03V120.092C9.00195 120.196 9.01172 120.295 9.03125 120.39L11.2578 115.893C11.0137 115.71 10.7354 115.619 10.4229 115.619C10.029 115.619 9.69368 115.757 9.41699 116.034C9.1403 116.308 9.00195 116.64 9.00195 117.03ZM12.625 117.045V120.077C12.625 120.676 12.4102 121.189 11.9805 121.615C11.5508 122.038 11.0316 122.25 10.4229 122.25C9.81087 122.25 9.29167 122.038 8.86523 121.615C8.43555 121.189 8.2207 120.676 8.2207 120.077V117.045C8.2207 116.446 8.43555 115.935 8.86523 115.512C9.29492 115.085 9.81413 114.872 10.4229 114.872C11.0316 114.872 11.5508 115.085 11.9805 115.512C12.4102 115.935 12.625 116.446 12.625 117.045ZM11.7803 116.601L9.51465 121.176C9.77181 121.394 10.0745 121.503 10.4229 121.503C10.8102 121.503 11.1439 121.365 11.4238 121.088C11.7005 120.814 11.8405 120.482 11.8438 120.092V117.03C11.8438 116.877 11.8226 116.734 11.7803 116.601ZM15.6816 116.278L14.5293 117.377L14.0703 116.757L15.6816 115.214L16.4629 114.872V121.908L15.6816 122.25V116.278ZM20.2324 117.03V120.092C20.2324 120.196 20.2422 120.295 20.2617 120.39L22.4883 115.893C22.2441 115.71 21.9658 115.619 21.6533 115.619C21.2594 115.619 20.9242 115.757 20.6475 116.034C20.3708 116.308 20.2324 116.64 20.2324 117.03ZM23.8555 117.045V120.077C23.8555 120.676 23.6406 121.189 23.2109 121.615C22.7812 122.038 22.262 122.25 21.6533 122.25C21.0413 122.25 20.5221 122.038 20.0957 121.615C19.666 121.189 19.4512 120.676 19.4512 120.077V117.045C19.4512 116.446 19.666 115.935 20.0957 115.512C20.5254 115.085 21.0446 114.872 21.6533 114.872C22.262 114.872 22.7812 115.085 23.2109 115.512C23.6406 115.935 23.8555 116.446 23.8555 117.045ZM23.0107 116.601L20.7451 121.176C21.0023 121.394 21.305 121.503 21.6533 121.503C22.0407 121.503 22.3743 121.365 22.6543 121.088C22.931 120.814 23.071 120.482 23.0742 120.092V117.03C23.0742 116.877 23.0531 116.734 23.0107 116.601ZM26.9121 116.278L25.7598 117.377L25.3008 116.757L26.9121 115.214L27.6934 114.872V121.908L26.9121 122.25V116.278ZM31.4629 117.03V120.092C31.4629 120.196 31.4727 120.295 31.4922 120.39L33.7188 115.893C33.4746 115.71 33.1963 115.619 32.8838 115.619C32.4899 115.619 32.1546 115.757 31.8779 116.034C31.6012 116.308 31.4629 116.64 31.4629 117.03ZM35.0859 117.045V120.077C35.0859 120.676 34.8711 121.189 34.4414 121.615C34.0117 122.038 33.4925 122.25 32.8838 122.25C32.2718 122.25 31.7526 122.038 31.3262 121.615C30.8965 121.189 30.6816 120.676 30.6816 120.077V117.045C30.6816 116.446 30.8965 115.935 31.3262 115.512C31.7559 115.085 32.2751 114.872 32.8838 114.872C33.4925 114.872 34.0117 115.085 34.4414 115.512C34.8711 115.935 35.0859 116.446 35.0859 117.045ZM34.2412 116.601L31.9756 121.176C32.2327 121.394 32.5355 121.503 32.8838 121.503C33.2712 121.503 33.6048 121.365 33.8848 121.088C34.1615 120.814 34.3014 120.482 34.3047 120.092V117.03C34.3047 116.877 34.2835 116.734 34.2412 116.601ZM38.1426 116.278L36.9902 117.377L36.5312 116.757L38.1426 115.214L38.9238 114.872V121.908L38.1426 122.25V116.278ZM42.6934 117.03V120.092C42.6934 120.196 42.7031 120.295 42.7227 120.39L44.9492 115.893C44.7051 115.71 44.4268 115.619 44.1143 115.619C43.7204 115.619 43.3851 115.757 43.1084 116.034C42.8317 116.308 42.6934 116.64 42.6934 117.03ZM46.3164 117.045V120.077C46.3164 120.676 46.1016 121.189 45.6719 121.615C45.2422 122.038 44.723 122.25 44.1143 122.25C43.5023 122.25 42.9831 122.038 42.5566 121.615C42.127 121.189 41.9121 120.676 41.9121 120.077V117.045C41.9121 116.446 42.127 115.935 42.5566 115.512C42.9863 115.085 43.5055 114.872 44.1143 114.872C44.723 114.872 45.2422 115.085 45.6719 115.512C46.1016 115.935 46.3164 116.446 46.3164 117.045ZM45.4717 116.601L43.2061 121.176C43.4632 121.394 43.766 121.503 44.1143 121.503C44.5016 121.503 44.8353 121.365 45.1152 121.088C45.3919 120.814 45.5319 120.482 45.5352 120.092V117.03C45.5352 116.877 45.514 116.734 45.4717 116.601ZM49.373 116.278L48.2207 117.377L47.7617 116.757L49.373 115.214L50.1543 114.872V121.908L49.373 122.25V116.278ZM53.9238 117.03V120.092C53.9238 120.196 53.9336 120.295 53.9531 120.39L56.1797 115.893C55.9355 115.71 55.6572 115.619 55.3447 115.619C54.9508 115.619 54.6156 115.757 54.3389 116.034C54.0622 116.308 53.9238 116.64 53.9238 117.03ZM57.5469 117.045V120.077C57.5469 120.676 57.332 121.189 56.9023 121.615C56.4727 122.038 55.9535 122.25 55.3447 122.25C54.7327 122.25 54.2135 122.038 53.7871 121.615C53.3574 121.189 53.1426 120.676 53.1426 120.077V117.045C53.1426 116.446 53.3574 115.935 53.7871 115.512C54.2168 115.085 54.736 114.872 55.3447 114.872C55.9535 114.872 56.4727 115.085 56.9023 115.512C57.332 115.935 57.5469 116.446 57.5469 117.045ZM56.7021 116.601L54.4365 121.176C54.6937 121.394 54.9964 121.503 55.3447 121.503C55.7321 121.503 56.0658 121.365 56.3457 121.088C56.6224 120.814 56.7624 120.482 56.7656 120.092V117.03C56.7656 116.877 56.7445 116.734 56.7021 116.601ZM60.6035 116.278L59.4512 117.377L58.9922 116.757L60.6035 115.214L61.3848 114.872V121.908L60.6035 122.25V116.278Z" fill="#04C700" fill-opacity="0.35"/>
<rect x="3" y="4.25" width="115" height="115" rx="7" stroke="#42C23F" stroke-width="6"/>
</g>
</g>
<g filter="url(#filter1_ddd_640_1179)">
<path d="M30 28.5L42.6015 39.7013C43.0688 40.1167 43.0446 40.8542 42.5511 41.2381L30 51M66 51.625H79.75H93.5" stroke="#3ACB2E" stroke-width="3" stroke-linecap="round" stroke-linejoin="round"/>
<path d="M30 28.5L42.6015 39.7013C43.0688 40.1167 43.0446 40.8542 42.5511 41.2381L30 51M66 51.625H79.75H93.5" stroke="#FFFDFD" stroke-opacity="0.44" stroke-width="3" stroke-linecap="round" stroke-linejoin="round"/>
</g>
<g filter="url(#filter2_ddd_640_1179)">
<path d="M37 85.125H85.75" stroke="#D2D700" stroke-width="3" stroke-linecap="round" stroke-linejoin="round"/>
</g>
<defs>
<filter id="filter0_i_640_1179" x="0" y="0.25" width="121" height="121" filterUnits="userSpaceOnUse" color-interpolation-filters="sRGB">
<feFlood flood-opacity="0" result="BackgroundImageFix"/>
<feBlend mode="normal" in="SourceGraphic" in2="BackgroundImageFix" result="shape"/>
<feColorMatrix in="SourceAlpha" type="matrix" values="0 0 0 0 0 0 0 0 0 0 0 0 0 0 0 0 0 0 127 0" result="hardAlpha"/>
<feMorphology radius="6" operator="erode" in="SourceAlpha" result="effect1_innerShadow_640_1179"/>
<feOffset/>
<feGaussianBlur stdDeviation="10"/>
<feComposite in2="hardAlpha" operator="arithmetic" k2="-1" k3="1"/>
<feColorMatrix type="matrix" values="0 0 0 0 0.0156863 0 0 0 0 0.780392 0 0 0 0 0 0 0 0 1 0"/>
<feBlend mode="normal" in2="shape" result="effect1_innerShadow_640_1179"/>
</filter>
<filter id="filter1_ddd_640_1179" x="13.5" y="12" width="96.5" height="56.125" filterUnits="userSpaceOnUse" color-interpolation-filters="sRGB">
<feFlood flood-opacity="0" result="BackgroundImageFix"/>
<feColorMatrix in="SourceAlpha" type="matrix" values="0 0 0 0 0 0 0 0 0 0 0 0 0 0 0 0 0 0 127 0" result="hardAlpha"/>
<feOffset/>
<feGaussianBlur stdDeviation="7.5"/>
<feComposite in2="hardAlpha" operator="out"/>
<feColorMatrix type="matrix" values="0 0 0 0 0.227451 0 0 0 0 0.796078 0 0 0 0 0.180392 0 0 0 1 0"/>
<feBlend mode="normal" in2="BackgroundImageFix" result="effect1_dropShadow_640_1179"/>
<feColorMatrix in="SourceAlpha" type="matrix" values="0 0 0 0 0 0 0 0 0 0 0 0 0 0 0 0 0 0 127 0" result="hardAlpha"/>
<feOffset/>
<feGaussianBlur stdDeviation="3.5"/>
<feComposite in2="hardAlpha" operator="out"/>
<feColorMatrix type="matrix" values="0 0 0 0 0.227451 0 0 0 0 0.796078 0 0 0 0 0.180392 0 0 0 1 0"/>
<feBlend mode="normal" in2="effect1_dropShadow_640_1179" result="effect2_dropShadow_640_1179"/>
<feColorMatrix in="SourceAlpha" type="matrix" values="0 0 0 0 0 0 0 0 0 0 0 0 0 0 0 0 0 0 127 0" result="hardAlpha"/>
<feOffset/>
<feGaussianBlur stdDeviation="1.5"/>
<feComposite in2="hardAlpha" operator="out"/>
<feColorMatrix type="matrix" values="0 0 0 0 0.227451 0 0 0 0 0.796078 0 0 0 0 0.180392 0 0 0 1 0"/>
<feBlend mode="normal" in2="effect2_dropShadow_640_1179" result="effect3_dropShadow_640_1179"/>
<feBlend mode="normal" in="SourceGraphic" in2="effect3_dropShadow_640_1179" result="shape"/>
</filter>
<filter id="filter2_ddd_640_1179" x="20.5" y="68.625" width="81.75" height="33" filterUnits="userSpaceOnUse" color-interpolation-filters="sRGB">
<feFlood flood-opacity="0" result="BackgroundImageFix"/>
<feColorMatrix in="SourceAlpha" type="matrix" values="0 0 0 0 0 0 0 0 0 0 0 0 0 0 0 0 0 0 127 0" result="hardAlpha"/>
<feOffset/>
<feGaussianBlur stdDeviation="7.5"/>
<feComposite in2="hardAlpha" operator="out"/>
<feColorMatrix type="matrix" values="0 0 0 0 0.823529 0 0 0 0 0.843137 0 0 0 0 0 0 0 0 1 0"/>
<feBlend mode="normal" in2="BackgroundImageFix" result="effect1_dropShadow_640_1179"/>
<feColorMatrix in="SourceAlpha" type="matrix" values="0 0 0 0 0 0 0 0 0 0 0 0 0 0 0 0 0 0 127 0" result="hardAlpha"/>
<feOffset/>
<feGaussianBlur stdDeviation="3.5"/>
<feComposite in2="hardAlpha" operator="out"/>
<feColorMatrix type="matrix" values="0 0 0 0 0.823529 0 0 0 0 0.843137 0 0 0 0 0 0 0 0 1 0"/>
<feBlend mode="normal" in2="effect1_dropShadow_640_1179" result="effect2_dropShadow_640_1179"/>
<feColorMatrix in="SourceAlpha" type="matrix" values="0 0 0 0 0 0 0 0 0 0 0 0 0 0 0 0 0 0 127 0" result="hardAlpha"/>
<feOffset/>
<feGaussianBlur stdDeviation="1.5"/>
<feComposite in2="hardAlpha" operator="out"/>
<feColorMatrix type="matrix" values="0 0 0 0 0.823529 0 0 0 0 0.843137 0 0 0 0 0 0 0 0 1 0"/>
<feBlend mode="normal" in2="effect2_dropShadow_640_1179" result="effect3_dropShadow_640_1179"/>
<feBlend mode="normal" in="SourceGraphic" in2="effect3_dropShadow_640_1179" result="shape"/>
</filter>
<clipPath id="clip0_640_1179">
<rect y="0.25" width="121" height="121" rx="10" fill="white"/>
</clipPath>
</defs>
</svg>
