<svg width="122" height="123" viewBox="0 0 122 123" fill="none" xmlns="http://www.w3.org/2000/svg">
<g filter="url(#filter0_i_454_947)">
<g clip-path="url(#clip0_454_947)">
<rect y="1.75" width="121" height="121" rx="10" fill="#212121"/>
<path d="M3.38672 5.53027V8.5918C3.38672 8.69596 3.39648 8.79525 3.41602 8.88965L5.64258 4.39258C5.39844 4.21029 5.12012 4.11914 4.80762 4.11914C4.41374 4.11914 4.07845 4.25749 3.80176 4.53418C3.52507 4.80762 3.38672 5.13965 3.38672 5.53027ZM7.00977 5.54492V8.57715C7.00977 9.17611 6.79492 9.6888 6.36523 10.1152C5.93555 10.5384 5.41634 10.75 4.80762 10.75C4.19564 10.75 3.67643 10.5384 3.25 10.1152C2.82031 9.6888 2.60547 9.17611 2.60547 8.57715V5.54492C2.60547 4.94596 2.82031 4.4349 3.25 4.01172C3.67969 3.58529 4.19889 3.37207 4.80762 3.37207C5.41634 3.37207 5.93555 3.58529 6.36523 4.01172C6.79492 4.4349 7.00977 4.94596 7.00977 5.54492ZM6.16504 5.10059L3.89941 9.67578C4.15658 9.89388 4.45931 10.0029 4.80762 10.0029C5.19499 10.0029 5.52865 9.86458 5.80859 9.58789C6.08529 9.31445 6.22526 8.98242 6.22852 8.5918V5.53027C6.22852 5.37728 6.20736 5.23405 6.16504 5.10059ZM10.0664 4.77832L8.91406 5.87695L8.45508 5.25684L10.0664 3.71387L10.8477 3.37207V10.4082L10.0664 10.75V4.77832ZM15.6816 4.77832L14.5293 5.87695L14.0703 5.25684L15.6816 3.71387L16.4629 3.37207V10.4082L15.6816 10.75V4.77832ZM20.2324 5.53027V8.5918C20.2324 8.69596 20.2422 8.79525 20.2617 8.88965L22.4883 4.39258C22.2441 4.21029 21.9658 4.11914 21.6533 4.11914C21.2594 4.11914 20.9242 4.25749 20.6475 4.53418C20.3708 4.80762 20.2324 5.13965 20.2324 5.53027ZM23.8555 5.54492V8.57715C23.8555 9.17611 23.6406 9.6888 23.2109 10.1152C22.7812 10.5384 22.262 10.75 21.6533 10.75C21.0413 10.75 20.5221 10.5384 20.0957 10.1152C19.666 9.6888 19.4512 9.17611 19.4512 8.57715V5.54492C19.4512 4.94596 19.666 4.4349 20.0957 4.01172C20.5254 3.58529 21.0446 3.37207 21.6533 3.37207C22.262 3.37207 22.7812 3.58529 23.2109 4.01172C23.6406 4.4349 23.8555 4.94596 23.8555 5.54492ZM23.0107 5.10059L20.7451 9.67578C21.0023 9.89388 21.305 10.0029 21.6533 10.0029C22.0407 10.0029 22.3743 9.86458 22.6543 9.58789C22.931 9.31445 23.071 8.98242 23.0742 8.5918V5.53027C23.0742 5.37728 23.0531 5.23405 23.0107 5.10059ZM26.9121 4.77832L25.7598 5.87695L25.3008 5.25684L26.9121 3.71387L27.6934 3.37207V10.4082L26.9121 10.75V4.77832ZM32.5273 4.77832L31.375 5.87695L30.916 5.25684L32.5273 3.71387L33.3086 3.37207V10.4082L32.5273 10.75V4.77832ZM37.0781 5.53027V8.5918C37.0781 8.69596 37.0879 8.79525 37.1074 8.88965L39.334 4.39258C39.0898 4.21029 38.8115 4.11914 38.499 4.11914C38.1051 4.11914 37.7699 4.25749 37.4932 4.53418C37.2165 4.80762 37.0781 5.13965 37.0781 5.53027ZM40.7012 5.54492V8.57715C40.7012 9.17611 40.4863 9.6888 40.0566 10.1152C39.627 10.5384 39.1077 10.75 38.499 10.75C37.887 10.75 37.3678 10.5384 36.9414 10.1152C36.5117 9.6888 36.2969 9.17611 36.2969 8.57715V5.54492C36.2969 4.94596 36.5117 4.4349 36.9414 4.01172C37.3711 3.58529 37.8903 3.37207 38.499 3.37207C39.1077 3.37207 39.627 3.58529 40.0566 4.01172C40.4863 4.4349 40.7012 4.94596 40.7012 5.54492ZM39.8564 5.10059L37.5908 9.67578C37.848 9.89388 38.1507 10.0029 38.499 10.0029C38.8864 10.0029 39.2201 9.86458 39.5 9.58789C39.7767 9.31445 39.9167 8.98242 39.9199 8.5918V5.53027C39.9199 5.37728 39.8988 5.23405 39.8564 5.10059ZM43.7578 4.77832L42.6055 5.87695L42.1465 5.25684L43.7578 3.71387L44.5391 3.37207V10.4082L43.7578 10.75V4.77832ZM48.3086 5.53027V8.5918C48.3086 8.69596 48.3184 8.79525 48.3379 8.88965L50.5645 4.39258C50.3203 4.21029 50.042 4.11914 49.7295 4.11914C49.3356 4.11914 49.0003 4.25749 48.7236 4.53418C48.4469 4.80762 48.3086 5.13965 48.3086 5.53027ZM51.9316 5.54492V8.57715C51.9316 9.17611 51.7168 9.6888 51.2871 10.1152C50.8574 10.5384 50.3382 10.75 49.7295 10.75C49.1175 10.75 48.5983 10.5384 48.1719 10.1152C47.7422 9.6888 47.5273 9.17611 47.5273 8.57715V5.54492C47.5273 4.94596 47.7422 4.4349 48.1719 4.01172C48.6016 3.58529 49.1208 3.37207 49.7295 3.37207C50.3382 3.37207 50.8574 3.58529 51.2871 4.01172C51.7168 4.4349 51.9316 4.94596 51.9316 5.54492ZM51.0869 5.10059L48.8213 9.67578C49.0785 9.89388 49.3812 10.0029 49.7295 10.0029C50.1169 10.0029 50.4505 9.86458 50.7305 9.58789C51.0072 9.31445 51.1471 8.98242 51.1504 8.5918V5.53027C51.1504 5.37728 51.1292 5.23405 51.0869 5.10059ZM54.9883 4.77832L53.8359 5.87695L53.377 5.25684L54.9883 3.71387L55.7695 3.37207V10.4082L54.9883 10.75V4.77832ZM59.5391 5.53027V8.5918C59.5391 8.69596 59.5488 8.79525 59.5684 8.88965L61.7949 4.39258C61.5508 4.21029 61.2725 4.11914 60.96 4.11914C60.5661 4.11914 60.2308 4.25749 59.9541 4.53418C59.6774 4.80762 59.5391 5.13965 59.5391 5.53027ZM63.1621 5.54492V8.57715C63.1621 9.17611 62.9473 9.6888 62.5176 10.1152C62.0879 10.5384 61.5687 10.75 60.96 10.75C60.348 10.75 59.8288 10.5384 59.4023 10.1152C58.9727 9.6888 58.7578 9.17611 58.7578 8.57715V5.54492C58.7578 4.94596 58.9727 4.4349 59.4023 4.01172C59.832 3.58529 60.3512 3.37207 60.96 3.37207C61.5687 3.37207 62.0879 3.58529 62.5176 4.01172C62.9473 4.4349 63.1621 4.94596 63.1621 5.54492ZM62.3174 5.10059L60.0518 9.67578C60.3089 9.89388 60.6117 10.0029 60.96 10.0029C61.3473 10.0029 61.681 9.86458 61.9609 9.58789C62.2376 9.31445 62.3776 8.98242 62.3809 8.5918V5.53027C62.3809 5.37728 62.3597 5.23405 62.3174 5.10059ZM66.2188 4.77832L65.0664 5.87695L64.6074 5.25684L66.2188 3.71387L67 3.37207V10.4082L66.2188 10.75V4.77832ZM70.7695 5.53027V8.5918C70.7695 8.69596 70.7793 8.79525 70.7988 8.88965L73.0254 4.39258C72.7812 4.21029 72.5029 4.11914 72.1904 4.11914C71.7965 4.11914 71.4613 4.25749 71.1846 4.53418C70.9079 4.80762 70.7695 5.13965 70.7695 5.53027ZM74.3926 5.54492V8.57715C74.3926 9.17611 74.1777 9.6888 73.748 10.1152C73.3184 10.5384 72.7992 10.75 72.1904 10.75C71.5785 10.75 71.0592 10.5384 70.6328 10.1152C70.2031 9.6888 69.9883 9.17611 69.9883 8.57715V5.54492C69.9883 4.94596 70.2031 4.4349 70.6328 4.01172C71.0625 3.58529 71.5817 3.37207 72.1904 3.37207C72.7992 3.37207 73.3184 3.58529 73.748 4.01172C74.1777 4.4349 74.3926 4.94596 74.3926 5.54492ZM73.5479 5.10059L71.2822 9.67578C71.5394 9.89388 71.8421 10.0029 72.1904 10.0029C72.5778 10.0029 72.9115 9.86458 73.1914 9.58789C73.4681 9.31445 73.6081 8.98242 73.6113 8.5918V5.53027C73.6113 5.37728 73.5902 5.23405 73.5479 5.10059ZM77.4492 4.77832L76.2969 5.87695L75.8379 5.25684L77.4492 3.71387L78.2305 3.37207V10.4082L77.4492 10.75V4.77832ZM82 5.53027V8.5918C82 8.69596 82.0098 8.79525 82.0293 8.88965L84.2559 4.39258C84.0117 4.21029 83.7334 4.11914 83.4209 4.11914C83.027 4.11914 82.6917 4.25749 82.415 4.53418C82.1383 4.80762 82 5.13965 82 5.53027ZM85.623 5.54492V8.57715C85.623 9.17611 85.4082 9.6888 84.9785 10.1152C84.5488 10.5384 84.0296 10.75 83.4209 10.75C82.8089 10.75 82.2897 10.5384 81.8633 10.1152C81.4336 9.6888 81.2188 9.17611 81.2188 8.57715V5.54492C81.2188 4.94596 81.4336 4.4349 81.8633 4.01172C82.293 3.58529 82.8122 3.37207 83.4209 3.37207C84.0296 3.37207 84.5488 3.58529 84.9785 4.01172C85.4082 4.4349 85.623 4.94596 85.623 5.54492ZM84.7783 5.10059L82.5127 9.67578C82.7699 9.89388 83.0726 10.0029 83.4209 10.0029C83.8083 10.0029 84.1419 9.86458 84.4219 9.58789C84.6986 9.31445 84.8385 8.98242 84.8418 8.5918V5.53027C84.8418 5.37728 84.8206 5.23405 84.7783 5.10059ZM88.6797 4.77832L87.5273 5.87695L87.0684 5.25684L88.6797 3.71387L89.4609 3.37207V10.4082L88.6797 10.75V4.77832ZM93.2305 5.53027V8.5918C93.2305 8.69596 93.2402 8.79525 93.2598 8.88965L95.4863 4.39258C95.2422 4.21029 94.9639 4.11914 94.6514 4.11914C94.2575 4.11914 93.9222 4.25749 93.6455 4.53418C93.3688 4.80762 93.2305 5.13965 93.2305 5.53027ZM96.8535 5.54492V8.57715C96.8535 9.17611 96.6387 9.6888 96.209 10.1152C95.7793 10.5384 95.2601 10.75 94.6514 10.75C94.0394 10.75 93.5202 10.5384 93.0938 10.1152C92.6641 9.6888 92.4492 9.17611 92.4492 8.57715V5.54492C92.4492 4.94596 92.6641 4.4349 93.0938 4.01172C93.5234 3.58529 94.0426 3.37207 94.6514 3.37207C95.2601 3.37207 95.7793 3.58529 96.209 4.01172C96.6387 4.4349 96.8535 4.94596 96.8535 5.54492ZM96.0088 5.10059L93.7432 9.67578C94.0003 9.89388 94.3031 10.0029 94.6514 10.0029C95.0387 10.0029 95.3724 9.86458 95.6523 9.58789C95.929 9.31445 96.069 8.98242 96.0723 8.5918V5.53027C96.0723 5.37728 96.0511 5.23405 96.0088 5.10059ZM99.9102 4.77832L98.7578 5.87695L98.2988 5.25684L99.9102 3.71387L100.691 3.37207V10.4082L99.9102 10.75V4.77832ZM104.461 5.53027V8.5918C104.461 8.69596 104.471 8.79525 104.49 8.88965L106.717 4.39258C106.473 4.21029 106.194 4.11914 105.882 4.11914C105.488 4.11914 105.153 4.25749 104.876 4.53418C104.599 4.80762 104.461 5.13965 104.461 5.53027ZM108.084 5.54492V8.57715C108.084 9.17611 107.869 9.6888 107.439 10.1152C107.01 10.5384 106.491 10.75 105.882 10.75C105.27 10.75 104.751 10.5384 104.324 10.1152C103.895 9.6888 103.68 9.17611 103.68 8.57715V5.54492C103.68 4.94596 103.895 4.4349 104.324 4.01172C104.754 3.58529 105.273 3.37207 105.882 3.37207C106.491 3.37207 107.01 3.58529 107.439 4.01172C107.869 4.4349 108.084 4.94596 108.084 5.54492ZM107.239 5.10059L104.974 9.67578C105.231 9.89388 105.534 10.0029 105.882 10.0029C106.269 10.0029 106.603 9.86458 106.883 9.58789C107.16 9.31445 107.299 8.98242 107.303 8.5918V5.53027C107.303 5.37728 107.282 5.23405 107.239 5.10059ZM110.076 5.53027V8.5918C110.076 8.69596 110.086 8.79525 110.105 8.88965L112.332 4.39258C112.088 4.21029 111.81 4.11914 111.497 4.11914C111.103 4.11914 110.768 4.25749 110.491 4.53418C110.215 4.80762 110.076 5.13965 110.076 5.53027ZM113.699 5.54492V8.57715C113.699 9.17611 113.484 9.6888 113.055 10.1152C112.625 10.5384 112.106 10.75 111.497 10.75C110.885 10.75 110.366 10.5384 109.939 10.1152C109.51 9.6888 109.295 9.17611 109.295 8.57715V5.54492C109.295 4.94596 109.51 4.4349 109.939 4.01172C110.369 3.58529 110.888 3.37207 111.497 3.37207C112.106 3.37207 112.625 3.58529 113.055 4.01172C113.484 4.4349 113.699 4.94596 113.699 5.54492ZM112.854 5.10059L110.589 9.67578C110.846 9.89388 111.149 10.0029 111.497 10.0029C111.884 10.0029 112.218 9.86458 112.498 9.58789C112.775 9.31445 112.915 8.98242 112.918 8.5918V5.53027C112.918 5.37728 112.897 5.23405 112.854 5.10059ZM116.756 4.77832L115.604 5.87695L115.145 5.25684L116.756 3.71387L117.537 3.37207V10.4082L116.756 10.75V4.77832ZM3.38672 19.5303V22.5918C3.38672 22.696 3.39648 22.7952 3.41602 22.8896L5.64258 18.3926C5.39844 18.2103 5.12012 18.1191 4.80762 18.1191C4.41374 18.1191 4.07845 18.2575 3.80176 18.5342C3.52507 18.8076 3.38672 19.1396 3.38672 19.5303ZM7.00977 19.5449V22.5771C7.00977 23.1761 6.79492 23.6888 6.36523 24.1152C5.93555 24.5384 5.41634 24.75 4.80762 24.75C4.19564 24.75 3.67643 24.5384 3.25 24.1152C2.82031 23.6888 2.60547 23.1761 2.60547 22.5771V19.5449C2.60547 18.946 2.82031 18.4349 3.25 18.0117C3.67969 17.5853 4.19889 17.3721 4.80762 17.3721C5.41634 17.3721 5.93555 17.5853 6.36523 18.0117C6.79492 18.4349 7.00977 18.946 7.00977 19.5449ZM6.16504 19.1006L3.89941 23.6758C4.15658 23.8939 4.45931 24.0029 4.80762 24.0029C5.19499 24.0029 5.52865 23.8646 5.80859 23.5879C6.08529 23.3145 6.22526 22.9824 6.22852 22.5918V19.5303C6.22852 19.3773 6.20736 19.234 6.16504 19.1006ZM10.0664 18.7783L8.91406 19.877L8.45508 19.2568L10.0664 17.7139L10.8477 17.3721V24.4082L10.0664 24.75V18.7783ZM14.6172 19.5303V22.5918C14.6172 22.696 14.627 22.7952 14.6465 22.8896L16.873 18.3926C16.6289 18.2103 16.3506 18.1191 16.0381 18.1191C15.6442 18.1191 15.3089 18.2575 15.0322 18.5342C14.7555 18.8076 14.6172 19.1396 14.6172 19.5303ZM18.2402 19.5449V22.5771C18.2402 23.1761 18.0254 23.6888 17.5957 24.1152C17.166 24.5384 16.6468 24.75 16.0381 24.75C15.4261 24.75 14.9069 24.5384 14.4805 24.1152C14.0508 23.6888 13.8359 23.1761 13.8359 22.5771V19.5449C13.8359 18.946 14.0508 18.4349 14.4805 18.0117C14.9102 17.5853 15.4294 17.3721 16.0381 17.3721C16.6468 17.3721 17.166 17.5853 17.5957 18.0117C18.0254 18.4349 18.2402 18.946 18.2402 19.5449ZM17.3955 19.1006L15.1299 23.6758C15.387 23.8939 15.6898 24.0029 16.0381 24.0029C16.4255 24.0029 16.7591 23.8646 17.0391 23.5879C17.3158 23.3145 17.4557 22.9824 17.459 22.5918V19.5303C17.459 19.3773 17.4378 19.234 17.3955 19.1006ZM21.2969 18.7783L20.1445 19.877L19.6855 19.2568L21.2969 17.7139L22.0781 17.3721V24.4082L21.2969 24.75V18.7783ZM25.8477 19.5303V22.5918C25.8477 22.696 25.8574 22.7952 25.877 22.8896L28.1035 18.3926C27.8594 18.2103 27.5811 18.1191 27.2686 18.1191C26.8747 18.1191 26.5394 18.2575 26.2627 18.5342C25.986 18.8076 25.8477 19.1396 25.8477 19.5303ZM29.4707 19.5449V22.5771C29.4707 23.1761 29.2559 23.6888 28.8262 24.1152C28.3965 24.5384 27.8773 24.75 27.2686 24.75C26.6566 24.75 26.1374 24.5384 25.7109 24.1152C25.2812 23.6888 25.0664 23.1761 25.0664 22.5771V19.5449C25.0664 18.946 25.2812 18.4349 25.7109 18.0117C26.1406 17.5853 26.6598 17.3721 27.2686 17.3721C27.8773 17.3721 28.3965 17.5853 28.8262 18.0117C29.2559 18.4349 29.4707 18.946 29.4707 19.5449ZM28.626 19.1006L26.3604 23.6758C26.6175 23.8939 26.9202 24.0029 27.2686 24.0029C27.6559 24.0029 27.9896 23.8646 28.2695 23.5879C28.5462 23.3145 28.6862 22.9824 28.6895 22.5918V19.5303C28.6895 19.3773 28.6683 19.234 28.626 19.1006ZM32.5273 18.7783L31.375 19.877L30.916 19.2568L32.5273 17.7139L33.3086 17.3721V24.4082L32.5273 24.75V18.7783ZM37.0781 19.5303V22.5918C37.0781 22.696 37.0879 22.7952 37.1074 22.8896L39.334 18.3926C39.0898 18.2103 38.8115 18.1191 38.499 18.1191C38.1051 18.1191 37.7699 18.2575 37.4932 18.5342C37.2165 18.8076 37.0781 19.1396 37.0781 19.5303ZM40.7012 19.5449V22.5771C40.7012 23.1761 40.4863 23.6888 40.0566 24.1152C39.627 24.5384 39.1077 24.75 38.499 24.75C37.887 24.75 37.3678 24.5384 36.9414 24.1152C36.5117 23.6888 36.2969 23.1761 36.2969 22.5771V19.5449C36.2969 18.946 36.5117 18.4349 36.9414 18.0117C37.3711 17.5853 37.8903 17.3721 38.499 17.3721C39.1077 17.3721 39.627 17.5853 40.0566 18.0117C40.4863 18.4349 40.7012 18.946 40.7012 19.5449ZM39.8564 19.1006L37.5908 23.6758C37.848 23.8939 38.1507 24.0029 38.499 24.0029C38.8864 24.0029 39.2201 23.8646 39.5 23.5879C39.7767 23.3145 39.9167 22.9824 39.9199 22.5918V19.5303C39.9199 19.3773 39.8988 19.234 39.8564 19.1006ZM42.6934 19.5303V22.5918C42.6934 22.696 42.7031 22.7952 42.7227 22.8896L44.9492 18.3926C44.7051 18.2103 44.4268 18.1191 44.1143 18.1191C43.7204 18.1191 43.3851 18.2575 43.1084 18.5342C42.8317 18.8076 42.6934 19.1396 42.6934 19.5303ZM46.3164 19.5449V22.5771C46.3164 23.1761 46.1016 23.6888 45.6719 24.1152C45.2422 24.5384 44.723 24.75 44.1143 24.75C43.5023 24.75 42.9831 24.5384 42.5566 24.1152C42.127 23.6888 41.9121 23.1761 41.9121 22.5771V19.5449C41.9121 18.946 42.127 18.4349 42.5566 18.0117C42.9863 17.5853 43.5055 17.3721 44.1143 17.3721C44.723 17.3721 45.2422 17.5853 45.6719 18.0117C46.1016 18.4349 46.3164 18.946 46.3164 19.5449ZM45.4717 19.1006L43.2061 23.6758C43.4632 23.8939 43.766 24.0029 44.1143 24.0029C44.5016 24.0029 44.8353 23.8646 45.1152 23.5879C45.3919 23.3145 45.5319 22.9824 45.5352 22.5918V19.5303C45.5352 19.3773 45.514 19.234 45.4717 19.1006ZM49.373 18.7783L48.2207 19.877L47.7617 19.2568L49.373 17.7139L50.1543 17.3721V24.4082L49.373 24.75V18.7783ZM53.9238 19.5303V22.5918C53.9238 22.696 53.9336 22.7952 53.9531 22.8896L56.1797 18.3926C55.9355 18.2103 55.6572 18.1191 55.3447 18.1191C54.9508 18.1191 54.6156 18.2575 54.3389 18.5342C54.0622 18.8076 53.9238 19.1396 53.9238 19.5303ZM57.5469 19.5449V22.5771C57.5469 23.1761 57.332 23.6888 56.9023 24.1152C56.4727 24.5384 55.9535 24.75 55.3447 24.75C54.7327 24.75 54.2135 24.5384 53.7871 24.1152C53.3574 23.6888 53.1426 23.1761 53.1426 22.5771V19.5449C53.1426 18.946 53.3574 18.4349 53.7871 18.0117C54.2168 17.5853 54.736 17.3721 55.3447 17.3721C55.9535 17.3721 56.4727 17.5853 56.9023 18.0117C57.332 18.4349 57.5469 18.946 57.5469 19.5449ZM56.7021 19.1006L54.4365 23.6758C54.6937 23.8939 54.9964 24.0029 55.3447 24.0029C55.7321 24.0029 56.0658 23.8646 56.3457 23.5879C56.6224 23.3145 56.7624 22.9824 56.7656 22.5918V19.5303C56.7656 19.3773 56.7445 19.234 56.7021 19.1006ZM59.5391 19.5303V22.5918C59.5391 22.696 59.5488 22.7952 59.5684 22.8896L61.7949 18.3926C61.5508 18.2103 61.2725 18.1191 60.96 18.1191C60.5661 18.1191 60.2308 18.2575 59.9541 18.5342C59.6774 18.8076 59.5391 19.1396 59.5391 19.5303ZM63.1621 19.5449V22.5771C63.1621 23.1761 62.9473 23.6888 62.5176 24.1152C62.0879 24.5384 61.5687 24.75 60.96 24.75C60.348 24.75 59.8288 24.5384 59.4023 24.1152C58.9727 23.6888 58.7578 23.1761 58.7578 22.5771V19.5449C58.7578 18.946 58.9727 18.4349 59.4023 18.0117C59.832 17.5853 60.3512 17.3721 60.96 17.3721C61.5687 17.3721 62.0879 17.5853 62.5176 18.0117C62.9473 18.4349 63.1621 18.946 63.1621 19.5449ZM62.3174 19.1006L60.0518 23.6758C60.3089 23.8939 60.6117 24.0029 60.96 24.0029C61.3473 24.0029 61.681 23.8646 61.9609 23.5879C62.2376 23.3145 62.3776 22.9824 62.3809 22.5918V19.5303C62.3809 19.3773 62.3597 19.234 62.3174 19.1006ZM66.2188 18.7783L65.0664 19.877L64.6074 19.2568L66.2188 17.7139L67 17.3721V24.4082L66.2188 24.75V18.7783ZM70.7695 19.5303V22.5918C70.7695 22.696 70.7793 22.7952 70.7988 22.8896L73.0254 18.3926C72.7812 18.2103 72.5029 18.1191 72.1904 18.1191C71.7965 18.1191 71.4613 18.2575 71.1846 18.5342C70.9079 18.8076 70.7695 19.1396 70.7695 19.5303ZM74.3926 19.5449V22.5771C74.3926 23.1761 74.1777 23.6888 73.748 24.1152C73.3184 24.5384 72.7992 24.75 72.1904 24.75C71.5785 24.75 71.0592 24.5384 70.6328 24.1152C70.2031 23.6888 69.9883 23.1761 69.9883 22.5771V19.5449C69.9883 18.946 70.2031 18.4349 70.6328 18.0117C71.0625 17.5853 71.5817 17.3721 72.1904 17.3721C72.7992 17.3721 73.3184 17.5853 73.748 18.0117C74.1777 18.4349 74.3926 18.946 74.3926 19.5449ZM73.5479 19.1006L71.2822 23.6758C71.5394 23.8939 71.8421 24.0029 72.1904 24.0029C72.5778 24.0029 72.9115 23.8646 73.1914 23.5879C73.4681 23.3145 73.6081 22.9824 73.6113 22.5918V19.5303C73.6113 19.3773 73.5902 19.234 73.5479 19.1006ZM77.4492 18.7783L76.2969 19.877L75.8379 19.2568L77.4492 17.7139L78.2305 17.3721V24.4082L77.4492 24.75V18.7783ZM82 19.5303V22.5918C82 22.696 82.0098 22.7952 82.0293 22.8896L84.2559 18.3926C84.0117 18.2103 83.7334 18.1191 83.4209 18.1191C83.027 18.1191 82.6917 18.2575 82.415 18.5342C82.1383 18.8076 82 19.1396 82 19.5303ZM85.623 19.5449V22.5771C85.623 23.1761 85.4082 23.6888 84.9785 24.1152C84.5488 24.5384 84.0296 24.75 83.4209 24.75C82.8089 24.75 82.2897 24.5384 81.8633 24.1152C81.4336 23.6888 81.2188 23.1761 81.2188 22.5771V19.5449C81.2188 18.946 81.4336 18.4349 81.8633 18.0117C82.293 17.5853 82.8122 17.3721 83.4209 17.3721C84.0296 17.3721 84.5488 17.5853 84.9785 18.0117C85.4082 18.4349 85.623 18.946 85.623 19.5449ZM84.7783 19.1006L82.5127 23.6758C82.7699 23.8939 83.0726 24.0029 83.4209 24.0029C83.8083 24.0029 84.1419 23.8646 84.4219 23.5879C84.6986 23.3145 84.8385 22.9824 84.8418 22.5918V19.5303C84.8418 19.3773 84.8206 19.234 84.7783 19.1006ZM88.6797 18.7783L87.5273 19.877L87.0684 19.2568L88.6797 17.7139L89.4609 17.3721V24.4082L88.6797 24.75V18.7783ZM93.2305 19.5303V22.5918C93.2305 22.696 93.2402 22.7952 93.2598 22.8896L95.4863 18.3926C95.2422 18.2103 94.9639 18.1191 94.6514 18.1191C94.2575 18.1191 93.9222 18.2575 93.6455 18.5342C93.3688 18.8076 93.2305 19.1396 93.2305 19.5303ZM96.8535 19.5449V22.5771C96.8535 23.1761 96.6387 23.6888 96.209 24.1152C95.7793 24.5384 95.2601 24.75 94.6514 24.75C94.0394 24.75 93.5202 24.5384 93.0938 24.1152C92.6641 23.6888 92.4492 23.1761 92.4492 22.5771V19.5449C92.4492 18.946 92.6641 18.4349 93.0938 18.0117C93.5234 17.5853 94.0426 17.3721 94.6514 17.3721C95.2601 17.3721 95.7793 17.5853 96.209 18.0117C96.6387 18.4349 96.8535 18.946 96.8535 19.5449ZM96.0088 19.1006L93.7432 23.6758C94.0003 23.8939 94.3031 24.0029 94.6514 24.0029C95.0387 24.0029 95.3724 23.8646 95.6523 23.5879C95.929 23.3145 96.069 22.9824 96.0723 22.5918V19.5303C96.0723 19.3773 96.0511 19.234 96.0088 19.1006ZM99.9102 18.7783L98.7578 19.877L98.2988 19.2568L99.9102 17.7139L100.691 17.3721V24.4082L99.9102 24.75V18.7783ZM104.461 19.5303V22.5918C104.461 22.696 104.471 22.7952 104.49 22.8896L106.717 18.3926C106.473 18.2103 106.194 18.1191 105.882 18.1191C105.488 18.1191 105.153 18.2575 104.876 18.5342C104.599 18.8076 104.461 19.1396 104.461 19.5303ZM108.084 19.5449V22.5771C108.084 23.1761 107.869 23.6888 107.439 24.1152C107.01 24.5384 106.491 24.75 105.882 24.75C105.27 24.75 104.751 24.5384 104.324 24.1152C103.895 23.6888 103.68 23.1761 103.68 22.5771V19.5449C103.68 18.946 103.895 18.4349 104.324 18.0117C104.754 17.5853 105.273 17.3721 105.882 17.3721C106.491 17.3721 107.01 17.5853 107.439 18.0117C107.869 18.4349 108.084 18.946 108.084 19.5449ZM107.239 19.1006L104.974 23.6758C105.231 23.8939 105.534 24.0029 105.882 24.0029C106.269 24.0029 106.603 23.8646 106.883 23.5879C107.16 23.3145 107.299 22.9824 107.303 22.5918V19.5303C107.303 19.3773 107.282 19.234 107.239 19.1006ZM111.141 18.7783L109.988 19.877L109.529 19.2568L111.141 17.7139L111.922 17.3721V24.4082L111.141 24.75V18.7783ZM115.691 19.5303V22.5918C115.691 22.696 115.701 22.7952 115.721 22.8896L117.947 18.3926C117.703 18.2103 117.425 18.1191 117.112 18.1191C116.718 18.1191 116.383 18.2575 116.106 18.5342C115.83 18.8076 115.691 19.1396 115.691 19.5303ZM119.314 19.5449V22.5771C119.314 23.1761 119.1 23.6888 118.67 24.1152C118.24 24.5384 117.721 24.75 117.112 24.75C116.5 24.75 115.981 24.5384 115.555 24.1152C115.125 23.6888 114.91 23.1761 114.91 22.5771V19.5449C114.91 18.946 115.125 18.4349 115.555 18.0117C115.984 17.5853 116.504 17.3721 117.112 17.3721C117.721 17.3721 118.24 17.5853 118.67 18.0117C119.1 18.4349 119.314 18.946 119.314 19.5449ZM118.47 19.1006L116.204 23.6758C116.461 23.8939 116.764 24.0029 117.112 24.0029C117.5 24.0029 117.833 23.8646 118.113 23.5879C118.39 23.3145 118.53 22.9824 118.533 22.5918V19.5303C118.533 19.3773 118.512 19.234 118.47 19.1006ZM4.45117 32.7783L3.29883 33.877L2.83984 33.2568L4.45117 31.7139L5.23242 31.3721V38.4082L4.45117 38.75V32.7783ZM9.00195 33.5303V36.5918C9.00195 36.696 9.01172 36.7952 9.03125 36.8896L11.2578 32.3926C11.0137 32.2103 10.7354 32.1191 10.4229 32.1191C10.029 32.1191 9.69368 32.2575 9.41699 32.5342C9.1403 32.8076 9.00195 33.1396 9.00195 33.5303ZM12.625 33.5449V36.5771C12.625 37.1761 12.4102 37.6888 11.9805 38.1152C11.5508 38.5384 11.0316 38.75 10.4229 38.75C9.81087 38.75 9.29167 38.5384 8.86523 38.1152C8.43555 37.6888 8.2207 37.1761 8.2207 36.5771V33.5449C8.2207 32.946 8.43555 32.4349 8.86523 32.0117C9.29492 31.5853 9.81413 31.3721 10.4229 31.3721C11.0316 31.3721 11.5508 31.5853 11.9805 32.0117C12.4102 32.4349 12.625 32.946 12.625 33.5449ZM11.7803 33.1006L9.51465 37.6758C9.77181 37.8939 10.0745 38.0029 10.4229 38.0029C10.8102 38.0029 11.1439 37.8646 11.4238 37.5879C11.7005 37.3145 11.8405 36.9824 11.8438 36.5918V33.5303C11.8438 33.3773 11.8226 33.234 11.7803 33.1006ZM15.6816 32.7783L14.5293 33.877L14.0703 33.2568L15.6816 31.7139L16.4629 31.3721V38.4082L15.6816 38.75V32.7783ZM21.2969 32.7783L20.1445 33.877L19.6855 33.2568L21.2969 31.7139L22.0781 31.3721V38.4082L21.2969 38.75V32.7783ZM25.8477 33.5303V36.5918C25.8477 36.696 25.8574 36.7952 25.877 36.8896L28.1035 32.3926C27.8594 32.2103 27.5811 32.1191 27.2686 32.1191C26.8747 32.1191 26.5394 32.2575 26.2627 32.5342C25.986 32.8076 25.8477 33.1396 25.8477 33.5303ZM29.4707 33.5449V36.5771C29.4707 37.1761 29.2559 37.6888 28.8262 38.1152C28.3965 38.5384 27.8773 38.75 27.2686 38.75C26.6566 38.75 26.1374 38.5384 25.7109 38.1152C25.2812 37.6888 25.0664 37.1761 25.0664 36.5771V33.5449C25.0664 32.946 25.2812 32.4349 25.7109 32.0117C26.1406 31.5853 26.6598 31.3721 27.2686 31.3721C27.8773 31.3721 28.3965 31.5853 28.8262 32.0117C29.2559 32.4349 29.4707 32.946 29.4707 33.5449ZM28.626 33.1006L26.3604 37.6758C26.6175 37.8939 26.9202 38.0029 27.2686 38.0029C27.6559 38.0029 27.9896 37.8646 28.2695 37.5879C28.5462 37.3145 28.6862 36.9824 28.6895 36.5918V33.5303C28.6895 33.3773 28.6683 33.234 28.626 33.1006ZM32.5273 32.7783L31.375 33.877L30.916 33.2568L32.5273 31.7139L33.3086 31.3721V38.4082L32.5273 38.75V32.7783ZM37.0781 33.5303V36.5918C37.0781 36.696 37.0879 36.7952 37.1074 36.8896L39.334 32.3926C39.0898 32.2103 38.8115 32.1191 38.499 32.1191C38.1051 32.1191 37.7699 32.2575 37.4932 32.5342C37.2165 32.8076 37.0781 33.1396 37.0781 33.5303ZM40.7012 33.5449V36.5771C40.7012 37.1761 40.4863 37.6888 40.0566 38.1152C39.627 38.5384 39.1077 38.75 38.499 38.75C37.887 38.75 37.3678 38.5384 36.9414 38.1152C36.5117 37.6888 36.2969 37.1761 36.2969 36.5771V33.5449C36.2969 32.946 36.5117 32.4349 36.9414 32.0117C37.3711 31.5853 37.8903 31.3721 38.499 31.3721C39.1077 31.3721 39.627 31.5853 40.0566 32.0117C40.4863 32.4349 40.7012 32.946 40.7012 33.5449ZM39.8564 33.1006L37.5908 37.6758C37.848 37.8939 38.1507 38.0029 38.499 38.0029C38.8864 38.0029 39.2201 37.8646 39.5 37.5879C39.7767 37.3145 39.9167 36.9824 39.9199 36.5918V33.5303C39.9199 33.3773 39.8988 33.234 39.8564 33.1006ZM43.7578 32.7783L42.6055 33.877L42.1465 33.2568L43.7578 31.7139L44.5391 31.3721V38.4082L43.7578 38.75V32.7783ZM48.3086 33.5303V36.5918C48.3086 36.696 48.3184 36.7952 48.3379 36.8896L50.5645 32.3926C50.3203 32.2103 50.042 32.1191 49.7295 32.1191C49.3356 32.1191 49.0003 32.2575 48.7236 32.5342C48.4469 32.8076 48.3086 33.1396 48.3086 33.5303ZM51.9316 33.5449V36.5771C51.9316 37.1761 51.7168 37.6888 51.2871 38.1152C50.8574 38.5384 50.3382 38.75 49.7295 38.75C49.1175 38.75 48.5983 38.5384 48.1719 38.1152C47.7422 37.6888 47.5273 37.1761 47.5273 36.5771V33.5449C47.5273 32.946 47.7422 32.4349 48.1719 32.0117C48.6016 31.5853 49.1208 31.3721 49.7295 31.3721C50.3382 31.3721 50.8574 31.5853 51.2871 32.0117C51.7168 32.4349 51.9316 32.946 51.9316 33.5449ZM51.0869 33.1006L48.8213 37.6758C49.0785 37.8939 49.3812 38.0029 49.7295 38.0029C50.1169 38.0029 50.4505 37.8646 50.7305 37.5879C51.0072 37.3145 51.1471 36.9824 51.1504 36.5918V33.5303C51.1504 33.3773 51.1292 33.234 51.0869 33.1006ZM54.9883 32.7783L53.8359 33.877L53.377 33.2568L54.9883 31.7139L55.7695 31.3721V38.4082L54.9883 38.75V32.7783ZM60.6035 32.7783L59.4512 33.877L58.9922 33.2568L60.6035 31.7139L61.3848 31.3721V38.4082L60.6035 38.75V32.7783ZM65.1543 33.5303V36.5918C65.1543 36.696 65.1641 36.7952 65.1836 36.8896L67.4102 32.3926C67.166 32.2103 66.8877 32.1191 66.5752 32.1191C66.1813 32.1191 65.846 32.2575 65.5693 32.5342C65.2926 32.8076 65.1543 33.1396 65.1543 33.5303ZM68.7773 33.5449V36.5771C68.7773 37.1761 68.5625 37.6888 68.1328 38.1152C67.7031 38.5384 67.1839 38.75 66.5752 38.75C65.9632 38.75 65.444 38.5384 65.0176 38.1152C64.5879 37.6888 64.373 37.1761 64.373 36.5771V33.5449C64.373 32.946 64.5879 32.4349 65.0176 32.0117C65.4473 31.5853 65.9665 31.3721 66.5752 31.3721C67.1839 31.3721 67.7031 31.5853 68.1328 32.0117C68.5625 32.4349 68.7773 32.946 68.7773 33.5449ZM67.9326 33.1006L65.667 37.6758C65.9242 37.8939 66.2269 38.0029 66.5752 38.0029C66.9626 38.0029 67.2962 37.8646 67.5762 37.5879C67.8529 37.3145 67.9928 36.9824 67.9961 36.5918V33.5303C67.9961 33.3773 67.9749 33.234 67.9326 33.1006ZM71.834 32.7783L70.6816 33.877L70.2227 33.2568L71.834 31.7139L72.6152 31.3721V38.4082L71.834 38.75V32.7783ZM77.4492 32.7783L76.2969 33.877L75.8379 33.2568L77.4492 31.7139L78.2305 31.3721V38.4082L77.4492 38.75V32.7783ZM82 33.5303V36.5918C82 36.696 82.0098 36.7952 82.0293 36.8896L84.2559 32.3926C84.0117 32.2103 83.7334 32.1191 83.4209 32.1191C83.027 32.1191 82.6917 32.2575 82.415 32.5342C82.1383 32.8076 82 33.1396 82 33.5303ZM85.623 33.5449V36.5771C85.623 37.1761 85.4082 37.6888 84.9785 38.1152C84.5488 38.5384 84.0296 38.75 83.4209 38.75C82.8089 38.75 82.2897 38.5384 81.8633 38.1152C81.4336 37.6888 81.2188 37.1761 81.2188 36.5771V33.5449C81.2188 32.946 81.4336 32.4349 81.8633 32.0117C82.293 31.5853 82.8122 31.3721 83.4209 31.3721C84.0296 31.3721 84.5488 31.5853 84.9785 32.0117C85.4082 32.4349 85.623 32.946 85.623 33.5449ZM84.7783 33.1006L82.5127 37.6758C82.7699 37.8939 83.0726 38.0029 83.4209 38.0029C83.8083 38.0029 84.1419 37.8646 84.4219 37.5879C84.6986 37.3145 84.8385 36.9824 84.8418 36.5918V33.5303C84.8418 33.3773 84.8206 33.234 84.7783 33.1006ZM88.6797 32.7783L87.5273 33.877L87.0684 33.2568L88.6797 31.7139L89.4609 31.3721V38.4082L88.6797 38.75V32.7783ZM93.2305 33.5303V36.5918C93.2305 36.696 93.2402 36.7952 93.2598 36.8896L95.4863 32.3926C95.2422 32.2103 94.9639 32.1191 94.6514 32.1191C94.2575 32.1191 93.9222 32.2575 93.6455 32.5342C93.3688 32.8076 93.2305 33.1396 93.2305 33.5303ZM96.8535 33.5449V36.5771C96.8535 37.1761 96.6387 37.6888 96.209 38.1152C95.7793 38.5384 95.2601 38.75 94.6514 38.75C94.0394 38.75 93.5202 38.5384 93.0938 38.1152C92.6641 37.6888 92.4492 37.1761 92.4492 36.5771V33.5449C92.4492 32.946 92.6641 32.4349 93.0938 32.0117C93.5234 31.5853 94.0426 31.3721 94.6514 31.3721C95.2601 31.3721 95.7793 31.5853 96.209 32.0117C96.6387 32.4349 96.8535 32.946 96.8535 33.5449ZM96.0088 33.1006L93.7432 37.6758C94.0003 37.8939 94.3031 38.0029 94.6514 38.0029C95.0387 38.0029 95.3724 37.8646 95.6523 37.5879C95.929 37.3145 96.069 36.9824 96.0723 36.5918V33.5303C96.0723 33.3773 96.0511 33.234 96.0088 33.1006ZM99.9102 32.7783L98.7578 33.877L98.2988 33.2568L99.9102 31.7139L100.691 31.3721V38.4082L99.9102 38.75V32.7783ZM104.461 33.5303V36.5918C104.461 36.696 104.471 36.7952 104.49 36.8896L106.717 32.3926C106.473 32.2103 106.194 32.1191 105.882 32.1191C105.488 32.1191 105.153 32.2575 104.876 32.5342C104.599 32.8076 104.461 33.1396 104.461 33.5303ZM108.084 33.5449V36.5771C108.084 37.1761 107.869 37.6888 107.439 38.1152C107.01 38.5384 106.491 38.75 105.882 38.75C105.27 38.75 104.751 38.5384 104.324 38.1152C103.895 37.6888 103.68 37.1761 103.68 36.5771V33.5449C103.68 32.946 103.895 32.4349 104.324 32.0117C104.754 31.5853 105.273 31.3721 105.882 31.3721C106.491 31.3721 107.01 31.5853 107.439 32.0117C107.869 32.4349 108.084 32.946 108.084 33.5449ZM107.239 33.1006L104.974 37.6758C105.231 37.8939 105.534 38.0029 105.882 38.0029C106.269 38.0029 106.603 37.8646 106.883 37.5879C107.16 37.3145 107.299 36.9824 107.303 36.5918V33.5303C107.303 33.3773 107.282 33.234 107.239 33.1006ZM111.141 32.7783L109.988 33.877L109.529 33.2568L111.141 31.7139L111.922 31.3721V38.4082L111.141 38.75V32.7783ZM115.691 33.5303V36.5918C115.691 36.696 115.701 36.7952 115.721 36.8896L117.947 32.3926C117.703 32.2103 117.425 32.1191 117.112 32.1191C116.718 32.1191 116.383 32.2575 116.106 32.5342C115.83 32.8076 115.691 33.1396 115.691 33.5303ZM119.314 33.5449V36.5771C119.314 37.1761 119.1 37.6888 118.67 38.1152C118.24 38.5384 117.721 38.75 117.112 38.75C116.5 38.75 115.981 38.5384 115.555 38.1152C115.125 37.6888 114.91 37.1761 114.91 36.5771V33.5449C114.91 32.946 115.125 32.4349 115.555 32.0117C115.984 31.5853 116.504 31.3721 117.112 31.3721C117.721 31.3721 118.24 31.5853 118.67 32.0117C119.1 32.4349 119.314 32.946 119.314 33.5449ZM118.47 33.1006L116.204 37.6758C116.461 37.8939 116.764 38.0029 117.112 38.0029C117.5 38.0029 117.833 37.8646 118.113 37.5879C118.39 37.3145 118.53 36.9824 118.533 36.5918V33.5303C118.533 33.3773 118.512 33.234 118.47 33.1006ZM4.45117 46.7783L3.29883 47.877L2.83984 47.2568L4.45117 45.7139L5.23242 45.3721V52.4082L4.45117 52.75V46.7783ZM9.00195 47.5303V50.5918C9.00195 50.696 9.01172 50.7952 9.03125 50.8896L11.2578 46.3926C11.0137 46.2103 10.7354 46.1191 10.4229 46.1191C10.029 46.1191 9.69368 46.2575 9.41699 46.5342C9.1403 46.8076 9.00195 47.1396 9.00195 47.5303ZM12.625 47.5449V50.5771C12.625 51.1761 12.4102 51.6888 11.9805 52.1152C11.5508 52.5384 11.0316 52.75 10.4229 52.75C9.81087 52.75 9.29167 52.5384 8.86523 52.1152C8.43555 51.6888 8.2207 51.1761 8.2207 50.5771V47.5449C8.2207 46.946 8.43555 46.4349 8.86523 46.0117C9.29492 45.5853 9.81413 45.3721 10.4229 45.3721C11.0316 45.3721 11.5508 45.5853 11.9805 46.0117C12.4102 46.4349 12.625 46.946 12.625 47.5449ZM11.7803 47.1006L9.51465 51.6758C9.77181 51.8939 10.0745 52.0029 10.4229 52.0029C10.8102 52.0029 11.1439 51.8646 11.4238 51.5879C11.7005 51.3145 11.8405 50.9824 11.8438 50.5918V47.5303C11.8438 47.3773 11.8226 47.234 11.7803 47.1006ZM15.6816 46.7783L14.5293 47.877L14.0703 47.2568L15.6816 45.7139L16.4629 45.3721V52.4082L15.6816 52.75V46.7783ZM20.2324 47.5303V50.5918C20.2324 50.696 20.2422 50.7952 20.2617 50.8896L22.4883 46.3926C22.2441 46.2103 21.9658 46.1191 21.6533 46.1191C21.2594 46.1191 20.9242 46.2575 20.6475 46.5342C20.3708 46.8076 20.2324 47.1396 20.2324 47.5303ZM23.8555 47.5449V50.5771C23.8555 51.1761 23.6406 51.6888 23.2109 52.1152C22.7812 52.5384 22.262 52.75 21.6533 52.75C21.0413 52.75 20.5221 52.5384 20.0957 52.1152C19.666 51.6888 19.4512 51.1761 19.4512 50.5771V47.5449C19.4512 46.946 19.666 46.4349 20.0957 46.0117C20.5254 45.5853 21.0446 45.3721 21.6533 45.3721C22.262 45.3721 22.7812 45.5853 23.2109 46.0117C23.6406 46.4349 23.8555 46.946 23.8555 47.5449ZM23.0107 47.1006L20.7451 51.6758C21.0023 51.8939 21.305 52.0029 21.6533 52.0029C22.0407 52.0029 22.3743 51.8646 22.6543 51.5879C22.931 51.3145 23.071 50.9824 23.0742 50.5918V47.5303C23.0742 47.3773 23.0531 47.234 23.0107 47.1006ZM26.9121 46.7783L25.7598 47.877L25.3008 47.2568L26.9121 45.7139L27.6934 45.3721V52.4082L26.9121 52.75V46.7783ZM31.4629 47.5303V50.5918C31.4629 50.696 31.4727 50.7952 31.4922 50.8896L33.7188 46.3926C33.4746 46.2103 33.1963 46.1191 32.8838 46.1191C32.4899 46.1191 32.1546 46.2575 31.8779 46.5342C31.6012 46.8076 31.4629 47.1396 31.4629 47.5303ZM35.0859 47.5449V50.5771C35.0859 51.1761 34.8711 51.6888 34.4414 52.1152C34.0117 52.5384 33.4925 52.75 32.8838 52.75C32.2718 52.75 31.7526 52.5384 31.3262 52.1152C30.8965 51.6888 30.6816 51.1761 30.6816 50.5771V47.5449C30.6816 46.946 30.8965 46.4349 31.3262 46.0117C31.7559 45.5853 32.2751 45.3721 32.8838 45.3721C33.4925 45.3721 34.0117 45.5853 34.4414 46.0117C34.8711 46.4349 35.0859 46.946 35.0859 47.5449ZM34.2412 47.1006L31.9756 51.6758C32.2327 51.8939 32.5355 52.0029 32.8838 52.0029C33.2712 52.0029 33.6048 51.8646 33.8848 51.5879C34.1615 51.3145 34.3014 50.9824 34.3047 50.5918V47.5303C34.3047 47.3773 34.2835 47.234 34.2412 47.1006ZM37.0781 47.5303V50.5918C37.0781 50.696 37.0879 50.7952 37.1074 50.8896L39.334 46.3926C39.0898 46.2103 38.8115 46.1191 38.499 46.1191C38.1051 46.1191 37.7699 46.2575 37.4932 46.5342C37.2165 46.8076 37.0781 47.1396 37.0781 47.5303ZM40.7012 47.5449V50.5771C40.7012 51.1761 40.4863 51.6888 40.0566 52.1152C39.627 52.5384 39.1077 52.75 38.499 52.75C37.887 52.75 37.3678 52.5384 36.9414 52.1152C36.5117 51.6888 36.2969 51.1761 36.2969 50.5771V47.5449C36.2969 46.946 36.5117 46.4349 36.9414 46.0117C37.3711 45.5853 37.8903 45.3721 38.499 45.3721C39.1077 45.3721 39.627 45.5853 40.0566 46.0117C40.4863 46.4349 40.7012 46.946 40.7012 47.5449ZM39.8564 47.1006L37.5908 51.6758C37.848 51.8939 38.1507 52.0029 38.499 52.0029C38.8864 52.0029 39.2201 51.8646 39.5 51.5879C39.7767 51.3145 39.9167 50.9824 39.9199 50.5918V47.5303C39.9199 47.3773 39.8988 47.234 39.8564 47.1006ZM43.7578 46.7783L42.6055 47.877L42.1465 47.2568L43.7578 45.7139L44.5391 45.3721V52.4082L43.7578 52.75V46.7783ZM48.3086 47.5303V50.5918C48.3086 50.696 48.3184 50.7952 48.3379 50.8896L50.5645 46.3926C50.3203 46.2103 50.042 46.1191 49.7295 46.1191C49.3356 46.1191 49.0003 46.2575 48.7236 46.5342C48.4469 46.8076 48.3086 47.1396 48.3086 47.5303ZM51.9316 47.5449V50.5771C51.9316 51.1761 51.7168 51.6888 51.2871 52.1152C50.8574 52.5384 50.3382 52.75 49.7295 52.75C49.1175 52.75 48.5983 52.5384 48.1719 52.1152C47.7422 51.6888 47.5273 51.1761 47.5273 50.5771V47.5449C47.5273 46.946 47.7422 46.4349 48.1719 46.0117C48.6016 45.5853 49.1208 45.3721 49.7295 45.3721C50.3382 45.3721 50.8574 45.5853 51.2871 46.0117C51.7168 46.4349 51.9316 46.946 51.9316 47.5449ZM51.0869 47.1006L48.8213 51.6758C49.0785 51.8939 49.3812 52.0029 49.7295 52.0029C50.1169 52.0029 50.4505 51.8646 50.7305 51.5879C51.0072 51.3145 51.1471 50.9824 51.1504 50.5918V47.5303C51.1504 47.3773 51.1292 47.234 51.0869 47.1006ZM54.9883 46.7783L53.8359 47.877L53.377 47.2568L54.9883 45.7139L55.7695 45.3721V52.4082L54.9883 52.75V46.7783ZM59.5391 47.5303V50.5918C59.5391 50.696 59.5488 50.7952 59.5684 50.8896L61.7949 46.3926C61.5508 46.2103 61.2725 46.1191 60.96 46.1191C60.5661 46.1191 60.2308 46.2575 59.9541 46.5342C59.6774 46.8076 59.5391 47.1396 59.5391 47.5303ZM63.1621 47.5449V50.5771C63.1621 51.1761 62.9473 51.6888 62.5176 52.1152C62.0879 52.5384 61.5687 52.75 60.96 52.75C60.348 52.75 59.8288 52.5384 59.4023 52.1152C58.9727 51.6888 58.7578 51.1761 58.7578 50.5771V47.5449C58.7578 46.946 58.9727 46.4349 59.4023 46.0117C59.832 45.5853 60.3512 45.3721 60.96 45.3721C61.5687 45.3721 62.0879 45.5853 62.5176 46.0117C62.9473 46.4349 63.1621 46.946 63.1621 47.5449ZM62.3174 47.1006L60.0518 51.6758C60.3089 51.8939 60.6117 52.0029 60.96 52.0029C61.3473 52.0029 61.681 51.8646 61.9609 51.5879C62.2376 51.3145 62.3776 50.9824 62.3809 50.5918V47.5303C62.3809 47.3773 62.3597 47.234 62.3174 47.1006ZM66.2188 46.7783L65.0664 47.877L64.6074 47.2568L66.2188 45.7139L67 45.3721V52.4082L66.2188 52.75V46.7783ZM70.7695 47.5303V50.5918C70.7695 50.696 70.7793 50.7952 70.7988 50.8896L73.0254 46.3926C72.7812 46.2103 72.5029 46.1191 72.1904 46.1191C71.7965 46.1191 71.4613 46.2575 71.1846 46.5342C70.9079 46.8076 70.7695 47.1396 70.7695 47.5303ZM74.3926 47.5449V50.5771C74.3926 51.1761 74.1777 51.6888 73.748 52.1152C73.3184 52.5384 72.7992 52.75 72.1904 52.75C71.5785 52.75 71.0592 52.5384 70.6328 52.1152C70.2031 51.6888 69.9883 51.1761 69.9883 50.5771V47.5449C69.9883 46.946 70.2031 46.4349 70.6328 46.0117C71.0625 45.5853 71.5817 45.3721 72.1904 45.3721C72.7992 45.3721 73.3184 45.5853 73.748 46.0117C74.1777 46.4349 74.3926 46.946 74.3926 47.5449ZM73.5479 47.1006L71.2822 51.6758C71.5394 51.8939 71.8421 52.0029 72.1904 52.0029C72.5778 52.0029 72.9115 51.8646 73.1914 51.5879C73.4681 51.3145 73.6081 50.9824 73.6113 50.5918V47.5303C73.6113 47.3773 73.5902 47.234 73.5479 47.1006ZM77.4492 46.7783L76.2969 47.877L75.8379 47.2568L77.4492 45.7139L78.2305 45.3721V52.4082L77.4492 52.75V46.7783ZM82 47.5303V50.5918C82 50.696 82.0098 50.7952 82.0293 50.8896L84.2559 46.3926C84.0117 46.2103 83.7334 46.1191 83.4209 46.1191C83.027 46.1191 82.6917 46.2575 82.415 46.5342C82.1383 46.8076 82 47.1396 82 47.5303ZM85.623 47.5449V50.5771C85.623 51.1761 85.4082 51.6888 84.9785 52.1152C84.5488 52.5384 84.0296 52.75 83.4209 52.75C82.8089 52.75 82.2897 52.5384 81.8633 52.1152C81.4336 51.6888 81.2188 51.1761 81.2188 50.5771V47.5449C81.2188 46.946 81.4336 46.4349 81.8633 46.0117C82.293 45.5853 82.8122 45.3721 83.4209 45.3721C84.0296 45.3721 84.5488 45.5853 84.9785 46.0117C85.4082 46.4349 85.623 46.946 85.623 47.5449ZM84.7783 47.1006L82.5127 51.6758C82.7699 51.8939 83.0726 52.0029 83.4209 52.0029C83.8083 52.0029 84.1419 51.8646 84.4219 51.5879C84.6986 51.3145 84.8385 50.9824 84.8418 50.5918V47.5303C84.8418 47.3773 84.8206 47.234 84.7783 47.1006ZM87.6152 47.5303V50.5918C87.6152 50.696 87.625 50.7952 87.6445 50.8896L89.8711 46.3926C89.627 46.2103 89.3486 46.1191 89.0361 46.1191C88.6423 46.1191 88.307 46.2575 88.0303 46.5342C87.7536 46.8076 87.6152 47.1396 87.6152 47.5303ZM91.2383 47.5449V50.5771C91.2383 51.1761 91.0234 51.6888 90.5938 52.1152C90.1641 52.5384 89.6449 52.75 89.0361 52.75C88.4242 52.75 87.9049 52.5384 87.4785 52.1152C87.0488 51.6888 86.834 51.1761 86.834 50.5771V47.5449C86.834 46.946 87.0488 46.4349 87.4785 46.0117C87.9082 45.5853 88.4274 45.3721 89.0361 45.3721C89.6449 45.3721 90.1641 45.5853 90.5938 46.0117C91.0234 46.4349 91.2383 46.946 91.2383 47.5449ZM90.3936 47.1006L88.1279 51.6758C88.3851 51.8939 88.6878 52.0029 89.0361 52.0029C89.4235 52.0029 89.7572 51.8646 90.0371 51.5879C90.3138 51.3145 90.4538 50.9824 90.457 50.5918V47.5303C90.457 47.3773 90.4359 47.234 90.3936 47.1006ZM94.2949 46.7783L93.1426 47.877L92.6836 47.2568L94.2949 45.7139L95.0762 45.3721V52.4082L94.2949 52.75V46.7783ZM98.8457 47.5303V50.5918C98.8457 50.696 98.8555 50.7952 98.875 50.8896L101.102 46.3926C100.857 46.2103 100.579 46.1191 100.267 46.1191C99.8727 46.1191 99.5374 46.2575 99.2607 46.5342C98.984 46.8076 98.8457 47.1396 98.8457 47.5303ZM102.469 47.5449V50.5771C102.469 51.1761 102.254 51.6888 101.824 52.1152C101.395 52.5384 100.875 52.75 100.267 52.75C99.6546 52.75 99.1354 52.5384 98.709 52.1152C98.2793 51.6888 98.0645 51.1761 98.0645 50.5771V47.5449C98.0645 46.946 98.2793 46.4349 98.709 46.0117C99.1387 45.5853 99.6579 45.3721 100.267 45.3721C100.875 45.3721 101.395 45.5853 101.824 46.0117C102.254 46.4349 102.469 46.946 102.469 47.5449ZM101.624 47.1006L99.3584 51.6758C99.6156 51.8939 99.9183 52.0029 100.267 52.0029C100.654 52.0029 100.988 51.8646 101.268 51.5879C101.544 51.3145 101.684 50.9824 101.688 50.5918V47.5303C101.688 47.3773 101.666 47.234 101.624 47.1006ZM104.461 47.5303V50.5918C104.461 50.696 104.471 50.7952 104.49 50.8896L106.717 46.3926C106.473 46.2103 106.194 46.1191 105.882 46.1191C105.488 46.1191 105.153 46.2575 104.876 46.5342C104.599 46.8076 104.461 47.1396 104.461 47.5303ZM108.084 47.5449V50.5771C108.084 51.1761 107.869 51.6888 107.439 52.1152C107.01 52.5384 106.491 52.75 105.882 52.75C105.27 52.75 104.751 52.5384 104.324 52.1152C103.895 51.6888 103.68 51.1761 103.68 50.5771V47.5449C103.68 46.946 103.895 46.4349 104.324 46.0117C104.754 45.5853 105.273 45.3721 105.882 45.3721C106.491 45.3721 107.01 45.5853 107.439 46.0117C107.869 46.4349 108.084 46.946 108.084 47.5449ZM107.239 47.1006L104.974 51.6758C105.231 51.8939 105.534 52.0029 105.882 52.0029C106.269 52.0029 106.603 51.8646 106.883 51.5879C107.16 51.3145 107.299 50.9824 107.303 50.5918V47.5303C107.303 47.3773 107.282 47.234 107.239 47.1006ZM111.141 46.7783L109.988 47.877L109.529 47.2568L111.141 45.7139L111.922 45.3721V52.4082L111.141 52.75V46.7783ZM115.691 47.5303V50.5918C115.691 50.696 115.701 50.7952 115.721 50.8896L117.947 46.3926C117.703 46.2103 117.425 46.1191 117.112 46.1191C116.718 46.1191 116.383 46.2575 116.106 46.5342C115.83 46.8076 115.691 47.1396 115.691 47.5303ZM119.314 47.5449V50.5771C119.314 51.1761 119.1 51.6888 118.67 52.1152C118.24 52.5384 117.721 52.75 117.112 52.75C116.5 52.75 115.981 52.5384 115.555 52.1152C115.125 51.6888 114.91 51.1761 114.91 50.5771V47.5449C114.91 46.946 115.125 46.4349 115.555 46.0117C115.984 45.5853 116.504 45.3721 117.112 45.3721C117.721 45.3721 118.24 45.5853 118.67 46.0117C119.1 46.4349 119.314 46.946 119.314 47.5449ZM118.47 47.1006L116.204 51.6758C116.461 51.8939 116.764 52.0029 117.112 52.0029C117.5 52.0029 117.833 51.8646 118.113 51.5879C118.39 51.3145 118.53 50.9824 118.533 50.5918V47.5303C118.533 47.3773 118.512 47.234 118.47 47.1006ZM4.45117 60.7783L3.29883 61.877L2.83984 61.2568L4.45117 59.7139L5.23242 59.3721V66.4082L4.45117 66.75V60.7783ZM9.00195 61.5303V64.5918C9.00195 64.696 9.01172 64.7952 9.03125 64.8896L11.2578 60.3926C11.0137 60.2103 10.7354 60.1191 10.4229 60.1191C10.029 60.1191 9.69368 60.2575 9.41699 60.5342C9.1403 60.8076 9.00195 61.1396 9.00195 61.5303ZM12.625 61.5449V64.5771C12.625 65.1761 12.4102 65.6888 11.9805 66.1152C11.5508 66.5384 11.0316 66.75 10.4229 66.75C9.81087 66.75 9.29167 66.5384 8.86523 66.1152C8.43555 65.6888 8.2207 65.1761 8.2207 64.5771V61.5449C8.2207 60.946 8.43555 60.4349 8.86523 60.0117C9.29492 59.5853 9.81413 59.3721 10.4229 59.3721C11.0316 59.3721 11.5508 59.5853 11.9805 60.0117C12.4102 60.4349 12.625 60.946 12.625 61.5449ZM11.7803 61.1006L9.51465 65.6758C9.77181 65.8939 10.0745 66.0029 10.4229 66.0029C10.8102 66.0029 11.1439 65.8646 11.4238 65.5879C11.7005 65.3145 11.8405 64.9824 11.8438 64.5918V61.5303C11.8438 61.3773 11.8226 61.234 11.7803 61.1006ZM15.6816 60.7783L14.5293 61.877L14.0703 61.2568L15.6816 59.7139L16.4629 59.3721V66.4082L15.6816 66.75V60.7783ZM20.2324 61.5303V64.5918C20.2324 64.696 20.2422 64.7952 20.2617 64.8896L22.4883 60.3926C22.2441 60.2103 21.9658 60.1191 21.6533 60.1191C21.2594 60.1191 20.9242 60.2575 20.6475 60.5342C20.3708 60.8076 20.2324 61.1396 20.2324 61.5303ZM23.8555 61.5449V64.5771C23.8555 65.1761 23.6406 65.6888 23.2109 66.1152C22.7812 66.5384 22.262 66.75 21.6533 66.75C21.0413 66.75 20.5221 66.5384 20.0957 66.1152C19.666 65.6888 19.4512 65.1761 19.4512 64.5771V61.5449C19.4512 60.946 19.666 60.4349 20.0957 60.0117C20.5254 59.5853 21.0446 59.3721 21.6533 59.3721C22.262 59.3721 22.7812 59.5853 23.2109 60.0117C23.6406 60.4349 23.8555 60.946 23.8555 61.5449ZM23.0107 61.1006L20.7451 65.6758C21.0023 65.8939 21.305 66.0029 21.6533 66.0029C22.0407 66.0029 22.3743 65.8646 22.6543 65.5879C22.931 65.3145 23.071 64.9824 23.0742 64.5918V61.5303C23.0742 61.3773 23.0531 61.234 23.0107 61.1006ZM26.9121 60.7783L25.7598 61.877L25.3008 61.2568L26.9121 59.7139L27.6934 59.3721V66.4082L26.9121 66.75V60.7783ZM31.4629 61.5303V64.5918C31.4629 64.696 31.4727 64.7952 31.4922 64.8896L33.7188 60.3926C33.4746 60.2103 33.1963 60.1191 32.8838 60.1191C32.4899 60.1191 32.1546 60.2575 31.8779 60.5342C31.6012 60.8076 31.4629 61.1396 31.4629 61.5303ZM35.0859 61.5449V64.5771C35.0859 65.1761 34.8711 65.6888 34.4414 66.1152C34.0117 66.5384 33.4925 66.75 32.8838 66.75C32.2718 66.75 31.7526 66.5384 31.3262 66.1152C30.8965 65.6888 30.6816 65.1761 30.6816 64.5771V61.5449C30.6816 60.946 30.8965 60.4349 31.3262 60.0117C31.7559 59.5853 32.2751 59.3721 32.8838 59.3721C33.4925 59.3721 34.0117 59.5853 34.4414 60.0117C34.8711 60.4349 35.0859 60.946 35.0859 61.5449ZM34.2412 61.1006L31.9756 65.6758C32.2327 65.8939 32.5355 66.0029 32.8838 66.0029C33.2712 66.0029 33.6048 65.8646 33.8848 65.5879C34.1615 65.3145 34.3014 64.9824 34.3047 64.5918V61.5303C34.3047 61.3773 34.2835 61.234 34.2412 61.1006ZM38.1426 60.7783L36.9902 61.877L36.5312 61.2568L38.1426 59.7139L38.9238 59.3721V66.4082L38.1426 66.75V60.7783ZM42.6934 61.5303V64.5918C42.6934 64.696 42.7031 64.7952 42.7227 64.8896L44.9492 60.3926C44.7051 60.2103 44.4268 60.1191 44.1143 60.1191C43.7204 60.1191 43.3851 60.2575 43.1084 60.5342C42.8317 60.8076 42.6934 61.1396 42.6934 61.5303ZM46.3164 61.5449V64.5771C46.3164 65.1761 46.1016 65.6888 45.6719 66.1152C45.2422 66.5384 44.723 66.75 44.1143 66.75C43.5023 66.75 42.9831 66.5384 42.5566 66.1152C42.127 65.6888 41.9121 65.1761 41.9121 64.5771V61.5449C41.9121 60.946 42.127 60.4349 42.5566 60.0117C42.9863 59.5853 43.5055 59.3721 44.1143 59.3721C44.723 59.3721 45.2422 59.5853 45.6719 60.0117C46.1016 60.4349 46.3164 60.946 46.3164 61.5449ZM45.4717 61.1006L43.2061 65.6758C43.4632 65.8939 43.766 66.0029 44.1143 66.0029C44.5016 66.0029 44.8353 65.8646 45.1152 65.5879C45.3919 65.3145 45.5319 64.9824 45.5352 64.5918V61.5303C45.5352 61.3773 45.514 61.234 45.4717 61.1006ZM49.373 60.7783L48.2207 61.877L47.7617 61.2568L49.373 59.7139L50.1543 59.3721V66.4082L49.373 66.75V60.7783ZM53.9238 61.5303V64.5918C53.9238 64.696 53.9336 64.7952 53.9531 64.8896L56.1797 60.3926C55.9355 60.2103 55.6572 60.1191 55.3447 60.1191C54.9508 60.1191 54.6156 60.2575 54.3389 60.5342C54.0622 60.8076 53.9238 61.1396 53.9238 61.5303ZM57.5469 61.5449V64.5771C57.5469 65.1761 57.332 65.6888 56.9023 66.1152C56.4727 66.5384 55.9535 66.75 55.3447 66.75C54.7327 66.75 54.2135 66.5384 53.7871 66.1152C53.3574 65.6888 53.1426 65.1761 53.1426 64.5771V61.5449C53.1426 60.946 53.3574 60.4349 53.7871 60.0117C54.2168 59.5853 54.736 59.3721 55.3447 59.3721C55.9535 59.3721 56.4727 59.5853 56.9023 60.0117C57.332 60.4349 57.5469 60.946 57.5469 61.5449ZM56.7021 61.1006L54.4365 65.6758C54.6937 65.8939 54.9964 66.0029 55.3447 66.0029C55.7321 66.0029 56.0658 65.8646 56.3457 65.5879C56.6224 65.3145 56.7624 64.9824 56.7656 64.5918V61.5303C56.7656 61.3773 56.7445 61.234 56.7021 61.1006ZM60.6035 60.7783L59.4512 61.877L58.9922 61.2568L60.6035 59.7139L61.3848 59.3721V66.4082L60.6035 66.75V60.7783ZM66.2188 60.7783L65.0664 61.877L64.6074 61.2568L66.2188 59.7139L67 59.3721V66.4082L66.2188 66.75V60.7783ZM70.7695 61.5303V64.5918C70.7695 64.696 70.7793 64.7952 70.7988 64.8896L73.0254 60.3926C72.7812 60.2103 72.5029 60.1191 72.1904 60.1191C71.7965 60.1191 71.4613 60.2575 71.1846 60.5342C70.9079 60.8076 70.7695 61.1396 70.7695 61.5303ZM74.3926 61.5449V64.5771C74.3926 65.1761 74.1777 65.6888 73.748 66.1152C73.3184 66.5384 72.7992 66.75 72.1904 66.75C71.5785 66.75 71.0592 66.5384 70.6328 66.1152C70.2031 65.6888 69.9883 65.1761 69.9883 64.5771V61.5449C69.9883 60.946 70.2031 60.4349 70.6328 60.0117C71.0625 59.5853 71.5817 59.3721 72.1904 59.3721C72.7992 59.3721 73.3184 59.5853 73.748 60.0117C74.1777 60.4349 74.3926 60.946 74.3926 61.5449ZM73.5479 61.1006L71.2822 65.6758C71.5394 65.8939 71.8421 66.0029 72.1904 66.0029C72.5778 66.0029 72.9115 65.8646 73.1914 65.5879C73.4681 65.3145 73.6081 64.9824 73.6113 64.5918V61.5303C73.6113 61.3773 73.5902 61.234 73.5479 61.1006ZM77.4492 60.7783L76.2969 61.877L75.8379 61.2568L77.4492 59.7139L78.2305 59.3721V66.4082L77.4492 66.75V60.7783ZM82 61.5303V64.5918C82 64.696 82.0098 64.7952 82.0293 64.8896L84.2559 60.3926C84.0117 60.2103 83.7334 60.1191 83.4209 60.1191C83.027 60.1191 82.6917 60.2575 82.415 60.5342C82.1383 60.8076 82 61.1396 82 61.5303ZM85.623 61.5449V64.5771C85.623 65.1761 85.4082 65.6888 84.9785 66.1152C84.5488 66.5384 84.0296 66.75 83.4209 66.75C82.8089 66.75 82.2897 66.5384 81.8633 66.1152C81.4336 65.6888 81.2188 65.1761 81.2188 64.5771V61.5449C81.2188 60.946 81.4336 60.4349 81.8633 60.0117C82.293 59.5853 82.8122 59.3721 83.4209 59.3721C84.0296 59.3721 84.5488 59.5853 84.9785 60.0117C85.4082 60.4349 85.623 60.946 85.623 61.5449ZM84.7783 61.1006L82.5127 65.6758C82.7699 65.8939 83.0726 66.0029 83.4209 66.0029C83.8083 66.0029 84.1419 65.8646 84.4219 65.5879C84.6986 65.3145 84.8385 64.9824 84.8418 64.5918V61.5303C84.8418 61.3773 84.8206 61.234 84.7783 61.1006ZM88.6797 60.7783L87.5273 61.877L87.0684 61.2568L88.6797 59.7139L89.4609 59.3721V66.4082L88.6797 66.75V60.7783ZM93.2305 61.5303V64.5918C93.2305 64.696 93.2402 64.7952 93.2598 64.8896L95.4863 60.3926C95.2422 60.2103 94.9639 60.1191 94.6514 60.1191C94.2575 60.1191 93.9222 60.2575 93.6455 60.5342C93.3688 60.8076 93.2305 61.1396 93.2305 61.5303ZM96.8535 61.5449V64.5771C96.8535 65.1761 96.6387 65.6888 96.209 66.1152C95.7793 66.5384 95.2601 66.75 94.6514 66.75C94.0394 66.75 93.5202 66.5384 93.0938 66.1152C92.6641 65.6888 92.4492 65.1761 92.4492 64.5771V61.5449C92.4492 60.946 92.6641 60.4349 93.0938 60.0117C93.5234 59.5853 94.0426 59.3721 94.6514 59.3721C95.2601 59.3721 95.7793 59.5853 96.209 60.0117C96.6387 60.4349 96.8535 60.946 96.8535 61.5449ZM96.0088 61.1006L93.7432 65.6758C94.0003 65.8939 94.3031 66.0029 94.6514 66.0029C95.0387 66.0029 95.3724 65.8646 95.6523 65.5879C95.929 65.3145 96.069 64.9824 96.0723 64.5918V61.5303C96.0723 61.3773 96.0511 61.234 96.0088 61.1006ZM99.9102 60.7783L98.7578 61.877L98.2988 61.2568L99.9102 59.7139L100.691 59.3721V66.4082L99.9102 66.75V60.7783ZM105.525 60.7783L104.373 61.877L103.914 61.2568L105.525 59.7139L106.307 59.3721V66.4082L105.525 66.75V60.7783ZM110.076 61.5303V64.5918C110.076 64.696 110.086 64.7952 110.105 64.8896L112.332 60.3926C112.088 60.2103 111.81 60.1191 111.497 60.1191C111.103 60.1191 110.768 60.2575 110.491 60.5342C110.215 60.8076 110.076 61.1396 110.076 61.5303ZM113.699 61.5449V64.5771C113.699 65.1761 113.484 65.6888 113.055 66.1152C112.625 66.5384 112.106 66.75 111.497 66.75C110.885 66.75 110.366 66.5384 109.939 66.1152C109.51 65.6888 109.295 65.1761 109.295 64.5771V61.5449C109.295 60.946 109.51 60.4349 109.939 60.0117C110.369 59.5853 110.888 59.3721 111.497 59.3721C112.106 59.3721 112.625 59.5853 113.055 60.0117C113.484 60.4349 113.699 60.946 113.699 61.5449ZM112.854 61.1006L110.589 65.6758C110.846 65.8939 111.149 66.0029 111.497 66.0029C111.884 66.0029 112.218 65.8646 112.498 65.5879C112.775 65.3145 112.915 64.9824 112.918 64.5918V61.5303C112.918 61.3773 112.897 61.234 112.854 61.1006ZM116.756 60.7783L115.604 61.877L115.145 61.2568L116.756 59.7139L117.537 59.3721V66.4082L116.756 66.75V60.7783ZM4.45117 74.7783L3.29883 75.877L2.83984 75.2568L4.45117 73.7139L5.23242 73.3721V80.4082L4.45117 80.75V74.7783ZM9.00195 75.5303V78.5918C9.00195 78.696 9.01172 78.7952 9.03125 78.8896L11.2578 74.3926C11.0137 74.2103 10.7354 74.1191 10.4229 74.1191C10.029 74.1191 9.69368 74.2575 9.41699 74.5342C9.1403 74.8076 9.00195 75.1396 9.00195 75.5303ZM12.625 75.5449V78.5771C12.625 79.1761 12.4102 79.6888 11.9805 80.1152C11.5508 80.5384 11.0316 80.75 10.4229 80.75C9.81087 80.75 9.29167 80.5384 8.86523 80.1152C8.43555 79.6888 8.2207 79.1761 8.2207 78.5771V75.5449C8.2207 74.946 8.43555 74.4349 8.86523 74.0117C9.29492 73.5853 9.81413 73.3721 10.4229 73.3721C11.0316 73.3721 11.5508 73.5853 11.9805 74.0117C12.4102 74.4349 12.625 74.946 12.625 75.5449ZM11.7803 75.1006L9.51465 79.6758C9.77181 79.8939 10.0745 80.0029 10.4229 80.0029C10.8102 80.0029 11.1439 79.8646 11.4238 79.5879C11.7005 79.3145 11.8405 78.9824 11.8438 78.5918V75.5303C11.8438 75.3773 11.8226 75.234 11.7803 75.1006ZM15.6816 74.7783L14.5293 75.877L14.0703 75.2568L15.6816 73.7139L16.4629 73.3721V80.4082L15.6816 80.75V74.7783ZM20.2324 75.5303V78.5918C20.2324 78.696 20.2422 78.7952 20.2617 78.8896L22.4883 74.3926C22.2441 74.2103 21.9658 74.1191 21.6533 74.1191C21.2594 74.1191 20.9242 74.2575 20.6475 74.5342C20.3708 74.8076 20.2324 75.1396 20.2324 75.5303ZM23.8555 75.5449V78.5771C23.8555 79.1761 23.6406 79.6888 23.2109 80.1152C22.7812 80.5384 22.262 80.75 21.6533 80.75C21.0413 80.75 20.5221 80.5384 20.0957 80.1152C19.666 79.6888 19.4512 79.1761 19.4512 78.5771V75.5449C19.4512 74.946 19.666 74.4349 20.0957 74.0117C20.5254 73.5853 21.0446 73.3721 21.6533 73.3721C22.262 73.3721 22.7812 73.5853 23.2109 74.0117C23.6406 74.4349 23.8555 74.946 23.8555 75.5449ZM23.0107 75.1006L20.7451 79.6758C21.0023 79.8939 21.305 80.0029 21.6533 80.0029C22.0407 80.0029 22.3743 79.8646 22.6543 79.5879C22.931 79.3145 23.071 78.9824 23.0742 78.5918V75.5303C23.0742 75.3773 23.0531 75.234 23.0107 75.1006ZM26.9121 74.7783L25.7598 75.877L25.3008 75.2568L26.9121 73.7139L27.6934 73.3721V80.4082L26.9121 80.75V74.7783ZM31.4629 75.5303V78.5918C31.4629 78.696 31.4727 78.7952 31.4922 78.8896L33.7188 74.3926C33.4746 74.2103 33.1963 74.1191 32.8838 74.1191C32.4899 74.1191 32.1546 74.2575 31.8779 74.5342C31.6012 74.8076 31.4629 75.1396 31.4629 75.5303ZM35.0859 75.5449V78.5771C35.0859 79.1761 34.8711 79.6888 34.4414 80.1152C34.0117 80.5384 33.4925 80.75 32.8838 80.75C32.2718 80.75 31.7526 80.5384 31.3262 80.1152C30.8965 79.6888 30.6816 79.1761 30.6816 78.5771V75.5449C30.6816 74.946 30.8965 74.4349 31.3262 74.0117C31.7559 73.5853 32.2751 73.3721 32.8838 73.3721C33.4925 73.3721 34.0117 73.5853 34.4414 74.0117C34.8711 74.4349 35.0859 74.946 35.0859 75.5449ZM34.2412 75.1006L31.9756 79.6758C32.2327 79.8939 32.5355 80.0029 32.8838 80.0029C33.2712 80.0029 33.6048 79.8646 33.8848 79.5879C34.1615 79.3145 34.3014 78.9824 34.3047 78.5918V75.5303C34.3047 75.3773 34.2835 75.234 34.2412 75.1006ZM38.1426 74.7783L36.9902 75.877L36.5312 75.2568L38.1426 73.7139L38.9238 73.3721V80.4082L38.1426 80.75V74.7783ZM42.6934 75.5303V78.5918C42.6934 78.696 42.7031 78.7952 42.7227 78.8896L44.9492 74.3926C44.7051 74.2103 44.4268 74.1191 44.1143 74.1191C43.7204 74.1191 43.3851 74.2575 43.1084 74.5342C42.8317 74.8076 42.6934 75.1396 42.6934 75.5303ZM46.3164 75.5449V78.5771C46.3164 79.1761 46.1016 79.6888 45.6719 80.1152C45.2422 80.5384 44.723 80.75 44.1143 80.75C43.5023 80.75 42.9831 80.5384 42.5566 80.1152C42.127 79.6888 41.9121 79.1761 41.9121 78.5771V75.5449C41.9121 74.946 42.127 74.4349 42.5566 74.0117C42.9863 73.5853 43.5055 73.3721 44.1143 73.3721C44.723 73.3721 45.2422 73.5853 45.6719 74.0117C46.1016 74.4349 46.3164 74.946 46.3164 75.5449ZM45.4717 75.1006L43.2061 79.6758C43.4632 79.8939 43.766 80.0029 44.1143 80.0029C44.5016 80.0029 44.8353 79.8646 45.1152 79.5879C45.3919 79.3145 45.5319 78.9824 45.5352 78.5918V75.5303C45.5352 75.3773 45.514 75.234 45.4717 75.1006ZM49.373 74.7783L48.2207 75.877L47.7617 75.2568L49.373 73.7139L50.1543 73.3721V80.4082L49.373 80.75V74.7783ZM53.9238 75.5303V78.5918C53.9238 78.696 53.9336 78.7952 53.9531 78.8896L56.1797 74.3926C55.9355 74.2103 55.6572 74.1191 55.3447 74.1191C54.9508 74.1191 54.6156 74.2575 54.3389 74.5342C54.0622 74.8076 53.9238 75.1396 53.9238 75.5303ZM57.5469 75.5449V78.5771C57.5469 79.1761 57.332 79.6888 56.9023 80.1152C56.4727 80.5384 55.9535 80.75 55.3447 80.75C54.7327 80.75 54.2135 80.5384 53.7871 80.1152C53.3574 79.6888 53.1426 79.1761 53.1426 78.5771V75.5449C53.1426 74.946 53.3574 74.4349 53.7871 74.0117C54.2168 73.5853 54.736 73.3721 55.3447 73.3721C55.9535 73.3721 56.4727 73.5853 56.9023 74.0117C57.332 74.4349 57.5469 74.946 57.5469 75.5449ZM56.7021 75.1006L54.4365 79.6758C54.6937 79.8939 54.9964 80.0029 55.3447 80.0029C55.7321 80.0029 56.0658 79.8646 56.3457 79.5879C56.6224 79.3145 56.7624 78.9824 56.7656 78.5918V75.5303C56.7656 75.3773 56.7445 75.234 56.7021 75.1006ZM60.6035 74.7783L59.4512 75.877L58.9922 75.2568L60.6035 73.7139L61.3848 73.3721V80.4082L60.6035 80.75V74.7783ZM65.1543 75.5303V78.5918C65.1543 78.696 65.1641 78.7952 65.1836 78.8896L67.4102 74.3926C67.166 74.2103 66.8877 74.1191 66.5752 74.1191C66.1813 74.1191 65.846 74.2575 65.5693 74.5342C65.2926 74.8076 65.1543 75.1396 65.1543 75.5303ZM68.7773 75.5449V78.5771C68.7773 79.1761 68.5625 79.6888 68.1328 80.1152C67.7031 80.5384 67.1839 80.75 66.5752 80.75C65.9632 80.75 65.444 80.5384 65.0176 80.1152C64.5879 79.6888 64.373 79.1761 64.373 78.5771V75.5449C64.373 74.946 64.5879 74.4349 65.0176 74.0117C65.4473 73.5853 65.9665 73.3721 66.5752 73.3721C67.1839 73.3721 67.7031 73.5853 68.1328 74.0117C68.5625 74.4349 68.7773 74.946 68.7773 75.5449ZM67.9326 75.1006L65.667 79.6758C65.9242 79.8939 66.2269 80.0029 66.5752 80.0029C66.9626 80.0029 67.2962 79.8646 67.5762 79.5879C67.8529 79.3145 67.9928 78.9824 67.9961 78.5918V75.5303C67.9961 75.3773 67.9749 75.234 67.9326 75.1006ZM71.834 74.7783L70.6816 75.877L70.2227 75.2568L71.834 73.7139L72.6152 73.3721V80.4082L71.834 80.75V74.7783ZM76.3848 75.5303V78.5918C76.3848 78.696 76.3945 78.7952 76.4141 78.8896L78.6406 74.3926C78.3965 74.2103 78.1182 74.1191 77.8057 74.1191C77.4118 74.1191 77.0765 74.2575 76.7998 74.5342C76.5231 74.8076 76.3848 75.1396 76.3848 75.5303ZM80.0078 75.5449V78.5771C80.0078 79.1761 79.793 79.6888 79.3633 80.1152C78.9336 80.5384 78.4144 80.75 77.8057 80.75C77.1937 80.75 76.6745 80.5384 76.248 80.1152C75.8184 79.6888 75.6035 79.1761 75.6035 78.5771V75.5449C75.6035 74.946 75.8184 74.4349 76.248 74.0117C76.6777 73.5853 77.1969 73.3721 77.8057 73.3721C78.4144 73.3721 78.9336 73.5853 79.3633 74.0117C79.793 74.4349 80.0078 74.946 80.0078 75.5449ZM79.1631 75.1006L76.8975 79.6758C77.1546 79.8939 77.4574 80.0029 77.8057 80.0029C78.193 80.0029 78.5267 79.8646 78.8066 79.5879C79.0833 79.3145 79.2233 78.9824 79.2266 78.5918V75.5303C79.2266 75.3773 79.2054 75.234 79.1631 75.1006ZM82 75.5303V78.5918C82 78.696 82.0098 78.7952 82.0293 78.8896L84.2559 74.3926C84.0117 74.2103 83.7334 74.1191 83.4209 74.1191C83.027 74.1191 82.6917 74.2575 82.415 74.5342C82.1383 74.8076 82 75.1396 82 75.5303ZM85.623 75.5449V78.5771C85.623 79.1761 85.4082 79.6888 84.9785 80.1152C84.5488 80.5384 84.0296 80.75 83.4209 80.75C82.8089 80.75 82.2897 80.5384 81.8633 80.1152C81.4336 79.6888 81.2188 79.1761 81.2188 78.5771V75.5449C81.2188 74.946 81.4336 74.4349 81.8633 74.0117C82.293 73.5853 82.8122 73.3721 83.4209 73.3721C84.0296 73.3721 84.5488 73.5853 84.9785 74.0117C85.4082 74.4349 85.623 74.946 85.623 75.5449ZM84.7783 75.1006L82.5127 79.6758C82.7699 79.8939 83.0726 80.0029 83.4209 80.0029C83.8083 80.0029 84.1419 79.8646 84.4219 79.5879C84.6986 79.3145 84.8385 78.9824 84.8418 78.5918V75.5303C84.8418 75.3773 84.8206 75.234 84.7783 75.1006ZM88.6797 74.7783L87.5273 75.877L87.0684 75.2568L88.6797 73.7139L89.4609 73.3721V80.4082L88.6797 80.75V74.7783ZM93.2305 75.5303V78.5918C93.2305 78.696 93.2402 78.7952 93.2598 78.8896L95.4863 74.3926C95.2422 74.2103 94.9639 74.1191 94.6514 74.1191C94.2575 74.1191 93.9222 74.2575 93.6455 74.5342C93.3688 74.8076 93.2305 75.1396 93.2305 75.5303ZM96.8535 75.5449V78.5771C96.8535 79.1761 96.6387 79.6888 96.209 80.1152C95.7793 80.5384 95.2601 80.75 94.6514 80.75C94.0394 80.75 93.5202 80.5384 93.0938 80.1152C92.6641 79.6888 92.4492 79.1761 92.4492 78.5771V75.5449C92.4492 74.946 92.6641 74.4349 93.0938 74.0117C93.5234 73.5853 94.0426 73.3721 94.6514 73.3721C95.2601 73.3721 95.7793 73.5853 96.209 74.0117C96.6387 74.4349 96.8535 74.946 96.8535 75.5449ZM96.0088 75.1006L93.7432 79.6758C94.0003 79.8939 94.3031 80.0029 94.6514 80.0029C95.0387 80.0029 95.3724 79.8646 95.6523 79.5879C95.929 79.3145 96.069 78.9824 96.0723 78.5918V75.5303C96.0723 75.3773 96.0511 75.234 96.0088 75.1006ZM99.9102 74.7783L98.7578 75.877L98.2988 75.2568L99.9102 73.7139L100.691 73.3721V80.4082L99.9102 80.75V74.7783ZM104.461 75.5303V78.5918C104.461 78.696 104.471 78.7952 104.49 78.8896L106.717 74.3926C106.473 74.2103 106.194 74.1191 105.882 74.1191C105.488 74.1191 105.153 74.2575 104.876 74.5342C104.599 74.8076 104.461 75.1396 104.461 75.5303ZM108.084 75.5449V78.5771C108.084 79.1761 107.869 79.6888 107.439 80.1152C107.01 80.5384 106.491 80.75 105.882 80.75C105.27 80.75 104.751 80.5384 104.324 80.1152C103.895 79.6888 103.68 79.1761 103.68 78.5771V75.5449C103.68 74.946 103.895 74.4349 104.324 74.0117C104.754 73.5853 105.273 73.3721 105.882 73.3721C106.491 73.3721 107.01 73.5853 107.439 74.0117C107.869 74.4349 108.084 74.946 108.084 75.5449ZM107.239 75.1006L104.974 79.6758C105.231 79.8939 105.534 80.0029 105.882 80.0029C106.269 80.0029 106.603 79.8646 106.883 79.5879C107.16 79.3145 107.299 78.9824 107.303 78.5918V75.5303C107.303 75.3773 107.282 75.234 107.239 75.1006ZM111.141 74.7783L109.988 75.877L109.529 75.2568L111.141 73.7139L111.922 73.3721V80.4082L111.141 80.75V74.7783ZM115.691 75.5303V78.5918C115.691 78.696 115.701 78.7952 115.721 78.8896L117.947 74.3926C117.703 74.2103 117.425 74.1191 117.112 74.1191C116.718 74.1191 116.383 74.2575 116.106 74.5342C115.83 74.8076 115.691 75.1396 115.691 75.5303ZM119.314 75.5449V78.5771C119.314 79.1761 119.1 79.6888 118.67 80.1152C118.24 80.5384 117.721 80.75 117.112 80.75C116.5 80.75 115.981 80.5384 115.555 80.1152C115.125 79.6888 114.91 79.1761 114.91 78.5771V75.5449C114.91 74.946 115.125 74.4349 115.555 74.0117C115.984 73.5853 116.504 73.3721 117.112 73.3721C117.721 73.3721 118.24 73.5853 118.67 74.0117C119.1 74.4349 119.314 74.946 119.314 75.5449ZM118.47 75.1006L116.204 79.6758C116.461 79.8939 116.764 80.0029 117.112 80.0029C117.5 80.0029 117.833 79.8646 118.113 79.5879C118.39 79.3145 118.53 78.9824 118.533 78.5918V75.5303C118.533 75.3773 118.512 75.234 118.47 75.1006ZM4.45117 88.7783L3.29883 89.877L2.83984 89.2568L4.45117 87.7139L5.23242 87.3721V94.4082L4.45117 94.75V88.7783ZM9.00195 89.5303V92.5918C9.00195 92.696 9.01172 92.7952 9.03125 92.8896L11.2578 88.3926C11.0137 88.2103 10.7354 88.1191 10.4229 88.1191C10.029 88.1191 9.69368 88.2575 9.41699 88.5342C9.1403 88.8076 9.00195 89.1396 9.00195 89.5303ZM12.625 89.5449V92.5771C12.625 93.1761 12.4102 93.6888 11.9805 94.1152C11.5508 94.5384 11.0316 94.75 10.4229 94.75C9.81087 94.75 9.29167 94.5384 8.86523 94.1152C8.43555 93.6888 8.2207 93.1761 8.2207 92.5771V89.5449C8.2207 88.946 8.43555 88.4349 8.86523 88.0117C9.29492 87.5853 9.81413 87.3721 10.4229 87.3721C11.0316 87.3721 11.5508 87.5853 11.9805 88.0117C12.4102 88.4349 12.625 88.946 12.625 89.5449ZM11.7803 89.1006L9.51465 93.6758C9.77181 93.8939 10.0745 94.0029 10.4229 94.0029C10.8102 94.0029 11.1439 93.8646 11.4238 93.5879C11.7005 93.3145 11.8405 92.9824 11.8438 92.5918V89.5303C11.8438 89.3773 11.8226 89.234 11.7803 89.1006ZM14.6172 89.5303V92.5918C14.6172 92.696 14.627 92.7952 14.6465 92.8896L16.873 88.3926C16.6289 88.2103 16.3506 88.1191 16.0381 88.1191C15.6442 88.1191 15.3089 88.2575 15.0322 88.5342C14.7555 88.8076 14.6172 89.1396 14.6172 89.5303ZM18.2402 89.5449V92.5771C18.2402 93.1761 18.0254 93.6888 17.5957 94.1152C17.166 94.5384 16.6468 94.75 16.0381 94.75C15.4261 94.75 14.9069 94.5384 14.4805 94.1152C14.0508 93.6888 13.8359 93.1761 13.8359 92.5771V89.5449C13.8359 88.946 14.0508 88.4349 14.4805 88.0117C14.9102 87.5853 15.4294 87.3721 16.0381 87.3721C16.6468 87.3721 17.166 87.5853 17.5957 88.0117C18.0254 88.4349 18.2402 88.946 18.2402 89.5449ZM17.3955 89.1006L15.1299 93.6758C15.387 93.8939 15.6898 94.0029 16.0381 94.0029C16.4255 94.0029 16.7591 93.8646 17.0391 93.5879C17.3158 93.3145 17.4557 92.9824 17.459 92.5918V89.5303C17.459 89.3773 17.4378 89.234 17.3955 89.1006ZM21.2969 88.7783L20.1445 89.877L19.6855 89.2568L21.2969 87.7139L22.0781 87.3721V94.4082L21.2969 94.75V88.7783ZM25.8477 89.5303V92.5918C25.8477 92.696 25.8574 92.7952 25.877 92.8896L28.1035 88.3926C27.8594 88.2103 27.5811 88.1191 27.2686 88.1191C26.8747 88.1191 26.5394 88.2575 26.2627 88.5342C25.986 88.8076 25.8477 89.1396 25.8477 89.5303ZM29.4707 89.5449V92.5771C29.4707 93.1761 29.2559 93.6888 28.8262 94.1152C28.3965 94.5384 27.8773 94.75 27.2686 94.75C26.6566 94.75 26.1374 94.5384 25.7109 94.1152C25.2812 93.6888 25.0664 93.1761 25.0664 92.5771V89.5449C25.0664 88.946 25.2812 88.4349 25.7109 88.0117C26.1406 87.5853 26.6598 87.3721 27.2686 87.3721C27.8773 87.3721 28.3965 87.5853 28.8262 88.0117C29.2559 88.4349 29.4707 88.946 29.4707 89.5449ZM28.626 89.1006L26.3604 93.6758C26.6175 93.8939 26.9202 94.0029 27.2686 94.0029C27.6559 94.0029 27.9896 93.8646 28.2695 93.5879C28.5462 93.3145 28.6862 92.9824 28.6895 92.5918V89.5303C28.6895 89.3773 28.6683 89.234 28.626 89.1006ZM31.4629 89.5303V92.5918C31.4629 92.696 31.4727 92.7952 31.4922 92.8896L33.7188 88.3926C33.4746 88.2103 33.1963 88.1191 32.8838 88.1191C32.4899 88.1191 32.1546 88.2575 31.8779 88.5342C31.6012 88.8076 31.4629 89.1396 31.4629 89.5303ZM35.0859 89.5449V92.5771C35.0859 93.1761 34.8711 93.6888 34.4414 94.1152C34.0117 94.5384 33.4925 94.75 32.8838 94.75C32.2718 94.75 31.7526 94.5384 31.3262 94.1152C30.8965 93.6888 30.6816 93.1761 30.6816 92.5771V89.5449C30.6816 88.946 30.8965 88.4349 31.3262 88.0117C31.7559 87.5853 32.2751 87.3721 32.8838 87.3721C33.4925 87.3721 34.0117 87.5853 34.4414 88.0117C34.8711 88.4349 35.0859 88.946 35.0859 89.5449ZM34.2412 89.1006L31.9756 93.6758C32.2327 93.8939 32.5355 94.0029 32.8838 94.0029C33.2712 94.0029 33.6048 93.8646 33.8848 93.5879C34.1615 93.3145 34.3014 92.9824 34.3047 92.5918V89.5303C34.3047 89.3773 34.2835 89.234 34.2412 89.1006ZM38.1426 88.7783L36.9902 89.877L36.5312 89.2568L38.1426 87.7139L38.9238 87.3721V94.4082L38.1426 94.75V88.7783ZM42.6934 89.5303V92.5918C42.6934 92.696 42.7031 92.7952 42.7227 92.8896L44.9492 88.3926C44.7051 88.2103 44.4268 88.1191 44.1143 88.1191C43.7204 88.1191 43.3851 88.2575 43.1084 88.5342C42.8317 88.8076 42.6934 89.1396 42.6934 89.5303ZM46.3164 89.5449V92.5771C46.3164 93.1761 46.1016 93.6888 45.6719 94.1152C45.2422 94.5384 44.723 94.75 44.1143 94.75C43.5023 94.75 42.9831 94.5384 42.5566 94.1152C42.127 93.6888 41.9121 93.1761 41.9121 92.5771V89.5449C41.9121 88.946 42.127 88.4349 42.5566 88.0117C42.9863 87.5853 43.5055 87.3721 44.1143 87.3721C44.723 87.3721 45.2422 87.5853 45.6719 88.0117C46.1016 88.4349 46.3164 88.946 46.3164 89.5449ZM45.4717 89.1006L43.2061 93.6758C43.4632 93.8939 43.766 94.0029 44.1143 94.0029C44.5016 94.0029 44.8353 93.8646 45.1152 93.5879C45.3919 93.3145 45.5319 92.9824 45.5352 92.5918V89.5303C45.5352 89.3773 45.514 89.234 45.4717 89.1006ZM49.373 88.7783L48.2207 89.877L47.7617 89.2568L49.373 87.7139L50.1543 87.3721V94.4082L49.373 94.75V88.7783ZM53.9238 89.5303V92.5918C53.9238 92.696 53.9336 92.7952 53.9531 92.8896L56.1797 88.3926C55.9355 88.2103 55.6572 88.1191 55.3447 88.1191C54.9508 88.1191 54.6156 88.2575 54.3389 88.5342C54.0622 88.8076 53.9238 89.1396 53.9238 89.5303ZM57.5469 89.5449V92.5771C57.5469 93.1761 57.332 93.6888 56.9023 94.1152C56.4727 94.5384 55.9535 94.75 55.3447 94.75C54.7327 94.75 54.2135 94.5384 53.7871 94.1152C53.3574 93.6888 53.1426 93.1761 53.1426 92.5771V89.5449C53.1426 88.946 53.3574 88.4349 53.7871 88.0117C54.2168 87.5853 54.736 87.3721 55.3447 87.3721C55.9535 87.3721 56.4727 87.5853 56.9023 88.0117C57.332 88.4349 57.5469 88.946 57.5469 89.5449ZM56.7021 89.1006L54.4365 93.6758C54.6937 93.8939 54.9964 94.0029 55.3447 94.0029C55.7321 94.0029 56.0658 93.8646 56.3457 93.5879C56.6224 93.3145 56.7624 92.9824 56.7656 92.5918V89.5303C56.7656 89.3773 56.7445 89.234 56.7021 89.1006ZM60.6035 88.7783L59.4512 89.877L58.9922 89.2568L60.6035 87.7139L61.3848 87.3721V94.4082L60.6035 94.75V88.7783ZM65.1543 89.5303V92.5918C65.1543 92.696 65.1641 92.7952 65.1836 92.8896L67.4102 88.3926C67.166 88.2103 66.8877 88.1191 66.5752 88.1191C66.1813 88.1191 65.846 88.2575 65.5693 88.5342C65.2926 88.8076 65.1543 89.1396 65.1543 89.5303ZM68.7773 89.5449V92.5771C68.7773 93.1761 68.5625 93.6888 68.1328 94.1152C67.7031 94.5384 67.1839 94.75 66.5752 94.75C65.9632 94.75 65.444 94.5384 65.0176 94.1152C64.5879 93.6888 64.373 93.1761 64.373 92.5771V89.5449C64.373 88.946 64.5879 88.4349 65.0176 88.0117C65.4473 87.5853 65.9665 87.3721 66.5752 87.3721C67.1839 87.3721 67.7031 87.5853 68.1328 88.0117C68.5625 88.4349 68.7773 88.946 68.7773 89.5449ZM67.9326 89.1006L65.667 93.6758C65.9242 93.8939 66.2269 94.0029 66.5752 94.0029C66.9626 94.0029 67.2962 93.8646 67.5762 93.5879C67.8529 93.3145 67.9928 92.9824 67.9961 92.5918V89.5303C67.9961 89.3773 67.9749 89.234 67.9326 89.1006ZM71.834 88.7783L70.6816 89.877L70.2227 89.2568L71.834 87.7139L72.6152 87.3721V94.4082L71.834 94.75V88.7783ZM76.3848 89.5303V92.5918C76.3848 92.696 76.3945 92.7952 76.4141 92.8896L78.6406 88.3926C78.3965 88.2103 78.1182 88.1191 77.8057 88.1191C77.4118 88.1191 77.0765 88.2575 76.7998 88.5342C76.5231 88.8076 76.3848 89.1396 76.3848 89.5303ZM80.0078 89.5449V92.5771C80.0078 93.1761 79.793 93.6888 79.3633 94.1152C78.9336 94.5384 78.4144 94.75 77.8057 94.75C77.1937 94.75 76.6745 94.5384 76.248 94.1152C75.8184 93.6888 75.6035 93.1761 75.6035 92.5771V89.5449C75.6035 88.946 75.8184 88.4349 76.248 88.0117C76.6777 87.5853 77.1969 87.3721 77.8057 87.3721C78.4144 87.3721 78.9336 87.5853 79.3633 88.0117C79.793 88.4349 80.0078 88.946 80.0078 89.5449ZM79.1631 89.1006L76.8975 93.6758C77.1546 93.8939 77.4574 94.0029 77.8057 94.0029C78.193 94.0029 78.5267 93.8646 78.8066 93.5879C79.0833 93.3145 79.2233 92.9824 79.2266 92.5918V89.5303C79.2266 89.3773 79.2054 89.234 79.1631 89.1006ZM83.0645 88.7783L81.9121 89.877L81.4531 89.2568L83.0645 87.7139L83.8457 87.3721V94.4082L83.0645 94.75V88.7783ZM87.6152 89.5303V92.5918C87.6152 92.696 87.625 92.7952 87.6445 92.8896L89.8711 88.3926C89.627 88.2103 89.3486 88.1191 89.0361 88.1191C88.6423 88.1191 88.307 88.2575 88.0303 88.5342C87.7536 88.8076 87.6152 89.1396 87.6152 89.5303ZM91.2383 89.5449V92.5771C91.2383 93.1761 91.0234 93.6888 90.5938 94.1152C90.1641 94.5384 89.6449 94.75 89.0361 94.75C88.4242 94.75 87.9049 94.5384 87.4785 94.1152C87.0488 93.6888 86.834 93.1761 86.834 92.5771V89.5449C86.834 88.946 87.0488 88.4349 87.4785 88.0117C87.9082 87.5853 88.4274 87.3721 89.0361 87.3721C89.6449 87.3721 90.1641 87.5853 90.5938 88.0117C91.0234 88.4349 91.2383 88.946 91.2383 89.5449ZM90.3936 89.1006L88.1279 93.6758C88.3851 93.8939 88.6878 94.0029 89.0361 94.0029C89.4235 94.0029 89.7572 93.8646 90.0371 93.5879C90.3138 93.3145 90.4538 92.9824 90.457 92.5918V89.5303C90.457 89.3773 90.4359 89.234 90.3936 89.1006ZM94.2949 88.7783L93.1426 89.877L92.6836 89.2568L94.2949 87.7139L95.0762 87.3721V94.4082L94.2949 94.75V88.7783ZM98.8457 89.5303V92.5918C98.8457 92.696 98.8555 92.7952 98.875 92.8896L101.102 88.3926C100.857 88.2103 100.579 88.1191 100.267 88.1191C99.8727 88.1191 99.5374 88.2575 99.2607 88.5342C98.984 88.8076 98.8457 89.1396 98.8457 89.5303ZM102.469 89.5449V92.5771C102.469 93.1761 102.254 93.6888 101.824 94.1152C101.395 94.5384 100.875 94.75 100.267 94.75C99.6546 94.75 99.1354 94.5384 98.709 94.1152C98.2793 93.6888 98.0645 93.1761 98.0645 92.5771V89.5449C98.0645 88.946 98.2793 88.4349 98.709 88.0117C99.1387 87.5853 99.6579 87.3721 100.267 87.3721C100.875 87.3721 101.395 87.5853 101.824 88.0117C102.254 88.4349 102.469 88.946 102.469 89.5449ZM101.624 89.1006L99.3584 93.6758C99.6156 93.8939 99.9183 94.0029 100.267 94.0029C100.654 94.0029 100.988 93.8646 101.268 93.5879C101.544 93.3145 101.684 92.9824 101.688 92.5918V89.5303C101.688 89.3773 101.666 89.234 101.624 89.1006ZM105.525 88.7783L104.373 89.877L103.914 89.2568L105.525 87.7139L106.307 87.3721V94.4082L105.525 94.75V88.7783ZM111.141 88.7783L109.988 89.877L109.529 89.2568L111.141 87.7139L111.922 87.3721V94.4082L111.141 94.75V88.7783ZM115.691 89.5303V92.5918C115.691 92.696 115.701 92.7952 115.721 92.8896L117.947 88.3926C117.703 88.2103 117.425 88.1191 117.112 88.1191C116.718 88.1191 116.383 88.2575 116.106 88.5342C115.83 88.8076 115.691 89.1396 115.691 89.5303ZM119.314 89.5449V92.5771C119.314 93.1761 119.1 93.6888 118.67 94.1152C118.24 94.5384 117.721 94.75 117.112 94.75C116.5 94.75 115.981 94.5384 115.555 94.1152C115.125 93.6888 114.91 93.1761 114.91 92.5771V89.5449C114.91 88.946 115.125 88.4349 115.555 88.0117C115.984 87.5853 116.504 87.3721 117.112 87.3721C117.721 87.3721 118.24 87.5853 118.67 88.0117C119.1 88.4349 119.314 88.946 119.314 89.5449ZM118.47 89.1006L116.204 93.6758C116.461 93.8939 116.764 94.0029 117.112 94.0029C117.5 94.0029 117.833 93.8646 118.113 93.5879C118.39 93.3145 118.53 92.9824 118.533 92.5918V89.5303C118.533 89.3773 118.512 89.234 118.47 89.1006ZM4.45117 102.778L3.29883 103.877L2.83984 103.257L4.45117 101.714L5.23242 101.372V108.408L4.45117 108.75V102.778ZM9.00195 103.53V106.592C9.00195 106.696 9.01172 106.795 9.03125 106.89L11.2578 102.393C11.0137 102.21 10.7354 102.119 10.4229 102.119C10.029 102.119 9.69368 102.257 9.41699 102.534C9.1403 102.808 9.00195 103.14 9.00195 103.53ZM12.625 103.545V106.577C12.625 107.176 12.4102 107.689 11.9805 108.115C11.5508 108.538 11.0316 108.75 10.4229 108.75C9.81087 108.75 9.29167 108.538 8.86523 108.115C8.43555 107.689 8.2207 107.176 8.2207 106.577V103.545C8.2207 102.946 8.43555 102.435 8.86523 102.012C9.29492 101.585 9.81413 101.372 10.4229 101.372C11.0316 101.372 11.5508 101.585 11.9805 102.012C12.4102 102.435 12.625 102.946 12.625 103.545ZM11.7803 103.101L9.51465 107.676C9.77181 107.894 10.0745 108.003 10.4229 108.003C10.8102 108.003 11.1439 107.865 11.4238 107.588C11.7005 107.314 11.8405 106.982 11.8438 106.592V103.53C11.8438 103.377 11.8226 103.234 11.7803 103.101ZM15.6816 102.778L14.5293 103.877L14.0703 103.257L15.6816 101.714L16.4629 101.372V108.408L15.6816 108.75V102.778ZM20.2324 103.53V106.592C20.2324 106.696 20.2422 106.795 20.2617 106.89L22.4883 102.393C22.2441 102.21 21.9658 102.119 21.6533 102.119C21.2594 102.119 20.9242 102.257 20.6475 102.534C20.3708 102.808 20.2324 103.14 20.2324 103.53ZM23.8555 103.545V106.577C23.8555 107.176 23.6406 107.689 23.2109 108.115C22.7812 108.538 22.262 108.75 21.6533 108.75C21.0413 108.75 20.5221 108.538 20.0957 108.115C19.666 107.689 19.4512 107.176 19.4512 106.577V103.545C19.4512 102.946 19.666 102.435 20.0957 102.012C20.5254 101.585 21.0446 101.372 21.6533 101.372C22.262 101.372 22.7812 101.585 23.2109 102.012C23.6406 102.435 23.8555 102.946 23.8555 103.545ZM23.0107 103.101L20.7451 107.676C21.0023 107.894 21.305 108.003 21.6533 108.003C22.0407 108.003 22.3743 107.865 22.6543 107.588C22.931 107.314 23.071 106.982 23.0742 106.592V103.53C23.0742 103.377 23.0531 103.234 23.0107 103.101ZM26.9121 102.778L25.7598 103.877L25.3008 103.257L26.9121 101.714L27.6934 101.372V108.408L26.9121 108.75V102.778ZM32.5273 102.778L31.375 103.877L30.916 103.257L32.5273 101.714L33.3086 101.372V108.408L32.5273 108.75V102.778ZM37.0781 103.53V106.592C37.0781 106.696 37.0879 106.795 37.1074 106.89L39.334 102.393C39.0898 102.21 38.8115 102.119 38.499 102.119C38.1051 102.119 37.7699 102.257 37.4932 102.534C37.2165 102.808 37.0781 103.14 37.0781 103.53ZM40.7012 103.545V106.577C40.7012 107.176 40.4863 107.689 40.0566 108.115C39.627 108.538 39.1077 108.75 38.499 108.75C37.887 108.75 37.3678 108.538 36.9414 108.115C36.5117 107.689 36.2969 107.176 36.2969 106.577V103.545C36.2969 102.946 36.5117 102.435 36.9414 102.012C37.3711 101.585 37.8903 101.372 38.499 101.372C39.1077 101.372 39.627 101.585 40.0566 102.012C40.4863 102.435 40.7012 102.946 40.7012 103.545ZM39.8564 103.101L37.5908 107.676C37.848 107.894 38.1507 108.003 38.499 108.003C38.8864 108.003 39.2201 107.865 39.5 107.588C39.7767 107.314 39.9167 106.982 39.9199 106.592V103.53C39.9199 103.377 39.8988 103.234 39.8564 103.101ZM43.7578 102.778L42.6055 103.877L42.1465 103.257L43.7578 101.714L44.5391 101.372V108.408L43.7578 108.75V102.778ZM49.373 102.778L48.2207 103.877L47.7617 103.257L49.373 101.714L50.1543 101.372V108.408L49.373 108.75V102.778ZM53.9238 103.53V106.592C53.9238 106.696 53.9336 106.795 53.9531 106.89L56.1797 102.393C55.9355 102.21 55.6572 102.119 55.3447 102.119C54.9508 102.119 54.6156 102.257 54.3389 102.534C54.0622 102.808 53.9238 103.14 53.9238 103.53ZM57.5469 103.545V106.577C57.5469 107.176 57.332 107.689 56.9023 108.115C56.4727 108.538 55.9535 108.75 55.3447 108.75C54.7327 108.75 54.2135 108.538 53.7871 108.115C53.3574 107.689 53.1426 107.176 53.1426 106.577V103.545C53.1426 102.946 53.3574 102.435 53.7871 102.012C54.2168 101.585 54.736 101.372 55.3447 101.372C55.9535 101.372 56.4727 101.585 56.9023 102.012C57.332 102.435 57.5469 102.946 57.5469 103.545ZM56.7021 103.101L54.4365 107.676C54.6937 107.894 54.9964 108.003 55.3447 108.003C55.7321 108.003 56.0658 107.865 56.3457 107.588C56.6224 107.314 56.7624 106.982 56.7656 106.592V103.53C56.7656 103.377 56.7445 103.234 56.7021 103.101ZM60.6035 102.778L59.4512 103.877L58.9922 103.257L60.6035 101.714L61.3848 101.372V108.408L60.6035 108.75V102.778ZM65.1543 103.53V106.592C65.1543 106.696 65.1641 106.795 65.1836 106.89L67.4102 102.393C67.166 102.21 66.8877 102.119 66.5752 102.119C66.1813 102.119 65.846 102.257 65.5693 102.534C65.2926 102.808 65.1543 103.14 65.1543 103.53ZM68.7773 103.545V106.577C68.7773 107.176 68.5625 107.689 68.1328 108.115C67.7031 108.538 67.1839 108.75 66.5752 108.75C65.9632 108.75 65.444 108.538 65.0176 108.115C64.5879 107.689 64.373 107.176 64.373 106.577V103.545C64.373 102.946 64.5879 102.435 65.0176 102.012C65.4473 101.585 65.9665 101.372 66.5752 101.372C67.1839 101.372 67.7031 101.585 68.1328 102.012C68.5625 102.435 68.7773 102.946 68.7773 103.545ZM67.9326 103.101L65.667 107.676C65.9242 107.894 66.2269 108.003 66.5752 108.003C66.9626 108.003 67.2962 107.865 67.5762 107.588C67.8529 107.314 67.9928 106.982 67.9961 106.592V103.53C67.9961 103.377 67.9749 103.234 67.9326 103.101ZM71.834 102.778L70.6816 103.877L70.2227 103.257L71.834 101.714L72.6152 101.372V108.408L71.834 108.75V102.778ZM76.3848 103.53V106.592C76.3848 106.696 76.3945 106.795 76.4141 106.89L78.6406 102.393C78.3965 102.21 78.1182 102.119 77.8057 102.119C77.4118 102.119 77.0765 102.257 76.7998 102.534C76.5231 102.808 76.3848 103.14 76.3848 103.53ZM80.0078 103.545V106.577C80.0078 107.176 79.793 107.689 79.3633 108.115C78.9336 108.538 78.4144 108.75 77.8057 108.75C77.1937 108.75 76.6745 108.538 76.248 108.115C75.8184 107.689 75.6035 107.176 75.6035 106.577V103.545C75.6035 102.946 75.8184 102.435 76.248 102.012C76.6777 101.585 77.1969 101.372 77.8057 101.372C78.4144 101.372 78.9336 101.585 79.3633 102.012C79.793 102.435 80.0078 102.946 80.0078 103.545ZM79.1631 103.101L76.8975 107.676C77.1546 107.894 77.4574 108.003 77.8057 108.003C78.193 108.003 78.5267 107.865 78.8066 107.588C79.0833 107.314 79.2233 106.982 79.2266 106.592V103.53C79.2266 103.377 79.2054 103.234 79.1631 103.101ZM83.0645 102.778L81.9121 103.877L81.4531 103.257L83.0645 101.714L83.8457 101.372V108.408L83.0645 108.75V102.778ZM87.6152 103.53V106.592C87.6152 106.696 87.625 106.795 87.6445 106.89L89.8711 102.393C89.627 102.21 89.3486 102.119 89.0361 102.119C88.6423 102.119 88.307 102.257 88.0303 102.534C87.7536 102.808 87.6152 103.14 87.6152 103.53ZM91.2383 103.545V106.577C91.2383 107.176 91.0234 107.689 90.5938 108.115C90.1641 108.538 89.6449 108.75 89.0361 108.75C88.4242 108.75 87.9049 108.538 87.4785 108.115C87.0488 107.689 86.834 107.176 86.834 106.577V103.545C86.834 102.946 87.0488 102.435 87.4785 102.012C87.9082 101.585 88.4274 101.372 89.0361 101.372C89.6449 101.372 90.1641 101.585 90.5938 102.012C91.0234 102.435 91.2383 102.946 91.2383 103.545ZM90.3936 103.101L88.1279 107.676C88.3851 107.894 88.6878 108.003 89.0361 108.003C89.4235 108.003 89.7572 107.865 90.0371 107.588C90.3138 107.314 90.4538 106.982 90.457 106.592V103.53C90.457 103.377 90.4359 103.234 90.3936 103.101ZM94.2949 102.778L93.1426 103.877L92.6836 103.257L94.2949 101.714L95.0762 101.372V108.408L94.2949 108.75V102.778ZM98.8457 103.53V106.592C98.8457 106.696 98.8555 106.795 98.875 106.89L101.102 102.393C100.857 102.21 100.579 102.119 100.267 102.119C99.8727 102.119 99.5374 102.257 99.2607 102.534C98.984 102.808 98.8457 103.14 98.8457 103.53ZM102.469 103.545V106.577C102.469 107.176 102.254 107.689 101.824 108.115C101.395 108.538 100.875 108.75 100.267 108.75C99.6546 108.75 99.1354 108.538 98.709 108.115C98.2793 107.689 98.0645 107.176 98.0645 106.577V103.545C98.0645 102.946 98.2793 102.435 98.709 102.012C99.1387 101.585 99.6579 101.372 100.267 101.372C100.875 101.372 101.395 101.585 101.824 102.012C102.254 102.435 102.469 102.946 102.469 103.545ZM101.624 103.101L99.3584 107.676C99.6156 107.894 99.9183 108.003 100.267 108.003C100.654 108.003 100.988 107.865 101.268 107.588C101.544 107.314 101.684 106.982 101.688 106.592V103.53C101.688 103.377 101.666 103.234 101.624 103.101ZM105.525 102.778L104.373 103.877L103.914 103.257L105.525 101.714L106.307 101.372V108.408L105.525 108.75V102.778ZM110.076 103.53V106.592C110.076 106.696 110.086 106.795 110.105 106.89L112.332 102.393C112.088 102.21 111.81 102.119 111.497 102.119C111.103 102.119 110.768 102.257 110.491 102.534C110.215 102.808 110.076 103.14 110.076 103.53ZM113.699 103.545V106.577C113.699 107.176 113.484 107.689 113.055 108.115C112.625 108.538 112.106 108.75 111.497 108.75C110.885 108.75 110.366 108.538 109.939 108.115C109.51 107.689 109.295 107.176 109.295 106.577V103.545C109.295 102.946 109.51 102.435 109.939 102.012C110.369 101.585 110.888 101.372 111.497 101.372C112.106 101.372 112.625 101.585 113.055 102.012C113.484 102.435 113.699 102.946 113.699 103.545ZM112.854 103.101L110.589 107.676C110.846 107.894 111.149 108.003 111.497 108.003C111.884 108.003 112.218 107.865 112.498 107.588C112.775 107.314 112.915 106.982 112.918 106.592V103.53C112.918 103.377 112.897 103.234 112.854 103.101ZM116.756 102.778L115.604 103.877L115.145 103.257L116.756 101.714L117.537 101.372V108.408L116.756 108.75V102.778ZM3.38672 117.53V120.592C3.38672 120.696 3.39648 120.795 3.41602 120.89L5.64258 116.393C5.39844 116.21 5.12012 116.119 4.80762 116.119C4.41374 116.119 4.07845 116.257 3.80176 116.534C3.52507 116.808 3.38672 117.14 3.38672 117.53ZM7.00977 117.545V120.577C7.00977 121.176 6.79492 121.689 6.36523 122.115C5.93555 122.538 5.41634 122.75 4.80762 122.75C4.19564 122.75 3.67643 122.538 3.25 122.115C2.82031 121.689 2.60547 121.176 2.60547 120.577V117.545C2.60547 116.946 2.82031 116.435 3.25 116.012C3.67969 115.585 4.19889 115.372 4.80762 115.372C5.41634 115.372 5.93555 115.585 6.36523 116.012C6.79492 116.435 7.00977 116.946 7.00977 117.545ZM6.16504 117.101L3.89941 121.676C4.15658 121.894 4.45931 122.003 4.80762 122.003C5.19499 122.003 5.52865 121.865 5.80859 121.588C6.08529 121.314 6.22526 120.982 6.22852 120.592V117.53C6.22852 117.377 6.20736 117.234 6.16504 117.101ZM9.00195 117.53V120.592C9.00195 120.696 9.01172 120.795 9.03125 120.89L11.2578 116.393C11.0137 116.21 10.7354 116.119 10.4229 116.119C10.029 116.119 9.69368 116.257 9.41699 116.534C9.1403 116.808 9.00195 117.14 9.00195 117.53ZM12.625 117.545V120.577C12.625 121.176 12.4102 121.689 11.9805 122.115C11.5508 122.538 11.0316 122.75 10.4229 122.75C9.81087 122.75 9.29167 122.538 8.86523 122.115C8.43555 121.689 8.2207 121.176 8.2207 120.577V117.545C8.2207 116.946 8.43555 116.435 8.86523 116.012C9.29492 115.585 9.81413 115.372 10.4229 115.372C11.0316 115.372 11.5508 115.585 11.9805 116.012C12.4102 116.435 12.625 116.946 12.625 117.545ZM11.7803 117.101L9.51465 121.676C9.77181 121.894 10.0745 122.003 10.4229 122.003C10.8102 122.003 11.1439 121.865 11.4238 121.588C11.7005 121.314 11.8405 120.982 11.8438 120.592V117.53C11.8438 117.377 11.8226 117.234 11.7803 117.101ZM15.6816 116.778L14.5293 117.877L14.0703 117.257L15.6816 115.714L16.4629 115.372V122.408L15.6816 122.75V116.778ZM20.2324 117.53V120.592C20.2324 120.696 20.2422 120.795 20.2617 120.89L22.4883 116.393C22.2441 116.21 21.9658 116.119 21.6533 116.119C21.2594 116.119 20.9242 116.257 20.6475 116.534C20.3708 116.808 20.2324 117.14 20.2324 117.53ZM23.8555 117.545V120.577C23.8555 121.176 23.6406 121.689 23.2109 122.115C22.7812 122.538 22.262 122.75 21.6533 122.75C21.0413 122.75 20.5221 122.538 20.0957 122.115C19.666 121.689 19.4512 121.176 19.4512 120.577V117.545C19.4512 116.946 19.666 116.435 20.0957 116.012C20.5254 115.585 21.0446 115.372 21.6533 115.372C22.262 115.372 22.7812 115.585 23.2109 116.012C23.6406 116.435 23.8555 116.946 23.8555 117.545ZM23.0107 117.101L20.7451 121.676C21.0023 121.894 21.305 122.003 21.6533 122.003C22.0407 122.003 22.3743 121.865 22.6543 121.588C22.931 121.314 23.071 120.982 23.0742 120.592V117.53C23.0742 117.377 23.0531 117.234 23.0107 117.101ZM26.9121 116.778L25.7598 117.877L25.3008 117.257L26.9121 115.714L27.6934 115.372V122.408L26.9121 122.75V116.778ZM31.4629 117.53V120.592C31.4629 120.696 31.4727 120.795 31.4922 120.89L33.7188 116.393C33.4746 116.21 33.1963 116.119 32.8838 116.119C32.4899 116.119 32.1546 116.257 31.8779 116.534C31.6012 116.808 31.4629 117.14 31.4629 117.53ZM35.0859 117.545V120.577C35.0859 121.176 34.8711 121.689 34.4414 122.115C34.0117 122.538 33.4925 122.75 32.8838 122.75C32.2718 122.75 31.7526 122.538 31.3262 122.115C30.8965 121.689 30.6816 121.176 30.6816 120.577V117.545C30.6816 116.946 30.8965 116.435 31.3262 116.012C31.7559 115.585 32.2751 115.372 32.8838 115.372C33.4925 115.372 34.0117 115.585 34.4414 116.012C34.8711 116.435 35.0859 116.946 35.0859 117.545ZM34.2412 117.101L31.9756 121.676C32.2327 121.894 32.5355 122.003 32.8838 122.003C33.2712 122.003 33.6048 121.865 33.8848 121.588C34.1615 121.314 34.3014 120.982 34.3047 120.592V117.53C34.3047 117.377 34.2835 117.234 34.2412 117.101ZM38.1426 116.778L36.9902 117.877L36.5312 117.257L38.1426 115.714L38.9238 115.372V122.408L38.1426 122.75V116.778ZM42.6934 117.53V120.592C42.6934 120.696 42.7031 120.795 42.7227 120.89L44.9492 116.393C44.7051 116.21 44.4268 116.119 44.1143 116.119C43.7204 116.119 43.3851 116.257 43.1084 116.534C42.8317 116.808 42.6934 117.14 42.6934 117.53ZM46.3164 117.545V120.577C46.3164 121.176 46.1016 121.689 45.6719 122.115C45.2422 122.538 44.723 122.75 44.1143 122.75C43.5023 122.75 42.9831 122.538 42.5566 122.115C42.127 121.689 41.9121 121.176 41.9121 120.577V117.545C41.9121 116.946 42.127 116.435 42.5566 116.012C42.9863 115.585 43.5055 115.372 44.1143 115.372C44.723 115.372 45.2422 115.585 45.6719 116.012C46.1016 116.435 46.3164 116.946 46.3164 117.545ZM45.4717 117.101L43.2061 121.676C43.4632 121.894 43.766 122.003 44.1143 122.003C44.5016 122.003 44.8353 121.865 45.1152 121.588C45.3919 121.314 45.5319 120.982 45.5352 120.592V117.53C45.5352 117.377 45.514 117.234 45.4717 117.101ZM49.373 116.778L48.2207 117.877L47.7617 117.257L49.373 115.714L50.1543 115.372V122.408L49.373 122.75V116.778ZM53.9238 117.53V120.592C53.9238 120.696 53.9336 120.795 53.9531 120.89L56.1797 116.393C55.9355 116.21 55.6572 116.119 55.3447 116.119C54.9508 116.119 54.6156 116.257 54.3389 116.534C54.0622 116.808 53.9238 117.14 53.9238 117.53ZM57.5469 117.545V120.577C57.5469 121.176 57.332 121.689 56.9023 122.115C56.4727 122.538 55.9535 122.75 55.3447 122.75C54.7327 122.75 54.2135 122.538 53.7871 122.115C53.3574 121.689 53.1426 121.176 53.1426 120.577V117.545C53.1426 116.946 53.3574 116.435 53.7871 116.012C54.2168 115.585 54.736 115.372 55.3447 115.372C55.9535 115.372 56.4727 115.585 56.9023 116.012C57.332 116.435 57.5469 116.946 57.5469 117.545ZM56.7021 117.101L54.4365 121.676C54.6937 121.894 54.9964 122.003 55.3447 122.003C55.7321 122.003 56.0658 121.865 56.3457 121.588C56.6224 121.314 56.7624 120.982 56.7656 120.592V117.53C56.7656 117.377 56.7445 117.234 56.7021 117.101ZM60.6035 116.778L59.4512 117.877L58.9922 117.257L60.6035 115.714L61.3848 115.372V122.408L60.6035 122.75V116.778Z" fill="#04C700" fill-opacity="0.35"/>
<rect x="3" y="4.75" width="115" height="115" rx="7" stroke="#42C23F" stroke-width="6"/>
</g>
</g>
<g filter="url(#filter1_ddd_454_947)">
<path d="M30 28.5L42.6015 39.7013C43.0688 40.1167 43.0446 40.8542 42.5511 41.2381L30 51M66 51.625H79.75H93.5" stroke="#3ACB2E" stroke-width="3" stroke-linecap="round" stroke-linejoin="round"/>
<path d="M30 28.5L42.6015 39.7013C43.0688 40.1167 43.0446 40.8542 42.5511 41.2381L30 51M66 51.625H79.75H93.5" stroke="#FFFDFD" stroke-opacity="0.44" stroke-width="3" stroke-linecap="round" stroke-linejoin="round"/>
</g>
<g filter="url(#filter2_ddd_454_947)">
<path d="M30 85.625H95" stroke="#00FF0A" stroke-opacity="0.97" stroke-width="3" stroke-linecap="round" stroke-linejoin="round" shape-rendering="crispEdges"/>
</g>
<defs>
<filter id="filter0_i_454_947" x="0" y="0.75" width="121" height="121" filterUnits="userSpaceOnUse" color-interpolation-filters="sRGB">
<feFlood flood-opacity="0" result="BackgroundImageFix"/>
<feBlend mode="normal" in="SourceGraphic" in2="BackgroundImageFix" result="shape"/>
<feColorMatrix in="SourceAlpha" type="matrix" values="0 0 0 0 0 0 0 0 0 0 0 0 0 0 0 0 0 0 127 0" result="hardAlpha"/>
<feMorphology radius="6" operator="erode" in="SourceAlpha" result="effect1_innerShadow_454_947"/>
<feOffset/>
<feGaussianBlur stdDeviation="10"/>
<feComposite in2="hardAlpha" operator="arithmetic" k2="-1" k3="1"/>
<feColorMatrix type="matrix" values="0 0 0 0 0.0156863 0 0 0 0 0.780392 0 0 0 0 0 0 0 0 1 0"/>
<feBlend mode="normal" in2="shape" result="effect1_innerShadow_454_947"/>
</filter>
<filter id="filter1_ddd_454_947" x="13.5" y="12" width="96.5" height="56.125" filterUnits="userSpaceOnUse" color-interpolation-filters="sRGB">
<feFlood flood-opacity="0" result="BackgroundImageFix"/>
<feColorMatrix in="SourceAlpha" type="matrix" values="0 0 0 0 0 0 0 0 0 0 0 0 0 0 0 0 0 0 127 0" result="hardAlpha"/>
<feOffset/>
<feGaussianBlur stdDeviation="7.5"/>
<feComposite in2="hardAlpha" operator="out"/>
<feColorMatrix type="matrix" values="0 0 0 0 0.227451 0 0 0 0 0.796078 0 0 0 0 0.180392 0 0 0 1 0"/>
<feBlend mode="normal" in2="BackgroundImageFix" result="effect1_dropShadow_454_947"/>
<feColorMatrix in="SourceAlpha" type="matrix" values="0 0 0 0 0 0 0 0 0 0 0 0 0 0 0 0 0 0 127 0" result="hardAlpha"/>
<feOffset/>
<feGaussianBlur stdDeviation="3.5"/>
<feComposite in2="hardAlpha" operator="out"/>
<feColorMatrix type="matrix" values="0 0 0 0 0.227451 0 0 0 0 0.796078 0 0 0 0 0.180392 0 0 0 1 0"/>
<feBlend mode="normal" in2="effect1_dropShadow_454_947" result="effect2_dropShadow_454_947"/>
<feColorMatrix in="SourceAlpha" type="matrix" values="0 0 0 0 0 0 0 0 0 0 0 0 0 0 0 0 0 0 127 0" result="hardAlpha"/>
<feOffset/>
<feGaussianBlur stdDeviation="1.5"/>
<feComposite in2="hardAlpha" operator="out"/>
<feColorMatrix type="matrix" values="0 0 0 0 0.227451 0 0 0 0 0.796078 0 0 0 0 0.180392 0 0 0 1 0"/>
<feBlend mode="normal" in2="effect2_dropShadow_454_947" result="effect3_dropShadow_454_947"/>
<feBlend mode="normal" in="SourceGraphic" in2="effect3_dropShadow_454_947" result="shape"/>
</filter>
<filter id="filter2_ddd_454_947" x="13.5" y="69.125" width="98" height="33" filterUnits="userSpaceOnUse" color-interpolation-filters="sRGB">
<feFlood flood-opacity="0" result="BackgroundImageFix"/>
<feColorMatrix in="SourceAlpha" type="matrix" values="0 0 0 0 0 0 0 0 0 0 0 0 0 0 0 0 0 0 127 0" result="hardAlpha"/>
<feOffset/>
<feGaussianBlur stdDeviation="7.5"/>
<feComposite in2="hardAlpha" operator="out"/>
<feColorMatrix type="matrix" values="0 0 0 0 0.0470588 0 0 0 0 0.984314 0 0 0 0 0.0862745 0 0 0 1 0"/>
<feBlend mode="normal" in2="BackgroundImageFix" result="effect1_dropShadow_454_947"/>
<feColorMatrix in="SourceAlpha" type="matrix" values="0 0 0 0 0 0 0 0 0 0 0 0 0 0 0 0 0 0 127 0" result="hardAlpha"/>
<feOffset/>
<feGaussianBlur stdDeviation="3.5"/>
<feComposite in2="hardAlpha" operator="out"/>
<feColorMatrix type="matrix" values="0 0 0 0 0.0156863 0 0 0 0 0.780392 0 0 0 0 0 0 0 0 1 0"/>
<feBlend mode="normal" in2="effect1_dropShadow_454_947" result="effect2_dropShadow_454_947"/>
<feColorMatrix in="SourceAlpha" type="matrix" values="0 0 0 0 0 0 0 0 0 0 0 0 0 0 0 0 0 0 127 0" result="hardAlpha"/>
<feOffset/>
<feGaussianBlur stdDeviation="1.5"/>
<feComposite in2="hardAlpha" operator="out"/>
<feColorMatrix type="matrix" values="0 0 0 0 0.0156863 0 0 0 0 0.780392 0 0 0 0 0 0 0 0 1 0"/>
<feBlend mode="normal" in2="effect2_dropShadow_454_947" result="effect3_dropShadow_454_947"/>
<feBlend mode="normal" in="SourceGraphic" in2="effect3_dropShadow_454_947" result="shape"/>
</filter>
<clipPath id="clip0_454_947">
<rect y="0.75" width="121" height="121" rx="10" fill="white"/>
</clipPath>
</defs>
</svg>
