<svg width="2736" height="458" viewBox="0 0 2736 458" fill="none" xmlns="http://www.w3.org/2000/svg">
<path d="M2455.5 167.793C2419.94 143.033 2385.49 192.533 2410.54 214.794C2370.78 221.043 2389.41 292.436 2426.54 271.685C2412.1 303.993 2454.13 327.165 2480.25 298.457C2492.71 327.578 2553.04 328.699 2561.59 289.43C2587.52 311.797 2642.52 288.018 2623.96 251.939C2680.59 259.101 2649.99 155.861 2610.79 182.081C2616.97 131.444 2548.45 128.294 2533.21 157.899C2513.17 129.996 2475.71 131.737 2455.5 167.793Z" fill="#B8B8B8"/>
<path d="M2102.09 334.204C2131.33 361.326 2169.07 320.622 2149.09 297.124C2186.13 296.522 2178.3 229.064 2141.8 243.222C2159.09 215.624 2123.76 189.12 2096.27 211.94C2088.64 183.801 2033.8 175.052 2020.98 209.748C2000.21 186.04 1947.03 200.669 1959.33 235.93C1908.63 222.148 1923.29 320.166 1962.38 301.289C1950.27 346.651 2012.31 358.299 2029.99 333.267C2044.69 361.267 2079.05 364.479 2102.09 334.204Z" fill="#B8B8B8"/>
<path d="M1659.22 251.92C1691.71 272.105 1719.79 226.875 1696.68 208.408C1731.45 201.062 1711.72 138.985 1679.95 158.994C1691.18 129.845 1653.06 111.359 1631.36 137.874C1619.03 112.777 1565.8 114.577 1560.07 149.59C1536.18 131.069 1488.79 154.574 1506.82 185.522C1456.56 181.825 1488.31 271.425 1521.66 246.499C1518.55 291.424 1579.1 291.036 1591.16 264.233C1610.12 287.905 1643.07 284.64 1659.22 251.92Z" fill="#B8B8B8"/>
<path d="M1077.65 102.641C1045.66 75.0436 1007.18 119.455 1029.23 143.562C990.001 145.557 1000.82 216.578 1038.96 200.273C1021.66 230.08 1060.09 256.801 1088.36 231.669C1097.49 261.135 1155.93 268.371 1168.23 231.224C1191.11 255.523 1246.91 238.108 1232.57 201.286C1286.8 213.993 1267.62 110.919 1226.9 132.308C1238.05 83.9128 1171.88 73.8765 1154.08 100.986C1137.46 71.927 1100.93 69.7927 1077.65 102.641Z" fill="#B8B8B8"/>
<path d="M623.196 217.391C597.18 194.182 564.781 230.224 582.639 250.411C550.222 251.485 558.139 310.172 589.864 297.29C575.157 321.604 606.503 344.183 630.205 323.883C637.322 348.299 685.464 355.112 696.146 324.678C714.694 345.036 761.013 331.495 749.699 300.94C794.293 312.202 779.922 226.976 745.999 244.011C755.896 204.289 701.406 195.056 686.321 217.138C673.017 192.949 642.887 190.658 623.196 217.391Z" fill="#B8B8B8"/>
<path d="M314.402 240.059C353.36 263.331 385.739 209.096 357.939 187.668C399.03 178.234 374.347 105.004 337.073 129.397C349.796 94.5869 304.193 73.4468 278.998 105.35C263.851 75.834 200.738 79.0711 194.673 120.723C165.951 99.2486 110.221 128.112 132.248 164.451C72.557 161.106 112.068 266.736 151.114 236.476C148.357 289.833 220.17 288.119 233.929 256.074C256.913 283.762 295.922 279.207 314.402 240.059Z" fill="#B8B8B8"/>
</svg>
