<svg width="122" height="122" viewBox="0 0 122 122" fill="none" xmlns="http://www.w3.org/2000/svg">
<g filter="url(#filter0_i_789_1941)">
<rect y="0.5" width="121" height="121" fill="#535353"/>
</g>
<g filter="url(#filter1_i_789_1941)">
<path d="M0 8.125H121M121 23.375H0M0 38.625H121M121 53.875H0M7.5 0.5V121.5M22.5 0.5V121.5M37.5 0.5V121.5M52.5 121.5V0.5M0 99.13H121M121 69.13H0M121 84.38H0M0 114.38H121M67.5 0.5V121.5M83.5 0.5V121.5M98.5 0.5V121.5M113.5 0.5V121.5" stroke="#535353" stroke-width="0.25"/>
</g>
<g filter="url(#filter2_i_789_1941)">
<path d="M0 15.625H121M121 45.875H0M0 76.125H121M121 106.375H0M15.125 0.5V121.5M45.375 0.5V121.5M75.625 0.5V121.5M105.875 121.5V0.5" stroke="#535353" stroke-width="0.5"/>
</g>
<g filter="url(#filter3_i_789_1941)">
<path d="M30.25 121.5V0.5M121 30.75H0M90.75 121.5V0.5M121 91.25H0" stroke="#535353"/>
</g>
<g filter="url(#filter4_i_789_1941)">
<path d="M60.5 0.5V61M0 61H60.5M60.5 61H121M60.5 61V121.5" stroke="#535353" stroke-width="2"/>
</g>
<rect x="2" y="2.5" width="117" height="117" stroke="#535353" stroke-width="4"/>
<defs>
<filter id="filter0_i_789_1941" x="0" y="0.5" width="121" height="121" filterUnits="userSpaceOnUse" color-interpolation-filters="sRGB">
<feFlood flood-opacity="0" result="BackgroundImageFix"/>
<feBlend mode="normal" in="SourceGraphic" in2="BackgroundImageFix" result="shape"/>
<feColorMatrix in="SourceAlpha" type="matrix" values="0 0 0 0 0 0 0 0 0 0 0 0 0 0 0 0 0 0 127 0" result="hardAlpha"/>
<feMorphology radius="100" operator="erode" in="SourceAlpha" result="effect1_innerShadow_789_1941"/>
<feOffset/>
<feComposite in2="hardAlpha" operator="arithmetic" k2="-1" k3="1"/>
<feColorMatrix type="matrix" values="0 0 0 0 0 0 0 0 0 0 0 0 0 0 0 0 0 0 0.88 0"/>
<feBlend mode="normal" in2="shape" result="effect1_innerShadow_789_1941"/>
</filter>
<filter id="filter1_i_789_1941" x="0" y="0.5" width="121" height="125" filterUnits="userSpaceOnUse" color-interpolation-filters="sRGB">
<feFlood flood-opacity="0" result="BackgroundImageFix"/>
<feBlend mode="normal" in="SourceGraphic" in2="BackgroundImageFix" result="shape"/>
<feColorMatrix in="SourceAlpha" type="matrix" values="0 0 0 0 0 0 0 0 0 0 0 0 0 0 0 0 0 0 127 0" result="hardAlpha"/>
<feOffset dy="4"/>
<feGaussianBlur stdDeviation="2"/>
<feComposite in2="hardAlpha" operator="arithmetic" k2="-1" k3="1"/>
<feColorMatrix type="matrix" values="0 0 0 0 0 0 0 0 0 0 0 0 0 0 0 0 0 0 0.6 0"/>
<feBlend mode="normal" in2="shape" result="effect1_innerShadow_789_1941"/>
</filter>
<filter id="filter2_i_789_1941" x="0" y="0.5" width="121" height="125" filterUnits="userSpaceOnUse" color-interpolation-filters="sRGB">
<feFlood flood-opacity="0" result="BackgroundImageFix"/>
<feBlend mode="normal" in="SourceGraphic" in2="BackgroundImageFix" result="shape"/>
<feColorMatrix in="SourceAlpha" type="matrix" values="0 0 0 0 0 0 0 0 0 0 0 0 0 0 0 0 0 0 127 0" result="hardAlpha"/>
<feOffset dy="4"/>
<feGaussianBlur stdDeviation="2"/>
<feComposite in2="hardAlpha" operator="arithmetic" k2="-1" k3="1"/>
<feColorMatrix type="matrix" values="0 0 0 0 0 0 0 0 0 0 0 0 0 0 0 0 0 0 0.45 0"/>
<feBlend mode="normal" in2="shape" result="effect1_innerShadow_789_1941"/>
</filter>
<filter id="filter3_i_789_1941" x="0" y="0.5" width="121" height="125" filterUnits="userSpaceOnUse" color-interpolation-filters="sRGB">
<feFlood flood-opacity="0" result="BackgroundImageFix"/>
<feBlend mode="normal" in="SourceGraphic" in2="BackgroundImageFix" result="shape"/>
<feColorMatrix in="SourceAlpha" type="matrix" values="0 0 0 0 0 0 0 0 0 0 0 0 0 0 0 0 0 0 127 0" result="hardAlpha"/>
<feOffset dy="4"/>
<feGaussianBlur stdDeviation="2"/>
<feComposite in2="hardAlpha" operator="arithmetic" k2="-1" k3="1"/>
<feColorMatrix type="matrix" values="0 0 0 0 0 0 0 0 0 0 0 0 0 0 0 0 0 0 0.3 0"/>
<feBlend mode="normal" in2="shape" result="effect1_innerShadow_789_1941"/>
</filter>
<filter id="filter4_i_789_1941" x="0" y="0.5" width="121" height="125" filterUnits="userSpaceOnUse" color-interpolation-filters="sRGB">
<feFlood flood-opacity="0" result="BackgroundImageFix"/>
<feBlend mode="normal" in="SourceGraphic" in2="BackgroundImageFix" result="shape"/>
<feColorMatrix in="SourceAlpha" type="matrix" values="0 0 0 0 0 0 0 0 0 0 0 0 0 0 0 0 0 0 127 0" result="hardAlpha"/>
<feOffset dy="4"/>
<feGaussianBlur stdDeviation="2"/>
<feComposite in2="hardAlpha" operator="arithmetic" k2="-1" k3="1"/>
<feColorMatrix type="matrix" values="0 0 0 0 0 0 0 0 0 0 0 0 0 0 0 0 0 0 0.15 0"/>
<feBlend mode="normal" in2="shape" result="effect1_innerShadow_789_1941"/>
</filter>
</defs>
</svg>
