<svg width="62" height="71" viewBox="0 0 62 71" fill="none" xmlns="http://www.w3.org/2000/svg">
<path d="M31 0L0 18.2171C0.707235 19.6451 5.59504 28.022 11.5672 38.1652C18.0977 49.2568 25.9248 62.4606 31 71L62 53.25L52.9556 37.714L46.5 26.625L31 0Z" fill="#D7DC10"/>
<path d="M0 18.2171V53.25L11.5672 38.1652C5.59504 28.022 0.707235 19.6451 0 18.2171Z" fill="#B0B408"/>
<path fill-rule="evenodd" clip-rule="evenodd" d="M0 53.25L31 71C25.9248 62.4606 18.0977 49.2568 11.5672 38.1652L0 53.25ZM62 53.25V18.2171L52.9556 37.714L62 53.25Z" fill="#919417"/>
<path d="M62 18.2171L31 0L46.5 26.625L52.9556 37.714L62 18.2171Z" fill="#B0B408"/>
<path d="M8.5 50V20L29 7.5L31 0L33 7.5L54.5 20V50L32 65.3191L31 71L30 65.3191L8.5 50Z" fill="#8D9901"/>
<path d="M32.5 22.5L23 4.5L31 0L39 4.5L46 25L34 47L31 71L27 46L32.5 22.5Z" fill="#696500"/>
</svg>
