<svg width="86" height="86" viewBox="0 0 86 86" fill="none" xmlns="http://www.w3.org/2000/svg">
<path fill-rule="evenodd" clip-rule="evenodd" d="M36.7559 72.4307C39.7625 77.8234 47.5666 77.6872 50.3832 72.1928C52.0644 68.9133 55.8273 67.2772 59.3724 68.2842C65.3116 69.9715 70.7336 64.3568 68.8402 58.4801C67.71 54.9723 69.2138 51.1546 72.4327 49.36C77.8254 46.3534 77.6891 38.5493 72.1948 35.7327C68.9153 34.0515 67.2791 30.2886 68.2862 26.7435C69.9734 20.8043 64.3587 15.3823 58.482 17.2757C54.9743 18.4059 51.1566 16.9021 49.3619 13.6832C46.3553 8.29054 38.5512 8.42676 35.7346 13.9211C34.0534 17.2006 30.2905 18.8368 26.7455 17.8297C20.8063 16.1425 15.3842 21.7572 17.2777 27.6339C18.4079 31.1416 16.904 34.9593 13.6852 36.754C8.2925 39.7606 8.42872 47.5647 13.9231 50.3813C17.2026 52.0625 18.8387 55.8254 17.8317 59.3704C16.1444 65.3096 21.7591 70.7317 27.6358 68.8382C31.1436 67.708 34.9613 69.2119 36.7559 72.4307ZM42.7694 26.4713C33.6094 26.6312 26.3134 34.1864 26.4732 43.3465C26.6331 52.5065 34.1884 59.8026 43.3485 59.6427C52.5085 59.4828 59.8045 51.9275 59.6447 42.7675C59.4848 33.6074 51.9295 26.3114 42.7694 26.4713Z" fill="black" fill-opacity="0.55"/>
</svg>
