<svg width="94" height="79" viewBox="0 0 94 79" fill="none" xmlns="http://www.w3.org/2000/svg">
<path d="M0 39.2113C0 23.5 26.5 -6.2732 32.5 1.21133C40.8552 11.6338 19 23.5 19 39.2113C19 54.9227 36.4094 67.1951 32.5 76.2113C27.2818 88.2462 0 52.3288 0 39.2113Z" fill="black" fill-opacity="0.55"/>
<path d="M29.5 39.2113C29.5 53.9227 93.5 54.2113 93.5 39.2113C93.5 24.2113 29.5 24.5 29.5 39.2113Z" fill="black" fill-opacity="0.55"/>
<path d="M0 39.2113C0 23.5 26.5 -6.2732 32.5 1.21133C40.8552 11.6338 19 23.5 19 39.2113C19 54.9227 36.4094 67.1951 32.5 76.2113C27.2818 88.2462 0 52.3288 0 39.2113Z" stroke="black"/>
<path d="M29.5 39.2113C29.5 53.9227 93.5 54.2113 93.5 39.2113C93.5 24.2113 29.5 24.5 29.5 39.2113Z" stroke="black"/>
</svg>
