<svg width="121" height="121" viewBox="0 0 121 121" fill="none" xmlns="http://www.w3.org/2000/svg">
<rect x="3" y="3" width="115" height="115" rx="16" fill="#C1C1C1" stroke="#969696" stroke-width="6"/>
<g filter="url(#filter0_d_157_534)">
<rect x="32" y="24" width="24" height="20" rx="7" fill="#000F15"/>
</g>
<g filter="url(#filter1_d_157_534)">
<rect x="81" y="24" width="24" height="20" rx="7" fill="#000F15"/>
</g>
<rect x="30" y="68" width="62" height="23" rx="7" fill="#1B1B1B"/>
<path d="M21 112.054C21 113.749 19.748 115.176 18.0621 115.001C15.7174 114.759 12.3628 113.863 9.5 111C6.06635 107.566 5.93388 103.425 6.02593 100.358C6.07814 98.6184 7.62386 97 9.36437 97C10.8389 97 12.0527 98.1598 12.1196 99.6329L12.3101 103.823C12.4196 106.232 14.2578 108.207 16.6525 108.489L17.9671 108.643C19.6966 108.847 21 110.312 21 112.054Z" fill="black" fill-opacity="0.5"/>
<path d="M21 112.054C21 113.749 19.748 115.176 18.0621 115.001C15.7174 114.759 12.3628 113.863 9.5 111C6.06635 107.566 5.93388 103.425 6.02593 100.358C6.07814 98.6184 7.62386 97 9.36437 97C10.8389 97 12.0527 98.1598 12.1196 99.6329L12.3101 103.823C12.4196 106.232 14.2578 108.207 16.6525 108.489L17.9671 108.643C19.6966 108.847 21 110.312 21 112.054Z" fill="black" fill-opacity="0.5"/>
<path d="M21 112.054C21 113.749 19.748 115.176 18.0621 115.001C15.7174 114.759 12.3628 113.863 9.5 111C6.06635 107.566 5.93388 103.425 6.02593 100.358C6.07814 98.6184 7.62386 97 9.36437 97C10.8389 97 12.0527 98.1598 12.1196 99.6329L12.3101 103.823C12.4196 106.232 14.2578 108.207 16.6525 108.489L17.9671 108.643C19.6966 108.847 21 110.312 21 112.054Z" fill="black" fill-opacity="0.5"/>
<path d="M21 112.054C21 113.749 19.748 115.176 18.0621 115.001C15.7174 114.759 12.3628 113.863 9.5 111C6.06635 107.566 5.93388 103.425 6.02593 100.358C6.07814 98.6184 7.62386 97 9.36437 97C10.8389 97 12.0527 98.1598 12.1196 99.6329L12.3101 103.823C12.4196 106.232 14.2578 108.207 16.6525 108.489L17.9671 108.643C19.6966 108.847 21 110.312 21 112.054Z" fill="black" fill-opacity="0.5"/>
<path d="M8.94623 21C7.25129 21 5.82406 19.748 5.99861 18.0621C6.24137 15.7174 7.13717 12.3628 9.99999 9.5C13.4336 6.06635 17.5747 5.93388 20.6419 6.02593C22.3816 6.07814 24 7.62386 24 9.36437C24 10.8389 22.8402 12.0527 21.3671 12.1196L17.1768 12.3101C14.7681 12.4196 12.7932 14.2578 12.5115 16.6525L12.3568 17.9671C12.1533 19.6966 10.6876 21 8.94623 21Z" fill="black" fill-opacity="0.5"/>
<path d="M8.94623 21C7.25129 21 5.82406 19.748 5.99861 18.0621C6.24137 15.7174 7.13717 12.3628 9.99999 9.5C13.4336 6.06635 17.5747 5.93388 20.6419 6.02593C22.3816 6.07814 24 7.62386 24 9.36437C24 10.8389 22.8402 12.0527 21.3671 12.1196L17.1768 12.3101C14.7681 12.4196 12.7932 14.2578 12.5115 16.6525L12.3568 17.9671C12.1533 19.6966 10.6876 21 8.94623 21Z" fill="black" fill-opacity="0.5"/>
<path d="M8.94623 21C7.25129 21 5.82406 19.748 5.99861 18.0621C6.24137 15.7174 7.13717 12.3628 9.99999 9.5C13.4336 6.06635 17.5747 5.93388 20.6419 6.02593C22.3816 6.07814 24 7.62386 24 9.36437C24 10.8389 22.8402 12.0527 21.3671 12.1196L17.1768 12.3101C14.7681 12.4196 12.7932 14.2578 12.5115 16.6525L12.3568 17.9671C12.1533 19.6966 10.6876 21 8.94623 21Z" fill="black" fill-opacity="0.5"/>
<path d="M8.94623 21C7.25129 21 5.82406 19.748 5.99861 18.0621C6.24137 15.7174 7.13717 12.3628 9.99999 9.5C13.4336 6.06635 17.5747 5.93388 20.6419 6.02593C22.3816 6.07814 24 7.62386 24 9.36437C24 10.8389 22.8402 12.0527 21.3671 12.1196L17.1768 12.3101C14.7681 12.4196 12.7932 14.2578 12.5115 16.6525L12.3568 17.9671C12.1533 19.6966 10.6876 21 8.94623 21Z" fill="black" fill-opacity="0.5"/>
<path d="M100 9.02777C100 7.33283 101.252 5.9056 102.938 6.08016C105.283 6.32291 108.637 7.21872 111.5 10.0815C114.934 13.5152 115.066 17.6562 114.974 20.7234C114.922 22.4631 113.376 24.0815 111.636 24.0815C110.161 24.0815 108.947 22.9217 108.88 21.4487L108.69 17.2584C108.58 14.8496 106.742 12.8747 104.347 12.593L103.033 12.4383C101.303 12.2349 100 10.7692 100 9.02777Z" fill="black" fill-opacity="0.5"/>
<path d="M100 9.02777C100 7.33283 101.252 5.9056 102.938 6.08016C105.283 6.32291 108.637 7.21872 111.5 10.0815C114.934 13.5152 115.066 17.6562 114.974 20.7234C114.922 22.4631 113.376 24.0815 111.636 24.0815C110.161 24.0815 108.947 22.9217 108.88 21.4487L108.69 17.2584C108.58 14.8496 106.742 12.8747 104.347 12.593L103.033 12.4383C101.303 12.2349 100 10.7692 100 9.02777Z" fill="black" fill-opacity="0.5"/>
<path d="M100 9.02777C100 7.33283 101.252 5.9056 102.938 6.08016C105.283 6.32291 108.637 7.21872 111.5 10.0815C114.934 13.5152 115.066 17.6562 114.974 20.7234C114.922 22.4631 113.376 24.0815 111.636 24.0815C110.161 24.0815 108.947 22.9217 108.88 21.4487L108.69 17.2584C108.58 14.8496 106.742 12.8747 104.347 12.593L103.033 12.4383C101.303 12.2349 100 10.7692 100 9.02777Z" fill="black" fill-opacity="0.5"/>
<path d="M100 9.02777C100 7.33283 101.252 5.9056 102.938 6.08016C105.283 6.32291 108.637 7.21872 111.5 10.0815C114.934 13.5152 115.066 17.6562 114.974 20.7234C114.922 22.4631 113.376 24.0815 111.636 24.0815C110.161 24.0815 108.947 22.9217 108.88 21.4487L108.69 17.2584C108.58 14.8496 106.742 12.8747 104.347 12.593L103.033 12.4383C101.303 12.2349 100 10.7692 100 9.02777Z" fill="black" fill-opacity="0.5"/>
<path d="M112.054 100C113.749 100 115.176 101.252 115.001 102.938C114.759 105.283 113.863 108.637 111 111.5C107.566 114.934 103.425 115.066 100.358 114.974C98.6184 114.922 97 113.376 97 111.636C97 110.161 98.1598 108.947 99.6329 108.88L103.823 108.69C106.232 108.58 108.207 106.742 108.489 104.347L108.643 103.033C108.847 101.303 110.312 100 112.054 100Z" fill="black" fill-opacity="0.5"/>
<path d="M112.054 100C113.749 100 115.176 101.252 115.001 102.938C114.759 105.283 113.863 108.637 111 111.5C107.566 114.934 103.425 115.066 100.358 114.974C98.6184 114.922 97 113.376 97 111.636C97 110.161 98.1598 108.947 99.6329 108.88L103.823 108.69C106.232 108.58 108.207 106.742 108.489 104.347L108.643 103.033C108.847 101.303 110.312 100 112.054 100Z" fill="black" fill-opacity="0.5"/>
<path d="M112.054 100C113.749 100 115.176 101.252 115.001 102.938C114.759 105.283 113.863 108.637 111 111.5C107.566 114.934 103.425 115.066 100.358 114.974C98.6184 114.922 97 113.376 97 111.636C97 110.161 98.1598 108.947 99.6329 108.88L103.823 108.69C106.232 108.58 108.207 106.742 108.489 104.347L108.643 103.033C108.847 101.303 110.312 100 112.054 100Z" fill="black" fill-opacity="0.5"/>
<path d="M112.054 100C113.749 100 115.176 101.252 115.001 102.938C114.759 105.283 113.863 108.637 111 111.5C107.566 114.934 103.425 115.066 100.358 114.974C98.6184 114.922 97 113.376 97 111.636C97 110.161 98.1598 108.947 99.6329 108.88L103.823 108.69C106.232 108.58 108.207 106.742 108.489 104.347L108.643 103.033C108.847 101.303 110.312 100 112.054 100Z" fill="black" fill-opacity="0.5"/>
<defs>
<filter id="filter0_d_157_534" x="19" y="24" width="37" height="20" filterUnits="userSpaceOnUse" color-interpolation-filters="sRGB">
<feFlood flood-opacity="0" result="BackgroundImageFix"/>
<feColorMatrix in="SourceAlpha" type="matrix" values="0 0 0 0 0 0 0 0 0 0 0 0 0 0 0 0 0 0 127 0" result="hardAlpha"/>
<feOffset dx="-13"/>
<feComposite in2="hardAlpha" operator="out"/>
<feColorMatrix type="matrix" values="0 0 0 0 0 0 0 0 0 0.0323754 0 0 0 0 0.0460938 0 0 0 0.76 0"/>
<feBlend mode="normal" in2="BackgroundImageFix" result="effect1_dropShadow_157_534"/>
<feBlend mode="normal" in="SourceGraphic" in2="effect1_dropShadow_157_534" result="shape"/>
</filter>
<filter id="filter1_d_157_534" x="68" y="24" width="37" height="20" filterUnits="userSpaceOnUse" color-interpolation-filters="sRGB">
<feFlood flood-opacity="0" result="BackgroundImageFix"/>
<feColorMatrix in="SourceAlpha" type="matrix" values="0 0 0 0 0 0 0 0 0 0 0 0 0 0 0 0 0 0 127 0" result="hardAlpha"/>
<feOffset dx="-13"/>
<feComposite in2="hardAlpha" operator="out"/>
<feColorMatrix type="matrix" values="0 0 0 0 0 0 0 0 0 0.0323754 0 0 0 0 0.0460938 0 0 0 0.76 0"/>
<feBlend mode="normal" in2="BackgroundImageFix" result="effect1_dropShadow_157_534"/>
<feBlend mode="normal" in="SourceGraphic" in2="effect1_dropShadow_157_534" result="shape"/>
</filter>
</defs>
</svg>
