<svg width="121" height="122" viewBox="0 0 121 122" fill="none" xmlns="http://www.w3.org/2000/svg">
<rect x="3" y="3.25" width="115" height="115" rx="7" fill="url(#paint0_linear_477_1024)" stroke="#969696" stroke-width="6"/>
<g filter="url(#filter0_dd_477_1024)">
<rect x="32" y="24.25" width="24" height="20" rx="7" fill="#3ACB2E"/>
</g>
<g filter="url(#filter1_dd_477_1024)">
<rect x="81" y="24.25" width="24" height="20" rx="7" fill="#3ACB2E"/>
</g>
<rect x="30" y="68.25" width="62" height="23" rx="7" fill="url(#paint1_linear_477_1024)" fill-opacity="0.6"/>
<path d="M112 100.25C113.657 100.25 115 101.594 115.033 103.251C115.142 108.757 115.404 112.846 114 114.25C112.54 115.71 110.136 115.368 103.004 115.271C101.347 115.248 99.9998 113.907 99.9998 112.25C99.9998 110.593 101.343 109.25 103 109.25L104.5 109.25C106.985 109.25 109 107.235 109 104.75L109 103.25C109 101.593 110.343 100.25 112 100.25Z" fill="#00FF0A" fill-opacity="0.5"/>
<path d="M112 100.25C113.657 100.25 115 101.594 115.033 103.251C115.142 108.757 115.404 112.846 114 114.25C112.54 115.71 110.136 115.368 103.004 115.271C101.347 115.248 99.9998 113.907 99.9998 112.25C99.9998 110.593 101.343 109.25 103 109.25L104.5 109.25C106.985 109.25 109 107.235 109 104.75L109 103.25C109 101.593 110.343 100.25 112 100.25Z" fill="#00FF0A" fill-opacity="0.5"/>
<path d="M112 100.25C113.657 100.25 115 101.594 115.033 103.251C115.142 108.757 115.404 112.846 114 114.25C112.54 115.71 110.136 115.368 103.004 115.271C101.347 115.248 99.9998 113.907 99.9998 112.25C99.9998 110.593 101.343 109.25 103 109.25L104.5 109.25C106.985 109.25 109 107.235 109 104.75L109 103.25C109 101.593 110.343 100.25 112 100.25Z" fill="#00FF0A" fill-opacity="0.5"/>
<path d="M112 100.25C113.657 100.25 115 101.594 115.033 103.251C115.142 108.757 115.404 112.846 114 114.25C112.54 115.71 110.136 115.368 103.004 115.271C101.347 115.248 99.9998 113.907 99.9998 112.25C99.9998 110.593 101.343 109.25 103 109.25L104.5 109.25C106.985 109.25 109 107.235 109 104.75L109 103.25C109 101.593 110.343 100.25 112 100.25Z" fill="#00FF0A" fill-opacity="0.5"/>
<path d="M21.1257 112.25C21.1257 113.907 19.7814 115.251 18.1249 115.283C12.6189 115.392 8.52941 115.654 7.12568 114.25C5.66566 112.79 6.0075 110.386 6.10466 103.254C6.12724 101.597 7.46881 100.25 9.12567 100.25C10.7825 100.25 12.1257 101.593 12.1257 103.25V104.75C12.1257 107.235 14.1404 109.25 16.6257 109.25L18.1258 109.25C19.7826 109.25 21.1257 110.593 21.1257 112.25Z" fill="#00FF0A" fill-opacity="0.5"/>
<path d="M21.1257 112.25C21.1257 113.907 19.7814 115.251 18.1249 115.283C12.6189 115.392 8.52941 115.654 7.12568 114.25C5.66566 112.79 6.0075 110.386 6.10466 103.254C6.12724 101.597 7.46881 100.25 9.12567 100.25C10.7825 100.25 12.1257 101.593 12.1257 103.25V104.75C12.1257 107.235 14.1404 109.25 16.6257 109.25L18.1258 109.25C19.7826 109.25 21.1257 110.593 21.1257 112.25Z" fill="#00FF0A" fill-opacity="0.5"/>
<path d="M21.1257 112.25C21.1257 113.907 19.7814 115.251 18.1249 115.283C12.6189 115.392 8.52941 115.654 7.12568 114.25C5.66566 112.79 6.0075 110.386 6.10466 103.254C6.12724 101.597 7.46881 100.25 9.12567 100.25C10.7825 100.25 12.1257 101.593 12.1257 103.25V104.75C12.1257 107.235 14.1404 109.25 16.6257 109.25L18.1258 109.25C19.7826 109.25 21.1257 110.593 21.1257 112.25Z" fill="#00FF0A" fill-opacity="0.5"/>
<path d="M21.1257 112.25C21.1257 113.907 19.7814 115.251 18.1249 115.283C12.6189 115.392 8.52941 115.654 7.12568 114.25C5.66566 112.79 6.0075 110.386 6.10466 103.254C6.12724 101.597 7.46881 100.25 9.12567 100.25C10.7825 100.25 12.1257 101.593 12.1257 103.25V104.75C12.1257 107.235 14.1404 109.25 16.6257 109.25L18.1258 109.25C19.7826 109.25 21.1257 110.593 21.1257 112.25Z" fill="#00FF0A" fill-opacity="0.5"/>
<path d="M9.12567 20.3757C7.46884 20.3757 6.1252 19.0314 6.09251 17.3749C5.98384 11.8689 5.72184 7.77941 7.12556 6.37568C8.58556 4.91566 10.9897 5.2575 18.1218 5.35466C19.7785 5.37724 21.1257 6.71881 21.1257 8.37567C21.1257 10.0325 19.7826 11.3757 18.1257 11.3757H16.6256C14.1403 11.3757 12.1256 13.3904 12.1256 15.8757L12.1256 17.3758C12.1256 19.0326 10.7825 20.3757 9.12567 20.3757Z" fill="#00FF0A" fill-opacity="0.5"/>
<path d="M9.12567 20.3757C7.46884 20.3757 6.1252 19.0314 6.09251 17.3749C5.98384 11.8689 5.72184 7.77941 7.12556 6.37568C8.58556 4.91566 10.9897 5.2575 18.1218 5.35466C19.7785 5.37724 21.1257 6.71881 21.1257 8.37567C21.1257 10.0325 19.7826 11.3757 18.1257 11.3757H16.6256C14.1403 11.3757 12.1256 13.3904 12.1256 15.8757L12.1256 17.3758C12.1256 19.0326 10.7825 20.3757 9.12567 20.3757Z" fill="#00FF0A" fill-opacity="0.5"/>
<path d="M9.12567 20.3757C7.46884 20.3757 6.1252 19.0314 6.09251 17.3749C5.98384 11.8689 5.72184 7.77941 7.12556 6.37568C8.58556 4.91566 10.9897 5.2575 18.1218 5.35466C19.7785 5.37724 21.1257 6.71881 21.1257 8.37567C21.1257 10.0325 19.7826 11.3757 18.1257 11.3757H16.6256C14.1403 11.3757 12.1256 13.3904 12.1256 15.8757L12.1256 17.3758C12.1256 19.0326 10.7825 20.3757 9.12567 20.3757Z" fill="#00FF0A" fill-opacity="0.5"/>
<path d="M9.12567 20.3757C7.46884 20.3757 6.1252 19.0314 6.09251 17.3749C5.98384 11.8689 5.72184 7.77941 7.12556 6.37568C8.58556 4.91566 10.9897 5.2575 18.1218 5.35466C19.7785 5.37724 21.1257 6.71881 21.1257 8.37567C21.1257 10.0325 19.7826 11.3757 18.1257 11.3757H16.6256C14.1403 11.3757 12.1256 13.3904 12.1256 15.8757L12.1256 17.3758C12.1256 19.0326 10.7825 20.3757 9.12567 20.3757Z" fill="#00FF0A" fill-opacity="0.5"/>
<path d="M100 8.37567C100 6.71884 101.345 5.3752 103.001 5.34251C108.507 5.23384 112.597 4.97184 114 6.37556C115.46 7.83556 115.118 10.2397 115.021 17.3718C114.999 19.0285 113.657 20.3757 112 20.3757C110.343 20.3757 109 19.0326 109 17.3757V15.8756C109 13.3903 106.986 11.3756 104.5 11.3756L103 11.3756C101.343 11.3756 100 10.0325 100 8.37567Z" fill="#00FF0A" fill-opacity="0.5"/>
<path d="M100 8.37567C100 6.71884 101.345 5.3752 103.001 5.34251C108.507 5.23384 112.597 4.97184 114 6.37556C115.46 7.83556 115.118 10.2397 115.021 17.3718C114.999 19.0285 113.657 20.3757 112 20.3757C110.343 20.3757 109 19.0326 109 17.3757V15.8756C109 13.3903 106.986 11.3756 104.5 11.3756L103 11.3756C101.343 11.3756 100 10.0325 100 8.37567Z" fill="#00FF0A" fill-opacity="0.5"/>
<path d="M100 8.37567C100 6.71884 101.345 5.3752 103.001 5.34251C108.507 5.23384 112.597 4.97184 114 6.37556C115.46 7.83556 115.118 10.2397 115.021 17.3718C114.999 19.0285 113.657 20.3757 112 20.3757C110.343 20.3757 109 19.0326 109 17.3757V15.8756C109 13.3903 106.986 11.3756 104.5 11.3756L103 11.3756C101.343 11.3756 100 10.0325 100 8.37567Z" fill="#00FF0A" fill-opacity="0.5"/>
<path d="M100 8.37567C100 6.71884 101.345 5.3752 103.001 5.34251C108.507 5.23384 112.597 4.97184 114 6.37556C115.46 7.83556 115.118 10.2397 115.021 17.3718C114.999 19.0285 113.657 20.3757 112 20.3757C110.343 20.3757 109 19.0326 109 17.3757V15.8756C109 13.3903 106.986 11.3756 104.5 11.3756L103 11.3756C101.343 11.3756 100 10.0325 100 8.37567Z" fill="#00FF0A" fill-opacity="0.5"/>
<defs>
<filter id="filter0_dd_477_1024" x="19" y="24.25" width="37" height="20" filterUnits="userSpaceOnUse" color-interpolation-filters="sRGB">
<feFlood flood-opacity="0" result="BackgroundImageFix"/>
<feColorMatrix in="SourceAlpha" type="matrix" values="0 0 0 0 0 0 0 0 0 0 0 0 0 0 0 0 0 0 127 0" result="hardAlpha"/>
<feOffset dx="-13"/>
<feComposite in2="hardAlpha" operator="out"/>
<feColorMatrix type="matrix" values="0 0 0 0 0.227451 0 0 0 0 0.796078 0 0 0 0 0.180392 0 0 0 1 0"/>
<feBlend mode="normal" in2="BackgroundImageFix" result="effect1_dropShadow_477_1024"/>
<feColorMatrix in="SourceAlpha" type="matrix" values="0 0 0 0 0 0 0 0 0 0 0 0 0 0 0 0 0 0 127 0" result="hardAlpha"/>
<feOffset dx="-13"/>
<feComposite in2="hardAlpha" operator="out"/>
<feColorMatrix type="matrix" values="0 0 0 0 0 0 0 0 0 0 0 0 0 0 0 0 0 0 0.48 0"/>
<feBlend mode="normal" in2="effect1_dropShadow_477_1024" result="effect2_dropShadow_477_1024"/>
<feBlend mode="normal" in="SourceGraphic" in2="effect2_dropShadow_477_1024" result="shape"/>
</filter>
<filter id="filter1_dd_477_1024" x="68" y="24.25" width="37" height="20" filterUnits="userSpaceOnUse" color-interpolation-filters="sRGB">
<feFlood flood-opacity="0" result="BackgroundImageFix"/>
<feColorMatrix in="SourceAlpha" type="matrix" values="0 0 0 0 0 0 0 0 0 0 0 0 0 0 0 0 0 0 127 0" result="hardAlpha"/>
<feOffset dx="-13"/>
<feComposite in2="hardAlpha" operator="out"/>
<feColorMatrix type="matrix" values="0 0 0 0 0.227451 0 0 0 0 0.796078 0 0 0 0 0.180392 0 0 0 1 0"/>
<feBlend mode="normal" in2="BackgroundImageFix" result="effect1_dropShadow_477_1024"/>
<feColorMatrix in="SourceAlpha" type="matrix" values="0 0 0 0 0 0 0 0 0 0 0 0 0 0 0 0 0 0 127 0" result="hardAlpha"/>
<feOffset dx="-13"/>
<feComposite in2="hardAlpha" operator="out"/>
<feColorMatrix type="matrix" values="0 0 0 0 0 0 0 0 0 0 0 0 0 0 0 0 0 0 0.48 0"/>
<feBlend mode="normal" in2="effect1_dropShadow_477_1024" result="effect2_dropShadow_477_1024"/>
<feBlend mode="normal" in="SourceGraphic" in2="effect2_dropShadow_477_1024" result="shape"/>
</filter>
<linearGradient id="paint0_linear_477_1024" x1="60" y1="0.25" x2="60.5" y2="121.25" gradientUnits="userSpaceOnUse">
<stop stop-color="#C1C1C1"/>
<stop offset="1" stop-color="#A5A5A5"/>
</linearGradient>
<linearGradient id="paint1_linear_477_1024" x1="29.75" y1="80.25" x2="91.75" y2="80.25" gradientUnits="userSpaceOnUse">
<stop offset="0.0121527" stop-color="#545454"/>
<stop offset="0.479167" stop-color="#969696"/>
<stop offset="1" stop-color="#545454"/>
</linearGradient>
</defs>
</svg>
