<svg width="122" height="122" viewBox="0 0 122 122" fill="none" xmlns="http://www.w3.org/2000/svg">
<rect x="3.5" y="3.75" width="115" height="115" rx="7" fill="#2D2D2D"/>
<rect x="3.5" y="3.75" width="115" height="115" rx="7" fill="url(#paint0_radial_459_3676)"/>
<rect x="3.5" y="3.75" width="115" height="115" rx="7" stroke="#FAFF00" stroke-width="6"/>
<path d="M50.5 6.75C50.5 20.0833 70.5 20.0833 70.5 6.75H50.5Z" fill="#FF6B00"/>
<path d="M69.4578 7.75C69.2379 10.3018 68.1763 12.1998 66.7106 13.5026C65.0412 14.9866 62.7869 15.75 60.5 15.75C58.2131 15.75 55.9588 14.9866 54.2894 13.5026C52.8237 12.1998 51.7621 10.3018 51.5422 7.75H69.4578Z" stroke="white" stroke-opacity="0.46" stroke-width="2"/>
<path d="M50.5 115.75C50.5 102.417 70.5 102.417 70.5 115.75H50.5Z" fill="#FF6B00"/>
<path d="M51.5422 114.75C51.7621 112.198 52.8237 110.3 54.2894 108.997C55.9588 107.513 58.2131 106.75 60.5 106.75C62.7869 106.75 65.0412 107.513 66.7106 108.997C68.1763 110.3 69.2379 112.198 69.4578 114.75H51.5422Z" stroke="white" stroke-opacity="0.46" stroke-width="2"/>
<path d="M6.5 51.75C19.8333 51.75 19.8333 71.75 6.5 71.75L6.5 51.75Z" fill="#FF6B00"/>
<path d="M7.5 52.7922C10.0518 53.0121 11.9498 54.0737 13.2526 55.5394C14.7366 57.2088 15.5 59.4631 15.5 61.75C15.5 64.0369 14.7366 66.2912 13.2526 67.9606C11.9498 69.4263 10.0518 70.4879 7.5 70.7078L7.5 52.7922Z" stroke="white" stroke-opacity="0.46" stroke-width="2"/>
<path d="M115.5 71.75C102.167 71.75 102.167 51.75 115.5 51.75L115.5 71.75Z" fill="#FF6B00"/>
<path d="M114.5 70.7078C111.948 70.4879 110.05 69.4263 108.747 67.9606C107.263 66.2912 106.5 64.0369 106.5 61.75C106.5 59.4631 107.263 57.2088 108.747 55.5394C110.05 54.0737 111.948 53.0121 114.5 52.7922L114.5 70.7078Z" stroke="white" stroke-opacity="0.46" stroke-width="2"/>
<path d="M61 93.75C74.8842 93.75 83.8674 89.5136 87.9497 84.0316C86.3952 85.4955 81.6752 89.4733 76.6384 89.0925C81.3774 81.1747 75.2168 81.6404 70.9517 85.8322C67.6344 81.6404 67.6344 81.1747 61 90.4897C55.7871 82.5719 53.8915 80.7089 51.0481 86.2979C50.5742 83.5034 39.2008 79.3116 45.8353 89.0925C40.6225 90.4897 34.0041 83.9692 34.0041 83.9692C38.0646 89.4814 47.0632 93.75 61 93.75Z" fill="#FAFF00"/>
<path d="M50.1004 62.0788C43.4658 73.7226 59.1043 73.2569 56.261 60.6815C57.6827 60.2158 59.5782 62.0788 60.0521 63.9418H61.9477C61.9477 63.9418 63.3694 60.6815 64.7911 60.6815C65.7389 76.9829 78.0601 70.4623 72.3734 62.5445C79.4818 61.613 88.6281 70.4623 88.6281 70.4623C84.9219 64.507 75.7126 59.75 61 59.75C45.153 59.75 35.6907 65.2689 32.6128 71.8596C32.6128 71.8596 37.3052 63.9418 50.1004 62.0788Z" fill="#FAFF00"/>
<path d="M34.0041 83.9692C38.0646 89.4814 47.0632 93.75 61 93.75C74.8842 93.75 83.8674 89.5136 87.9497 84.0316M34.0041 83.9692C34.0041 83.9692 40.6225 90.4897 45.8353 89.0925C39.2008 79.3116 50.5742 83.5034 51.0481 86.2979C53.8915 80.7089 55.7871 82.5719 61 90.4897C67.6344 81.1747 67.6344 81.6404 70.9517 85.8322C75.2168 81.6404 81.3774 81.1747 76.6384 89.0925C81.6752 89.4733 86.3952 85.4955 87.9497 84.0316M34.0041 83.9692C31.2218 80.1922 30.7581 75.8313 32.6128 71.8596M88.4858 83.5034C88.4858 83.5034 88.2966 83.7049 87.9497 84.0316M87.9497 84.0316C91.1065 79.7923 91.3327 74.8083 88.6281 70.4623M88.6281 70.4623C84.9219 64.507 75.7126 59.75 61 59.75C45.153 59.75 35.6907 65.2689 32.6128 71.8596M88.6281 70.4623C88.6281 70.4623 79.4818 61.613 72.3734 62.5445C78.0601 70.4623 65.7389 76.9829 64.7911 60.6815C63.3694 60.6815 61.9477 63.9418 61.9477 63.9418H60.0521C59.5782 62.0788 57.6827 60.2158 56.261 60.6815C59.1043 73.2569 43.4658 73.7226 50.1004 62.0788C37.3052 63.9418 32.6128 71.8596 32.6128 71.8596" stroke="#FAFF00" stroke-width="2"/>
<circle cx="39.5" cy="35.75" r="9" fill="#3ACB2E"/>
<circle cx="39.5" cy="35.75" r="9" fill="#2D2D2D" fill-opacity="0.9"/>
<circle cx="39.5" cy="35.75" r="9" stroke="#FAFF00" stroke-width="2"/>
<circle cx="43.5" cy="36" r="4" fill="#3ACB2E"/>
<circle cx="81.5" cy="35.75" r="9" fill="#3ACB2E"/>
<circle cx="81.5" cy="35.75" r="9" fill="#2D2D2D" fill-opacity="0.9"/>
<circle cx="81.5" cy="35.75" r="9" stroke="#FAFF00" stroke-width="2"/>
<circle cx="85.5" cy="36" r="4" fill="#3ACB2E"/>
<defs>
<radialGradient id="paint0_radial_459_3676" cx="0" cy="0" r="1" gradientUnits="userSpaceOnUse" gradientTransform="translate(61 121.5) rotate(-90) scale(77 87.667)">
<stop stop-color="#FAFF00" stop-opacity="0.5"/>
<stop offset="1" stop-color="#F8FF00" stop-opacity="0"/>
</radialGradient>
</defs>
</svg>
